<svg width="626" height="725" viewBox="0 0 626 725" fill="none" xmlns="http://www.w3.org/2000/svg">
<path fill-rule="evenodd" clip-rule="evenodd" d="M311.876 0.250313C373.309 4.54172 406.123 72.5628 457.598 106.399C512.965 142.795 608.988 141.047 624.223 205.569C639.813 271.6 548.462 313.119 521.059 375.177C498.052 427.279 519.091 496.658 478.192 536.269C436.102 577.035 370.035 570.847 311.876 577.779C244.754 585.778 172.681 613.351 114.058 579.666C54.0079 545.16 44.3844 530.748 4.99996 462C-21.6157 415.541 82.0002 367.5 87.5002 268.5C93.0002 169.5 79.6052 126.524 131 90C181.747 53.9367 249.79 -4.08668 311.876 0.250313Z" fill="#2BFFCC" fill-opacity="0.25"/>
<g filter="url(#filter0_dddddd)">
<path d="M199.58 115.288C199.58 115.288 162.41 119.025 117.065 245.104L188.563 276.024C188.563 276.024 238.828 173.054 222.771 125.317L199.58 115.288Z" fill="#F9F9F9"/>
<path d="M132.383 251.536L129.033 259.282L126.371 258.132L123.721 264.259L117.413 261.531L116.166 264.415L175.119 289.909L176.6 286.485L169.703 283.502L171.846 278.546L168.803 277.23L172.426 268.853L132.383 251.536Z" fill="#F9F9F9"/>
<path d="M174.158 208.527C187.171 214.155 202.281 208.168 207.908 195.155C213.536 182.143 207.549 167.033 194.536 161.405C181.524 155.778 166.414 161.765 160.786 174.777C155.159 187.79 161.146 202.9 174.158 208.527Z" fill="#00FABE"/>
<path d="M174.158 208.527C187.171 214.155 202.281 208.168 207.908 195.155C213.536 182.143 207.549 167.033 194.536 161.405C181.524 155.778 166.414 161.765 160.786 174.777C155.159 187.79 161.146 202.9 174.158 208.527Z" fill="url(#paint0_linear)"/>
<path d="M175.683 205.001C186.467 209.665 198.989 204.703 203.652 193.92C208.316 183.136 203.354 170.614 192.571 165.951C181.787 161.287 169.265 166.249 164.602 177.032C159.938 187.816 164.9 200.338 175.683 205.001Z" fill="white"/>
<path d="M178.247 199.612C186.007 202.968 195.019 199.398 198.375 191.638C201.731 183.877 198.16 174.866 190.4 171.51C182.64 168.154 173.628 171.724 170.272 179.485C166.916 187.245 170.487 196.256 178.247 199.612Z" fill="#2BFFCC"/>
<path d="M178.247 199.612C186.007 202.968 195.019 199.398 198.375 191.638C201.731 183.877 198.16 174.866 190.4 171.51C182.64 168.154 173.628 171.724 170.272 179.485C166.916 187.245 170.487 196.256 178.247 199.612Z" fill="url(#paint1_linear)"/>
<path d="M126.108 236.056L89.6136 220.273C88.6744 219.87 87.834 219.268 87.1505 218.508C86.467 217.749 85.9568 216.849 85.6552 215.873C84.3578 211.619 84.044 204.345 95.0126 200.825C111.071 195.67 141.96 194.603 141.96 194.603L126.108 236.056Z" fill="#7AFFDF"/>
<path d="M188.196 259.67L223.408 274.897C224.32 275.29 225.309 275.476 226.302 275.441C227.296 275.405 228.269 275.15 229.151 274.692C233.049 272.685 238.458 267.886 233.79 257.604C226.955 242.549 207.478 219.705 207.478 219.705L188.196 259.67Z" fill="#00FABE"/>
<path d="M166.805 231.096L164.475 230.089C162.607 229.281 160.438 230.141 159.63 232.009L146.124 263.241C145.316 265.109 146.175 267.279 148.043 268.086L150.373 269.094C152.241 269.902 154.41 269.042 155.218 267.174L168.724 235.942C169.532 234.074 168.673 231.904 166.805 231.096Z" fill="#00FABE"/>
<path d="M190.448 119.701L224.232 134.311C224.359 134.359 224.496 134.374 224.629 134.352C224.763 134.331 224.889 134.275 224.994 134.19C225.1 134.105 225.181 133.994 225.23 133.867C225.278 133.741 225.293 133.604 225.272 133.47L220.7 100.573C220.688 100.449 220.643 100.331 220.571 100.229C220.499 100.128 220.402 100.047 220.29 99.9943C220.177 99.9416 220.053 99.9189 219.929 99.9285C219.805 99.9381 219.686 99.9796 219.582 100.049L190.37 118.336C190.25 118.409 190.152 118.513 190.086 118.638C190.021 118.762 189.99 118.902 189.998 119.042C190.006 119.182 190.052 119.318 190.132 119.434C190.211 119.55 190.32 119.642 190.448 119.701Z" fill="#7AFFDF"/>
<path d="M195.961 188.752C195.961 188.752 195.568 195.878 182.359 197.658L195.961 188.752Z" fill="url(#paint2_linear)"/>
</g>
<g filter="url(#filter1_dddddd)">
<path d="M377.203 431.134C373.388 424.798 370.35 423.117 360.91 422.858C351.471 422.6 338.929 422.729 338.929 422.729L338.799 436.112C338.799 436.112 349.208 442.125 354.768 445.099C355.092 445.293 355.997 445.81 356.643 446.198C357.613 446.65 358.647 447.038 359.682 447.297C365.177 448.461 370.156 447.879 373.711 444.323C377.655 440.379 381.017 437.47 377.203 431.134Z" fill="#F4473B"/>
<path d="M306.021 419.238C305.697 419.496 304.857 420.143 304.275 420.596C303.499 421.307 302.788 422.147 302.142 422.988C299.038 427.643 297.681 432.492 299.685 437.146C301.883 442.254 303.37 446.521 310.611 445.293C317.852 444.064 320.632 441.866 324.382 433.267C328.132 424.669 332.722 412.902 332.657 412.902L320.309 407.794C320.309 407.794 310.87 415.229 306.021 419.238Z" fill="#F4473B"/>
<path d="M339.769 423.311C339.769 423.311 339.963 436.823 337.765 437.146C335.567 437.47 305.245 433.073 293.155 432.427C281.065 431.78 253.652 423.957 240.205 408.764C228.567 395.64 230.378 381.093 238.976 381.093C247.575 381.093 255.463 373.787 277.315 384.196C299.167 394.605 322.313 396.351 335.308 395.317C348.303 394.282 384.702 387.558 387.547 385.489C390.391 383.421 404.033 377.473 423.041 379.541C442.048 381.61 433.062 396.674 429.053 402.493C423.429 410.574 410.11 419.238 398.99 419.626C387.87 420.014 339.769 423.311 339.769 423.311Z" fill="#00FABE"/>
<path d="M339.769 423.311C339.769 423.311 339.963 436.823 337.765 437.146C335.567 437.47 305.245 433.073 293.155 432.427C281.065 431.78 253.652 423.957 240.205 408.764C228.567 395.64 230.378 381.093 238.976 381.093C247.575 381.093 255.463 373.787 277.315 384.196C299.167 394.605 322.313 396.351 335.308 395.317C348.303 394.282 384.702 387.558 387.547 385.489C390.391 383.421 404.033 377.473 423.041 379.541C442.048 381.61 433.062 396.674 429.053 402.493C423.429 410.574 410.11 419.238 398.99 419.626C387.87 420.014 339.769 423.311 339.769 423.311Z" fill="url(#paint3_linear)"/>
<path d="M317.27 187.008C310.87 189.335 302.723 221.015 302.723 221.015L302.594 220.885L301.689 225.282L300.59 231.036L302.723 265.431L323.412 275.775L370.931 288.576L384.056 307.261C384.056 307.261 413.472 337.194 413.666 339.263C413.86 341.332 382.051 351.87 379.013 352.323C371.707 353.422 425.756 340.168 408.429 319.157C401.059 310.17 390.262 283.145 368.862 265.237C356.449 254.892 359.94 225.476 355.544 206.856C350.049 183.581 346.687 176.599 341.191 176.599C336.213 176.599 329.295 182.547 317.27 187.008Z" fill="#04AD85"/>
<path d="M317.27 187.008C310.87 189.335 302.723 221.015 302.723 221.015L302.594 220.885L301.689 225.282L300.59 231.036L302.723 265.431L323.412 275.775L370.931 288.576L384.056 307.261C384.056 307.261 413.472 337.194 413.666 339.263C413.86 341.332 382.051 351.87 379.013 352.323C371.707 353.422 425.756 340.168 408.429 319.157C401.059 310.17 390.262 283.145 368.862 265.237C356.449 254.892 359.94 225.476 355.544 206.856C350.049 183.581 346.687 176.599 341.191 176.599C336.213 176.599 329.295 182.547 317.27 187.008Z" fill="url(#paint4_linear)"/>
<path d="M384.508 262.198C374.552 253.082 371.19 250.884 362.462 253.987C353.734 257.091 349.467 259.935 337.571 261.875C330.265 263.168 322.701 262.198 315.912 259.224L291.409 261.681C288.306 261.293 253.459 326.721 252.618 340.298C252.101 348.638 271.044 361.504 276.345 362.797C278.479 363.314 282.293 342.754 283.522 340.88L275.57 338.423C276.992 334.867 281.776 326.074 284.944 321.355C285.914 319.868 293.478 307.39 294.513 302.606C294.707 303.058 295.806 312.109 296.84 315.019C298.78 320.385 301.43 323.424 301.43 327.691C301.43 331.958 300.913 348.896 297.81 356.525C294.707 364.154 290.181 381.804 290.181 381.804L368.539 381.352C368.539 381.352 365.694 347.668 366.858 336.095C366.858 336.095 365.63 331.44 367.957 324.717C371.772 313.596 372.871 297.045 372.224 294.459C371.255 290.386 395.24 324.846 400.477 333.574C402.675 337.194 372.871 343.595 370.414 346.375C367.828 349.284 372.936 357.172 372.936 357.172C372.936 357.172 424.916 350.836 424.657 342.884C424.399 334.932 396.081 272.736 384.508 262.198Z" fill="#00FABE"/>
<path d="M384.508 262.198C374.552 253.082 371.19 250.884 362.462 253.987C353.734 257.091 349.467 259.935 337.571 261.875C330.265 263.168 322.701 262.198 315.912 259.224L291.409 261.681C288.306 261.293 253.459 326.721 252.618 340.298C252.101 348.638 271.044 361.504 276.345 362.797C278.479 363.314 282.293 342.754 283.522 340.88L275.57 338.423C276.992 334.867 281.776 326.074 284.944 321.355C285.914 319.868 293.478 307.39 294.513 302.606C294.707 303.058 295.806 312.109 296.84 315.019C298.78 320.385 301.43 323.424 301.43 327.691C301.43 331.958 300.913 348.896 297.81 356.525C294.707 364.154 290.181 381.804 290.181 381.804L368.539 381.352C368.539 381.352 365.694 347.668 366.858 336.095C366.858 336.095 365.63 331.44 367.957 324.717C371.772 313.596 372.871 297.045 372.224 294.459C371.255 290.386 395.24 324.846 400.477 333.574C402.675 337.194 372.871 343.595 370.414 346.375C367.828 349.284 372.936 357.172 372.936 357.172C372.936 357.172 424.916 350.836 424.657 342.884C424.399 334.932 396.081 272.736 384.508 262.198Z" fill="url(#paint5_linear)"/>
<path d="M323.541 168.388C323.541 168.388 308.995 168.97 304.792 184.228C300.59 199.486 300.008 220.756 299.879 224.053C299.749 227.545 301.366 247.975 293.543 256.509C286.819 263.879 289.534 270.991 287.853 276.874L287.078 286.636C287.207 287.8 288.047 288.77 289.147 289.158C290.181 289.481 293.801 287.8 294.448 287.542C303.499 283.921 303.499 281.012 306.926 278.102C309.771 275.71 317.593 270.15 319.921 267.952C322.248 265.754 323.865 263.814 323.994 261.034C324.447 246.875 321.99 233.816 318.886 226.898C315.783 219.98 309.835 208.278 314.813 200.52C319.792 192.762 328.778 185.003 329.295 183.064C329.813 181.124 330.071 190.564 335.567 193.861C341.062 197.158 345.652 201.748 347.333 206.209C348.756 209.959 350.631 216.36 345.458 227.415C340.286 238.471 336.084 252.694 343.39 263.232C350.695 273.771 366.082 285.149 368.604 290.451C371.449 296.334 368.733 310.17 368.216 318.51C367.699 326.85 384.508 304.028 383.991 293.166C383.474 282.305 385.284 277.65 374.875 260.97C364.466 244.289 357.678 215.713 357.419 208.795C357.16 201.878 354.057 182.676 347.786 177.181C342.355 172.526 341.191 168 330.071 168C327.873 168 325.675 168.129 323.541 168.388Z" fill="#F4473B"/>
<path d="M323.541 168.388C323.541 168.388 308.995 168.97 304.792 184.228C300.59 199.486 300.008 220.756 299.879 224.053C299.749 227.545 301.366 247.975 293.543 256.509C286.819 263.879 289.534 270.991 287.853 276.874L287.078 286.636C287.207 287.8 288.047 288.77 289.147 289.158C290.181 289.481 293.801 287.8 294.448 287.542C303.499 283.921 303.499 281.012 306.926 278.102C309.771 275.71 317.593 270.15 319.921 267.952C322.248 265.754 323.865 263.814 323.994 261.034C324.447 246.875 321.99 233.816 318.886 226.898C315.783 219.98 309.835 208.278 314.813 200.52C319.792 192.762 328.778 185.003 329.295 183.064C329.813 181.124 330.071 190.564 335.567 193.861C341.062 197.158 345.652 201.748 347.333 206.209C348.756 209.959 350.631 216.36 345.458 227.415C340.286 238.471 336.084 252.694 343.39 263.232C350.695 273.771 366.082 285.149 368.604 290.451C371.449 296.334 368.733 310.17 368.216 318.51C367.699 326.85 384.508 304.028 383.991 293.166C383.474 282.305 385.284 277.65 374.875 260.97C364.466 244.289 357.678 215.713 357.419 208.795C357.16 201.878 354.057 182.676 347.786 177.181C342.355 172.526 341.191 168 330.071 168C327.873 168 325.675 168.129 323.541 168.388Z" fill="url(#paint6_linear)"/>
<path opacity="0.07" d="M290.375 399.584L363.819 399.972C363.819 399.972 355.221 406.695 351.083 407.471C346.945 408.247 329.231 417.04 322.636 413.678C317.981 411.156 290.375 399.584 290.375 399.584Z" fill="black"/>
<path opacity="0.07" d="M331.3 234.656C331.3 234.656 338.153 236.402 340.997 232.393C347.398 223.342 341.579 236.984 341.579 236.984C341.579 236.984 339.704 242.285 339.834 244.936C339.963 247.587 332.463 235.044 331.3 234.656Z" fill="black"/>
<path opacity="0.07" d="M303.887 281.206C303.047 282.24 301.818 283.081 301.172 285.731C300.073 289.998 298.909 294.783 295.935 299.179C294.189 301.765 295.159 311.786 298.069 318.122C298.909 319.932 301.495 324.652 301.43 325.751L301.236 334.932H309.124C309.124 334.932 315.848 335.643 314.426 330.083C313.197 325.169 306.797 306.873 311.128 302.864C319.274 295.429 308.995 280.559 312.809 275.775C316.106 271.637 320.826 268.663 320.826 267.306C320.826 266.788 319.598 268.469 318.757 269.051C317.141 270.215 316.3 271.12 314.943 272.025C313.456 272.995 311.193 274.611 309.706 275.71C307.572 277.327 305.633 279.137 303.887 281.206Z" fill="black"/>
<path d="M273.177 340.104C273.177 340.104 273.112 335.32 277.832 335.126C282.552 334.932 382.504 335.061 382.504 335.061C382.504 335.061 386.9 335.578 387.029 339.134C387.159 342.69 387.159 395.511 387.159 395.511C387.159 395.511 387.223 399.584 382.892 399.713C378.56 399.842 276.668 399.842 276.668 399.842C276.668 399.842 272.854 398.872 272.919 395.058C272.983 391.244 273.177 340.104 273.177 340.104Z" fill="white"/>
<path d="M330.459 371.783C332.851 371.783 334.791 369.844 334.791 367.452C334.791 365.059 332.851 363.12 330.459 363.12C328.067 363.12 326.127 365.059 326.127 367.452C326.127 369.844 328.067 371.783 330.459 371.783Z" fill="#2BFFCC"/>
<path d="M330.459 371.783C332.851 371.783 334.791 369.844 334.791 367.452C334.791 365.059 332.851 363.12 330.459 363.12C328.067 363.12 326.127 365.059 326.127 367.452C326.127 369.844 328.067 371.783 330.459 371.783Z" fill="url(#paint7_linear)"/>
</g>
<g filter="url(#filter2_dddddd)">
<path d="M540.165 233.311L512.467 178.75C512.005 177.84 510.892 177.477 509.981 177.939L476.701 194.834C475.79 195.296 475.427 196.409 475.889 197.319L503.587 251.879C504.049 252.79 505.162 253.153 506.072 252.691L539.353 235.796C540.263 235.334 540.627 234.221 540.165 233.311Z" fill="#2BFFCC"/>
<path d="M540.165 233.311L512.467 178.75C512.005 177.84 510.892 177.477 509.981 177.939L476.701 194.834C475.79 195.296 475.427 196.409 475.889 197.319L503.587 251.879C504.049 252.79 505.162 253.153 506.072 252.691L539.353 235.796C540.263 235.334 540.627 234.221 540.165 233.311Z" fill="url(#paint8_linear)"/>
<path d="M532.319 239.367L502.896 181.408L496.721 184.543L526.144 242.502L532.319 239.367Z" fill="white"/>
<path d="M509.31 242.417L500.336 224.74L497.486 226.187L506.46 243.863L509.31 242.417Z" fill="url(#paint9_linear)"/>
<path d="M483.6 204.521C484.643 206.576 487.155 207.396 489.21 206.353C491.265 205.31 492.085 202.798 491.042 200.743C489.999 198.688 487.487 197.868 485.432 198.911C483.377 199.954 482.556 202.466 483.6 204.521Z" fill="white"/>
<path d="M486.311 209.867C487.354 211.922 489.866 212.742 491.921 211.699C493.976 210.655 494.797 208.144 493.753 206.088C492.71 204.033 490.198 203.213 488.143 204.256C486.088 205.3 485.268 207.811 486.311 209.867Z" fill="white"/>
<path d="M528.072 228.276L488.624 181.501C487.966 180.72 486.8 180.621 486.019 181.279L457.488 205.341C456.707 206 456.608 207.166 457.266 207.946L496.714 254.721C497.372 255.502 498.538 255.601 499.319 254.943L527.85 230.881C528.631 230.223 528.73 229.056 528.072 228.276Z" fill="#2BFFCC"/>
<path d="M528.072 228.276L488.624 181.501C487.966 180.72 486.8 180.621 486.019 181.279L457.488 205.341C456.707 206 456.608 207.166 457.266 207.946L496.714 254.721C497.372 255.502 498.538 255.601 499.319 254.943L527.85 230.881C528.631 230.223 528.73 229.056 528.072 228.276Z" fill="url(#paint10_linear)"/>
<path d="M521.82 235.966L479.915 186.278L474.621 190.742L516.526 240.431L521.82 235.966Z" fill="white"/>
<path d="M500.119 244.2L487.339 229.046L484.896 231.106L497.676 246.261L500.119 244.2Z" fill="url(#paint11_linear)"/>
<path d="M466.42 213.193C467.906 214.955 470.539 215.179 472.3 213.693C474.062 212.207 474.286 209.574 472.8 207.812C471.314 206.05 468.682 205.827 466.92 207.312C465.158 208.798 464.934 211.431 466.42 213.193Z" fill="white"/>
<path d="M470.283 217.776C471.769 219.538 474.401 219.762 476.163 218.276C477.925 216.79 478.149 214.157 476.663 212.395C475.177 210.634 472.544 210.41 470.783 211.896C469.021 213.381 468.797 216.014 470.283 217.776Z" fill="white"/>
<path d="M523.301 221.913L472.314 188.085C471.464 187.521 470.316 187.753 469.752 188.604L449.118 219.705C448.553 220.556 448.785 221.703 449.636 222.267L500.623 256.095C501.474 256.659 502.621 256.427 503.186 255.576L523.82 224.475C524.384 223.625 524.152 222.477 523.301 221.913Z" fill="#2BFFCC"/>
<path d="M523.301 221.913L472.314 188.085C471.464 187.521 470.316 187.753 469.752 188.604L449.118 219.705C448.553 220.556 448.785 221.703 449.636 222.267L500.623 256.095C501.474 256.659 502.621 256.427 503.186 255.576L523.82 224.475C524.384 223.625 524.152 222.477 523.301 221.913Z" fill="url(#paint12_linear)"/>
<path d="M519.459 231.049L465.295 195.114L461.467 200.885L515.63 236.819L519.459 231.049Z" fill="white"/>
<path d="M500.94 245.041L484.421 234.081L482.654 236.744L499.173 247.704L500.94 245.041Z" fill="url(#paint13_linear)"/>
<path d="M459.894 224.735C461.815 226.009 464.405 225.485 465.679 223.564C466.953 221.644 466.429 219.054 464.509 217.78C462.588 216.506 459.998 217.03 458.724 218.95C457.45 220.871 457.974 223.461 459.894 224.735Z" fill="white"/>
<path d="M464.888 228.05C466.808 229.324 469.398 228.8 470.672 226.88C471.946 224.959 471.422 222.369 469.502 221.095C467.581 219.821 464.991 220.345 463.717 222.266C462.443 224.186 462.967 226.776 464.888 228.05Z" fill="white"/>
</g>
<g filter="url(#filter3_dddddd)">
<path d="M184.452 540.573L184.465 540.594L184.277 540.663C184.248 540.681 184.216 540.695 184.184 540.706L178.158 543.361L176.956 543.897C170.668 546.389 162.761 544.717 154.645 538.29C137.969 525.098 126.678 496.792 129.421 475.105C130.784 464.324 135.354 457.198 141.666 454.378C141.799 454.299 141.966 454.247 142.118 454.173L148.305 451.429C154.705 448.489 162.913 450.009 171.367 456.706C188.04 469.911 199.335 498.204 196.59 519.91C195.234 530.632 190.701 537.721 184.441 540.573" fill="url(#paint14_linear)"/>
<path d="M185.919 492.007C185.993 492.215 186.058 492.429 186.129 492.639C189.532 502.788 190.993 513.468 189.8 522.904C187.056 544.604 171.314 551.496 154.638 538.293C137.963 525.09 126.667 496.798 129.411 475.097C132.156 453.397 147.898 446.507 164.575 459.706C170.217 464.176 174.917 470.596 179.322 477.458C182.059 481.727 183.846 486.137 185.919 492.007Z" fill="#01CC9B"/>
<path d="M179.789 493.423C179.847 493.599 179.897 493.779 179.954 493.959C182.629 502.565 183.741 511.634 182.725 519.662C180.39 538.123 167.695 544.075 154.372 532.952C141.049 521.828 132.13 497.846 134.464 479.384C136.799 460.921 149.497 454.972 162.824 466.092C167.324 469.857 171.074 475.279 174.573 481.092C176.747 484.703 178.157 488.443 179.79 493.419" fill="#00DFAA"/>
<path d="M178.356 475.932L184.791 472.193C184.791 472.193 185.685 473.854 185.906 474.151C188.496 477.612 194.27 490.755 195.62 499.91L188.816 502.67C188.816 502.67 188.441 500.838 188.318 500.263C186.913 493.794 182.978 482.262 178.356 475.932Z" fill="#00AA81"/>
<path d="M163.064 458.591L170.001 455.679L170.344 455.927C170.344 455.927 173.871 458.593 175.292 460.224C175.292 460.224 168.944 463.709 168.897 463.653C168.651 463.362 165.507 460.177 163.064 458.591Z" fill="#00AA81"/>
<path d="M142.401 471.49L146.359 473.641L146.321 468.558L148.832 469.838L148.77 474.85L153.481 477.381L153.834 472.452L156.256 473.658L155.827 478.579C155.827 478.579 162.685 482.548 163.763 483.244C164.842 483.94 169.212 485.918 170.862 490.41C172.321 494.381 172.936 496.41 172.907 499.138C172.881 501.622 171.271 505.765 168.698 505.6C168.698 505.6 171.769 508.6 173.226 512.309C174.683 516.017 174.216 518.13 174.244 519.059C174.284 520.395 173.097 524.014 171.872 525.107C170.648 526.2 168.94 527.049 166.422 526.858C163.904 526.667 158.172 523.011 158.172 523.011L158.36 529.682L155.684 528.426L155.553 521.89L151.826 519.64V526.249L149.282 524.781L149.293 518.301L143.586 515.226L143.389 508.357L146.642 509.89L146.231 480.343L142.256 478.069L142.401 471.49Z" fill="url(#paint15_linear)"/>
<path d="M151.072 494.253L150.739 482.678L161.915 488.612C161.915 488.612 164.677 489.981 165.665 492.27C166.653 494.559 166.814 496.001 166.84 496.871C166.867 497.741 166.583 500.006 165.558 500.621C164.532 501.236 163.542 501.026 161.898 500.263C160.254 499.499 151.072 494.253 151.072 494.253Z" fill="#00DFAA"/>
<path d="M151.783 512.943L151.449 501.367L162.622 507.303C162.622 507.303 166.261 508.99 167.254 511.281C168.248 513.573 168.391 514.54 168.432 515.939C168.488 517.907 167.772 519.143 166.745 519.752C165.717 520.362 164.253 519.707 162.608 518.944C160.964 518.181 151.783 512.943 151.783 512.943Z" fill="#00DFAA"/>
<path d="M142.373 471.629L145.433 469.825L163.151 479.115C163.151 479.115 170.292 482.172 173.802 488.437C177.835 495.637 175.934 502.312 174.589 503.757C173.933 504.454 173.237 505.113 172.505 505.73C172.505 505.73 174.919 508.355 175.692 510.271C177.023 513.556 176.676 515.881 176.491 517.892C176.305 519.904 176.005 521.376 174.689 523.018C173.202 524.873 170.002 526.269 170.002 526.269C170.002 526.269 173.121 521.76 173.121 517.052C173.121 510.621 171.312 508.469 168.762 505.582C168.878 505.797 172.482 502.332 172.7 499.098C172.923 495.911 171.704 492.911 170.695 490.894C168.953 487.416 166.402 485.49 163.927 483.469C160.698 480.829 142.373 471.629 142.373 471.629Z" fill="url(#paint16_linear)"/>
<path d="M146.323 468.53L149.15 466.63L151.738 467.992L148.828 469.859L146.323 468.53Z" fill="url(#paint17_linear)"/>
<path d="M148.843 469.773L151.762 467.98L151.781 473.191L148.775 474.824L148.843 469.773Z" fill="url(#paint18_linear)"/>
<path d="M153.733 472.51L156.558 470.611L159.146 471.972L156.236 473.839L153.733 472.51Z" fill="#009F79"/>
<path d="M156.251 473.753L159.17 471.961L159.189 477.171L156.185 478.802L156.251 473.753Z" fill="url(#paint19_linear)"/>
<path d="M146.321 470.258L146.338 473.701L148.759 474.901L148.804 471.509L146.321 470.258Z" fill="#5FFFD8"/>
<path d="M153.645 474.301L153.425 477.366L156.136 478.836L156.275 473.849L153.72 472.501" fill="#2FFFCD"/>
<path d="M143.396 508.351L146.479 506.322L146.642 509.898L143.396 508.351Z" fill="url(#paint20_linear)"/>
<path d="M151.833 526.243L154.903 524.434L154.839 521.443L151.826 519.636L151.833 526.243Z" fill="url(#paint21_linear)"/>
<path d="M150.508 482.668L150.847 494.43L162.946 500.804C163.185 500.931 163.447 501.009 163.717 501.033C164.487 501.101 165.966 500.984 166.486 499.248L153.866 492.358L153.768 484.277L150.508 482.668Z" fill="url(#paint22_linear)"/>
<path d="M151.327 501.341L151.667 513.102L159.247 517.159L161.444 518.339L163.585 519.387L163.808 519.486C164.188 519.681 164.589 519.831 165.003 519.934C166.047 520.103 167.253 520.002 168.049 518.286L154.683 511.015L154.586 502.934L151.327 501.341Z" fill="url(#paint23_linear)"/>
<path d="M158.182 523.015L158.369 529.686L161.285 527.947L161.266 524.831C161.266 524.831 160.571 524.44 158.182 523.015Z" fill="url(#paint24_linear)"/>
<path d="M173.823 537.853C174.348 537.634 174.923 537.562 175.486 537.644C176.049 537.726 176.58 537.959 177.021 538.318C178.587 539.566 179.024 540.052 179.23 540.088C179.436 540.123 178.002 540.133 177.417 540.134C176.832 540.136 176.342 540.206 176.031 539.894C175.72 539.583 173.823 537.853 173.823 537.853Z" fill="#008565"/>
<path d="M173.764 537.858C173.764 537.858 175.407 537.885 175.948 539.212C176.49 540.539 175.594 541.617 175.881 542.336C175.948 542.533 176.058 542.714 176.204 542.864C176.35 543.014 176.527 543.129 176.723 543.202C176.723 543.202 175.41 542.613 174.942 542.532C174.473 542.452 173.665 541.437 173.779 540.845C173.873 540.359 173.592 539.008 173.472 538.308C173.444 538.143 173.764 537.858 173.764 537.858Z" fill="#008565"/>
<path d="M171.31 543.468C171.497 543.057 171.572 542.605 171.528 542.156C171.428 541.497 171.649 539.78 172.332 539.225C172.795 538.837 173.227 538.415 173.626 537.961C173.626 537.961 174.364 539.836 173.359 541.602C172.354 543.369 171.31 543.468 171.31 543.468Z" fill="#008565"/>
<path d="M182.982 523.155C182.982 523.155 183.396 521.385 185.1 520.564C186.805 519.743 187.401 519.568 187.513 519.409C187.626 519.25 187.069 520.465 186.84 520.96C186.612 521.455 186.48 521.897 186.09 522.034C185.7 522.171 182.982 523.155 182.982 523.155Z" fill="#008565"/>
<path d="M182.929 523.32C182.929 523.32 184.088 521.755 185.458 521.83C186.829 521.905 187.418 523.095 188.158 523.142C188.355 523.166 188.555 523.146 188.743 523.083C188.931 523.02 189.103 522.916 189.246 522.778C189.246 522.778 188.213 523.658 187.961 524.016C187.71 524.374 186.505 524.655 186.028 524.318C185.64 524.044 183.833 523.556 183.173 523.38L182.929 523.32Z" fill="#008565"/>
<path d="M187.348 527.458C187.062 527.133 186.696 526.888 186.287 526.746C185.674 526.558 184.262 525.69 184.037 524.889C183.812 524.089 182.952 523.313 182.952 523.313C182.952 523.313 185.367 523.416 186.514 524.974C187.661 526.532 187.348 527.458 187.348 527.458Z" fill="#008565"/>
<path d="M182.363 501.065C182.363 501.065 182.571 499.126 184.221 498.133C185.871 497.139 186.47 496.908 186.56 496.736C186.65 496.563 186.21 497.846 186.024 498.367C185.839 498.888 185.747 499.349 185.361 499.526C184.974 499.702 182.363 501.065 182.363 501.065Z" fill="#008565"/>
<path d="M182.068 501.168C182.068 501.168 183.094 499.481 184.494 499.421C185.895 499.361 186.604 500.516 187.359 500.491C188.115 500.467 188.297 500.227 188.297 500.227C188.297 500.227 187.466 501.007 187.245 501.393C187.024 501.779 185.828 502.177 185.312 501.882C184.892 501.642 183.011 501.32 182.325 501.208L182.068 501.168Z" fill="#008565"/>
<path d="M187.159 504.895C186.837 504.594 186.443 504.38 186.015 504.275C185.376 504.151 183.859 503.397 183.564 502.608C183.27 501.819 182.383 501.037 182.383 501.037C182.383 501.037 184.774 500.992 186.086 502.462C187.399 503.932 187.159 504.895 187.159 504.895Z" fill="#008565"/>
<path d="M174.094 480.115C174.094 480.115 173.693 478.354 174.816 476.974C175.939 475.594 176.376 475.208 176.41 475.028C176.444 474.848 176.44 476.108 176.438 476.622C176.436 477.136 176.494 477.559 176.215 477.842C175.936 478.125 174.094 480.115 174.094 480.115Z" fill="#008565"/>
<path d="M174.042 480.193C174.042 480.193 174.417 478.395 175.604 477.914C176.791 477.432 177.745 478.219 178.386 477.964C178.563 477.905 178.725 477.806 178.86 477.677C178.994 477.547 179.098 477.389 179.164 477.214C179.164 477.214 178.63 478.377 178.557 478.784C178.484 479.19 177.572 479.909 177.042 479.809C176.609 479.729 174.895 480.029 174.273 480.143L174.042 480.193Z" fill="#008565"/>
<path d="M179.363 481.982C178.996 481.818 178.593 481.753 178.193 481.795C177.606 481.885 176.078 481.693 175.587 481.095C175.096 480.497 174.102 480.085 174.102 480.085C174.102 480.085 176.144 479.307 177.711 480.186C179.279 481.065 179.363 481.982 179.363 481.982Z" fill="#008565"/>
<path d="M162.35 465.159C162.35 465.159 160.797 464.126 160.475 462.337C160.152 460.548 160.143 459.963 160.029 459.806C159.914 459.648 160.846 460.586 161.223 460.97C161.6 461.354 161.956 461.634 161.984 462.028C162.012 462.421 162.35 465.159 162.35 465.159Z" fill="#008565"/>
<path d="M162.376 465.254C162.376 465.254 161.281 463.662 161.666 462.498C162.05 461.334 163.225 461.264 163.437 460.638C163.501 460.463 163.529 460.277 163.517 460.09C163.506 459.904 163.456 459.723 163.372 459.556C163.372 459.556 163.899 460.783 164.152 461.135C164.405 461.488 164.369 462.635 163.964 462.929C163.636 463.164 162.789 464.557 162.485 465.067L162.376 465.254Z" fill="#008565"/>
<path d="M167.013 462.952C166.664 463.079 166.361 463.308 166.145 463.61C165.845 464.077 164.752 464.979 164.005 464.868C163.259 464.757 162.333 465.132 162.333 465.132C162.333 465.132 163.03 463.162 164.656 462.746C166.282 462.329 167.013 462.952 167.013 462.952Z" fill="#008565"/>
<path d="M141.878 462.83C141.878 462.83 139.838 463.597 138.008 462.564C136.178 461.531 135.644 461.101 135.422 461.096C135.201 461.09 136.709 460.871 137.322 460.782C137.935 460.694 138.447 460.554 138.822 460.822C139.197 461.09 141.878 462.83 141.878 462.83Z" fill="#008565"/>
<path d="M141.981 462.886C141.981 462.886 139.77 462.776 138.998 461.517C138.225 460.259 139.015 459.029 138.606 458.345C138.502 458.153 138.357 457.987 138.182 457.857C138.007 457.728 137.805 457.638 137.592 457.595C137.592 457.595 139.067 457.996 139.566 458.009C140.065 458.023 141.066 458.93 141.04 459.553C141.013 460.059 141.651 461.954 141.889 462.642L141.981 462.886Z" fill="#008565"/>
<path d="M143.252 456.521C143.115 456.963 143.103 457.435 143.216 457.884C143.419 458.534 143.44 460.306 142.804 460.968C142.168 461.63 141.838 462.843 141.838 462.843C141.838 462.843 140.577 460.659 141.371 458.718C142.166 456.778 143.252 456.521 143.252 456.521Z" fill="#008565"/>
<path d="M134.358 479.082C134.358 479.082 133.829 480.698 132.325 481.24C130.821 481.782 130.308 481.87 130.197 481.99C130.086 482.11 130.685 481.107 130.93 480.696C131.176 480.285 131.335 479.91 131.68 479.83C132.025 479.749 134.358 479.082 134.358 479.082Z" fill="#008565"/>
<path d="M134.436 479.046C134.436 479.046 133.3 480.3 132.173 480.087C131.046 479.873 130.694 478.761 130.086 478.641C129.925 478.6 129.756 478.598 129.594 478.633C129.431 478.669 129.279 478.741 129.149 478.845C129.149 478.845 130.103 478.182 130.353 477.893C130.602 477.604 131.631 477.486 131.988 477.835C132.276 478.118 133.718 478.742 134.237 478.96L134.436 479.046Z" fill="#008565"/>
<path d="M131.247 474.923C131.442 475.239 131.717 475.498 132.044 475.673C132.531 475.896 133.6 476.822 133.688 477.548C133.776 478.274 134.337 479.108 134.337 479.108C134.337 479.108 132.421 478.703 131.648 477.205C130.876 475.707 131.247 474.923 131.247 474.923Z" fill="#008565"/>
<path d="M135.091 497.533C135.016 497.916 134.857 498.278 134.625 498.592C134.392 498.906 134.093 499.164 133.748 499.348C132.584 499.94 132.172 500.075 132.1 500.182C132.029 500.289 132.365 499.486 132.502 499.162C132.638 498.838 132.712 498.547 132.983 498.442C133.255 498.337 135.091 497.533 135.091 497.533Z" fill="#008565"/>
<path d="M135.248 497.473C135.248 497.473 134.498 498.521 133.535 498.526C132.571 498.532 132.091 497.789 131.568 497.788C131.045 497.786 131.005 497.744 131.005 497.744C131.254 497.608 131.479 497.43 131.669 497.22C131.83 496.98 132.667 496.755 133.019 496.951C133.306 497.113 134.605 497.356 135.081 497.443L135.248 497.473Z" fill="#008565"/>
<path d="M131.836 495.007C132.058 495.208 132.327 495.351 132.618 495.423C133.058 495.515 134.097 496.025 134.286 496.53C134.476 497.034 135.076 497.549 135.076 497.549C135.076 497.549 133.416 497.527 132.533 496.569C131.65 495.611 131.836 495.007 131.836 495.007Z" fill="#008565"/>
<path d="M140.71 514.969C140.81 515.271 140.842 515.59 140.802 515.905C140.763 516.22 140.654 516.522 140.483 516.79C139.896 517.675 139.658 517.934 139.649 518.039C139.591 517.747 139.55 517.452 139.525 517.156C139.493 516.871 139.427 516.636 139.579 516.454C139.731 516.272 140.71 514.969 140.71 514.969Z" fill="#008565"/>
<path d="M140.736 514.921C140.736 514.921 140.629 515.959 139.943 516.351C139.257 516.743 138.631 516.406 138.256 516.614C138.155 516.662 138.065 516.731 137.992 516.816C137.92 516.901 137.867 517.001 137.836 517.109C137.946 516.803 138.034 516.49 138.098 516.171C138.117 515.937 138.619 515.444 138.948 515.442C139.214 515.442 140.232 515.095 140.601 514.967L140.736 514.921Z" fill="#008565"/>
<path d="M137.395 514.482C137.633 514.535 137.88 514.53 138.115 514.465C138.463 514.354 139.401 514.3 139.738 514.581C140.03 514.781 140.359 514.919 140.706 514.988C140.706 514.988 139.523 515.635 138.514 515.309C137.505 514.982 137.395 514.482 137.395 514.482Z" fill="#008565"/>
<path d="M151.605 530.739C151.786 531 151.906 531.298 151.957 531.612C152.008 531.925 151.988 532.246 151.899 532.55C151.584 533.565 151.429 533.882 151.449 533.983C151.309 533.719 151.184 533.447 151.074 533.169C150.962 532.905 150.836 532.699 150.928 532.481C151.02 532.264 151.605 530.739 151.605 530.739Z" fill="#008565"/>
<path d="M151.616 530.685C151.616 530.685 151.803 531.712 151.256 532.28C150.708 532.849 150.007 532.702 149.711 533.006C149.627 533.08 149.561 533.172 149.515 533.274C149.47 533.376 149.446 533.487 149.447 533.599C149.467 533.275 149.464 532.95 149.437 532.627C149.389 532.399 149.732 531.782 150.047 531.69C150.303 531.615 151.183 530.996 151.502 530.769L151.616 530.685Z" fill="#008565"/>
<path d="M148.288 531.2C148.531 531.185 148.767 531.109 148.974 530.981C149.278 530.777 150.163 530.462 150.566 530.638C150.902 530.748 151.257 530.788 151.609 530.756C151.609 530.756 150.654 531.709 149.595 531.68C148.536 531.652 148.288 531.2 148.288 531.2Z" fill="#008565"/>
</g>
<path d="M368.001 184.5C387.167 161.667 435.501 120.2 475.501 137C525.501 158 560.001 195 563.001 236.5C566.001 278 543.501 323.5 487.001 307C430.501 290.5 377.001 183 432.001 169C487.001 155 568.001 163.5 586.001 206.5C604.001 249.5 583.501 368 551.001 408.5C518.501 449 456.501 523.5 379.501 538C302.501 552.5 250.001 562 181.001 555C112.001 548 79.5006 506 79.0006 475.5C78.5006 445 131.501 400 186.001 423.5C240.501 447 291 507.655 260 532.5C229 557.345 151.5 577.5 109.5 555C67.5005 532.5 11.5005 467.5 37.0005 423.5C62.5005 379.5 123 341.5 142.5 283" stroke="#F4473B" stroke-miterlimit="3.99933" stroke-linecap="round" stroke-dasharray="3 3"/>
<defs>
<filter id="filter0_dddddd" x="1.89844" y="91.9268" width="327.233" height="377.983" filterUnits="userSpaceOnUse" color-interpolation-filters="sRGB">
<feFlood flood-opacity="0" result="BackgroundImageFix"/>
<feColorMatrix in="SourceAlpha" type="matrix" values="0 0 0 0 0 0 0 0 0 0 0 0 0 0 0 0 0 0 127 0"/>
<feOffset dy="2.76726"/>
<feGaussianBlur stdDeviation="1.1069"/>
<feColorMatrix type="matrix" values="0 0 0 0 0.0313726 0 0 0 0 0.411765 0 0 0 0 0.270588 0 0 0 0.030926 0"/>
<feBlend mode="normal" in2="BackgroundImageFix" result="effect1_dropShadow"/>
<feColorMatrix in="SourceAlpha" type="matrix" values="0 0 0 0 0 0 0 0 0 0 0 0 0 0 0 0 0 0 127 0"/>
<feOffset dy="6.6501"/>
<feGaussianBlur stdDeviation="2.66004"/>
<feColorMatrix type="matrix" values="0 0 0 0 0.0313726 0 0 0 0 0.411765 0 0 0 0 0.270588 0 0 0 0.0444282 0"/>
<feBlend mode="normal" in2="effect1_dropShadow" result="effect2_dropShadow"/>
<feColorMatrix in="SourceAlpha" type="matrix" values="0 0 0 0 0 0 0 0 0 0 0 0 0 0 0 0 0 0 127 0"/>
<feOffset dy="12.5216"/>
<feGaussianBlur stdDeviation="5.00862"/>
<feColorMatrix type="matrix" values="0 0 0 0 0.0313726 0 0 0 0 0.411765 0 0 0 0 0.270588 0 0 0 0.055 0"/>
<feBlend mode="normal" in2="effect2_dropShadow" result="effect3_dropShadow"/>
<feColorMatrix in="SourceAlpha" type="matrix" values="0 0 0 0 0 0 0 0 0 0 0 0 0 0 0 0 0 0 127 0"/>
<feOffset dy="22.3363"/>
<feGaussianBlur stdDeviation="8.93452"/>
<feColorMatrix type="matrix" values="0 0 0 0 0.0313726 0 0 0 0 0.411765 0 0 0 0 0.270588 0 0 0 0.0655718 0"/>
<feBlend mode="normal" in2="effect3_dropShadow" result="effect4_dropShadow"/>
<feColorMatrix in="SourceAlpha" type="matrix" values="0 0 0 0 0 0 0 0 0 0 0 0 0 0 0 0 0 0 127 0"/>
<feOffset dy="41.7776"/>
<feGaussianBlur stdDeviation="16.711"/>
<feColorMatrix type="matrix" values="0 0 0 0 0.0313726 0 0 0 0 0.411765 0 0 0 0 0.270588 0 0 0 0.079074 0"/>
<feBlend mode="normal" in2="effect4_dropShadow" result="effect5_dropShadow"/>
<feColorMatrix in="SourceAlpha" type="matrix" values="0 0 0 0 0 0 0 0 0 0 0 0 0 0 0 0 0 0 127 0"/>
<feOffset dy="100"/>
<feGaussianBlur stdDeviation="40"/>
<feColorMatrix type="matrix" values="0 0 0 0 0.0313726 0 0 0 0 0.411765 0 0 0 0 0.270588 0 0 0 0.11 0"/>
<feBlend mode="normal" in2="effect5_dropShadow" result="effect6_dropShadow"/>
<feBlend mode="normal" in="SourceGraphic" in2="effect6_dropShadow" result="shape"/>
</filter>
<filter id="filter1_dddddd" x="152" y="168" width="362.713" height="459.84" filterUnits="userSpaceOnUse" color-interpolation-filters="sRGB">
<feFlood flood-opacity="0" result="BackgroundImageFix"/>
<feColorMatrix in="SourceAlpha" type="matrix" values="0 0 0 0 0 0 0 0 0 0 0 0 0 0 0 0 0 0 127 0"/>
<feOffset dy="2.76726"/>
<feGaussianBlur stdDeviation="1.1069"/>
<feColorMatrix type="matrix" values="0 0 0 0 0.0313726 0 0 0 0 0.411765 0 0 0 0 0.270588 0 0 0 0.030926 0"/>
<feBlend mode="normal" in2="BackgroundImageFix" result="effect1_dropShadow"/>
<feColorMatrix in="SourceAlpha" type="matrix" values="0 0 0 0 0 0 0 0 0 0 0 0 0 0 0 0 0 0 127 0"/>
<feOffset dy="6.6501"/>
<feGaussianBlur stdDeviation="2.66004"/>
<feColorMatrix type="matrix" values="0 0 0 0 0.0313726 0 0 0 0 0.411765 0 0 0 0 0.270588 0 0 0 0.0444282 0"/>
<feBlend mode="normal" in2="effect1_dropShadow" result="effect2_dropShadow"/>
<feColorMatrix in="SourceAlpha" type="matrix" values="0 0 0 0 0 0 0 0 0 0 0 0 0 0 0 0 0 0 127 0"/>
<feOffset dy="12.5216"/>
<feGaussianBlur stdDeviation="5.00862"/>
<feColorMatrix type="matrix" values="0 0 0 0 0.0313726 0 0 0 0 0.411765 0 0 0 0 0.270588 0 0 0 0.055 0"/>
<feBlend mode="normal" in2="effect2_dropShadow" result="effect3_dropShadow"/>
<feColorMatrix in="SourceAlpha" type="matrix" values="0 0 0 0 0 0 0 0 0 0 0 0 0 0 0 0 0 0 127 0"/>
<feOffset dy="22.3363"/>
<feGaussianBlur stdDeviation="8.93452"/>
<feColorMatrix type="matrix" values="0 0 0 0 0.0313726 0 0 0 0 0.411765 0 0 0 0 0.270588 0 0 0 0.0655718 0"/>
<feBlend mode="normal" in2="effect3_dropShadow" result="effect4_dropShadow"/>
<feColorMatrix in="SourceAlpha" type="matrix" values="0 0 0 0 0 0 0 0 0 0 0 0 0 0 0 0 0 0 127 0"/>
<feOffset dy="41.7776"/>
<feGaussianBlur stdDeviation="16.711"/>
<feColorMatrix type="matrix" values="0 0 0 0 0.0313726 0 0 0 0 0.411765 0 0 0 0 0.270588 0 0 0 0.079074 0"/>
<feBlend mode="normal" in2="effect4_dropShadow" result="effect5_dropShadow"/>
<feColorMatrix in="SourceAlpha" type="matrix" values="0 0 0 0 0 0 0 0 0 0 0 0 0 0 0 0 0 0 127 0"/>
<feOffset dy="100"/>
<feGaussianBlur stdDeviation="40"/>
<feColorMatrix type="matrix" values="0 0 0 0 0.0313726 0 0 0 0 0.411765 0 0 0 0 0.270588 0 0 0 0.11 0"/>
<feBlend mode="normal" in2="effect5_dropShadow" result="effect6_dropShadow"/>
<feBlend mode="normal" in="SourceGraphic" in2="effect6_dropShadow" result="shape"/>
</filter>
<filter id="filter2_dddddd" x="368.809" y="177.738" width="251.556" height="258.665" filterUnits="userSpaceOnUse" color-interpolation-filters="sRGB">
<feFlood flood-opacity="0" result="BackgroundImageFix"/>
<feColorMatrix in="SourceAlpha" type="matrix" values="0 0 0 0 0 0 0 0 0 0 0 0 0 0 0 0 0 0 127 0"/>
<feOffset dy="2.76726"/>
<feGaussianBlur stdDeviation="1.1069"/>
<feColorMatrix type="matrix" values="0 0 0 0 0.0313726 0 0 0 0 0.411765 0 0 0 0 0.270588 0 0 0 0.030926 0"/>
<feBlend mode="normal" in2="BackgroundImageFix" result="effect1_dropShadow"/>
<feColorMatrix in="SourceAlpha" type="matrix" values="0 0 0 0 0 0 0 0 0 0 0 0 0 0 0 0 0 0 127 0"/>
<feOffset dy="6.6501"/>
<feGaussianBlur stdDeviation="2.66004"/>
<feColorMatrix type="matrix" values="0 0 0 0 0.0313726 0 0 0 0 0.411765 0 0 0 0 0.270588 0 0 0 0.0444282 0"/>
<feBlend mode="normal" in2="effect1_dropShadow" result="effect2_dropShadow"/>
<feColorMatrix in="SourceAlpha" type="matrix" values="0 0 0 0 0 0 0 0 0 0 0 0 0 0 0 0 0 0 127 0"/>
<feOffset dy="12.5216"/>
<feGaussianBlur stdDeviation="5.00862"/>
<feColorMatrix type="matrix" values="0 0 0 0 0.0313726 0 0 0 0 0.411765 0 0 0 0 0.270588 0 0 0 0.055 0"/>
<feBlend mode="normal" in2="effect2_dropShadow" result="effect3_dropShadow"/>
<feColorMatrix in="SourceAlpha" type="matrix" values="0 0 0 0 0 0 0 0 0 0 0 0 0 0 0 0 0 0 127 0"/>
<feOffset dy="22.3363"/>
<feGaussianBlur stdDeviation="8.93452"/>
<feColorMatrix type="matrix" values="0 0 0 0 0.0313726 0 0 0 0 0.411765 0 0 0 0 0.270588 0 0 0 0.0655718 0"/>
<feBlend mode="normal" in2="effect3_dropShadow" result="effect4_dropShadow"/>
<feColorMatrix in="SourceAlpha" type="matrix" values="0 0 0 0 0 0 0 0 0 0 0 0 0 0 0 0 0 0 127 0"/>
<feOffset dy="41.7776"/>
<feGaussianBlur stdDeviation="16.711"/>
<feColorMatrix type="matrix" values="0 0 0 0 0.0313726 0 0 0 0 0.411765 0 0 0 0 0.270588 0 0 0 0.079074 0"/>
<feBlend mode="normal" in2="effect4_dropShadow" result="effect5_dropShadow"/>
<feColorMatrix in="SourceAlpha" type="matrix" values="0 0 0 0 0 0 0 0 0 0 0 0 0 0 0 0 0 0 127 0"/>
<feOffset dy="100"/>
<feGaussianBlur stdDeviation="40"/>
<feColorMatrix type="matrix" values="0 0 0 0 0.0313726 0 0 0 0 0.411765 0 0 0 0 0.270588 0 0 0 0.11 0"/>
<feBlend mode="normal" in2="effect5_dropShadow" result="effect6_dropShadow"/>
<feBlend mode="normal" in="SourceGraphic" in2="effect6_dropShadow" result="shape"/>
</filter>
<filter id="filter3_dddddd" x="49.0005" y="450" width="228.001" height="275" filterUnits="userSpaceOnUse" color-interpolation-filters="sRGB">
<feFlood flood-opacity="0" result="BackgroundImageFix"/>
<feColorMatrix in="SourceAlpha" type="matrix" values="0 0 0 0 0 0 0 0 0 0 0 0 0 0 0 0 0 0 127 0"/>
<feOffset dy="2.76726"/>
<feGaussianBlur stdDeviation="1.1069"/>
<feColorMatrix type="matrix" values="0 0 0 0 0.0313726 0 0 0 0 0.411765 0 0 0 0 0.270588 0 0 0 0.030926 0"/>
<feBlend mode="normal" in2="BackgroundImageFix" result="effect1_dropShadow"/>
<feColorMatrix in="SourceAlpha" type="matrix" values="0 0 0 0 0 0 0 0 0 0 0 0 0 0 0 0 0 0 127 0"/>
<feOffset dy="6.6501"/>
<feGaussianBlur stdDeviation="2.66004"/>
<feColorMatrix type="matrix" values="0 0 0 0 0.0313726 0 0 0 0 0.411765 0 0 0 0 0.270588 0 0 0 0.0444282 0"/>
<feBlend mode="normal" in2="effect1_dropShadow" result="effect2_dropShadow"/>
<feColorMatrix in="SourceAlpha" type="matrix" values="0 0 0 0 0 0 0 0 0 0 0 0 0 0 0 0 0 0 127 0"/>
<feOffset dy="12.5216"/>
<feGaussianBlur stdDeviation="5.00862"/>
<feColorMatrix type="matrix" values="0 0 0 0 0.0313726 0 0 0 0 0.411765 0 0 0 0 0.270588 0 0 0 0.055 0"/>
<feBlend mode="normal" in2="effect2_dropShadow" result="effect3_dropShadow"/>
<feColorMatrix in="SourceAlpha" type="matrix" values="0 0 0 0 0 0 0 0 0 0 0 0 0 0 0 0 0 0 127 0"/>
<feOffset dy="22.3363"/>
<feGaussianBlur stdDeviation="8.93452"/>
<feColorMatrix type="matrix" values="0 0 0 0 0.0313726 0 0 0 0 0.411765 0 0 0 0 0.270588 0 0 0 0.0655718 0"/>
<feBlend mode="normal" in2="effect3_dropShadow" result="effect4_dropShadow"/>
<feColorMatrix in="SourceAlpha" type="matrix" values="0 0 0 0 0 0 0 0 0 0 0 0 0 0 0 0 0 0 127 0"/>
<feOffset dy="41.7776"/>
<feGaussianBlur stdDeviation="16.711"/>
<feColorMatrix type="matrix" values="0 0 0 0 0.0313726 0 0 0 0 0.411765 0 0 0 0 0.270588 0 0 0 0.079074 0"/>
<feBlend mode="normal" in2="effect4_dropShadow" result="effect5_dropShadow"/>
<feColorMatrix in="SourceAlpha" type="matrix" values="0 0 0 0 0 0 0 0 0 0 0 0 0 0 0 0 0 0 127 0"/>
<feOffset dy="100"/>
<feGaussianBlur stdDeviation="40"/>
<feColorMatrix type="matrix" values="0 0 0 0 0.0313726 0 0 0 0 0.411765 0 0 0 0 0.270588 0 0 0 0.11 0"/>
<feBlend mode="normal" in2="effect5_dropShadow" result="effect6_dropShadow"/>
<feBlend mode="normal" in="SourceGraphic" in2="effect6_dropShadow" result="shape"/>
</filter>
<linearGradient id="paint0_linear" x1="160.702" y1="174.604" x2="207.892" y2="195.011" gradientUnits="userSpaceOnUse">
<stop stop-color="#7AFFDF"/>
<stop offset="1" stop-color="white" stop-opacity="0"/>
</linearGradient>
<linearGradient id="paint1_linear" x1="190.4" y1="171.51" x2="159.289" y2="243.452" gradientUnits="userSpaceOnUse">
<stop stop-color="#7AFFDF"/>
<stop offset="1" stop-color="white" stop-opacity="0"/>
</linearGradient>
<linearGradient id="paint2_linear" x1="201.6" y1="195.093" x2="180.732" y2="191.912" gradientUnits="userSpaceOnUse">
<stop stop-color="white" stop-opacity="0"/>
<stop offset="1" stop-color="white"/>
</linearGradient>
<linearGradient id="paint3_linear" x1="432.299" y1="407.859" x2="238.02" y2="407.859" gradientUnits="userSpaceOnUse">
<stop stop-color="#ECFFFA"/>
<stop offset="1" stop-color="white" stop-opacity="0"/>
</linearGradient>
<linearGradient id="paint4_linear" x1="321.5" y1="218.5" x2="347" y2="284" gradientUnits="userSpaceOnUse">
<stop stop-color="#85FFE2"/>
<stop offset="1" stop-color="white" stop-opacity="0"/>
</linearGradient>
<linearGradient id="paint5_linear" x1="283.276" y1="317.346" x2="408.054" y2="317.346" gradientUnits="userSpaceOnUse">
<stop stop-color="#ECFFFA"/>
<stop offset="1" stop-color="white" stop-opacity="0"/>
</linearGradient>
<linearGradient id="paint6_linear" x1="287.155" y1="244.289" x2="384.133" y2="244.289" gradientUnits="userSpaceOnUse">
<stop stop-color="#FF968E"/>
<stop offset="1" stop-color="white" stop-opacity="0"/>
</linearGradient>
<linearGradient id="paint7_linear" x1="330.459" y1="363.12" x2="330.459" y2="371.783" gradientUnits="userSpaceOnUse">
<stop stop-color="#D1FFF4"/>
<stop offset="1" stop-color="white" stop-opacity="0"/>
</linearGradient>
<linearGradient id="paint8_linear" x1="493.412" y1="186.447" x2="522.761" y2="244.259" gradientUnits="userSpaceOnUse">
<stop stop-color="#D1FFF4"/>
<stop offset="1" stop-color="white" stop-opacity="0"/>
</linearGradient>
<linearGradient id="paint9_linear" x1="498.911" y1="225.463" x2="507.885" y2="243.14" gradientUnits="userSpaceOnUse">
<stop stop-color="white"/>
<stop offset="1" stop-color="white" stop-opacity="0"/>
</linearGradient>
<linearGradient id="paint10_linear" x1="471.837" y1="193.353" x2="513.635" y2="242.916" gradientUnits="userSpaceOnUse">
<stop stop-color="#D1FFF4"/>
<stop offset="1" stop-color="white" stop-opacity="0"/>
</linearGradient>
<linearGradient id="paint11_linear" x1="486.117" y1="230.076" x2="498.898" y2="245.23" gradientUnits="userSpaceOnUse">
<stop stop-color="white"/>
<stop offset="1" stop-color="white" stop-opacity="0"/>
</linearGradient>
<linearGradient id="paint12_linear" x1="459.527" y1="204.172" x2="513.553" y2="240.016" gradientUnits="userSpaceOnUse">
<stop stop-color="#D1FFF4"/>
<stop offset="1" stop-color="white" stop-opacity="0"/>
</linearGradient>
<linearGradient id="paint13_linear" x1="483.538" y1="235.413" x2="500.057" y2="246.372" gradientUnits="userSpaceOnUse">
<stop stop-color="white"/>
<stop offset="1" stop-color="white" stop-opacity="0"/>
</linearGradient>
<linearGradient id="paint14_linear" x1="121.293" y1="492.972" x2="201.079" y2="508.159" gradientUnits="userSpaceOnUse">
<stop stop-color="#00AC83"/>
<stop offset="1" stop-color="#007357"/>
</linearGradient>
<linearGradient id="paint15_linear" x1="138.172" y1="497.245" x2="176.797" y2="503.487" gradientUnits="userSpaceOnUse">
<stop stop-color="#7AFFDF"/>
<stop offset="0.53" stop-color="#00FFC2"/>
<stop offset="1" stop-color="#7AFFDF"/>
</linearGradient>
<linearGradient id="paint16_linear" x1="138.479" y1="495.357" x2="179.127" y2="501.927" gradientUnits="userSpaceOnUse">
<stop stop-color="#00AC83"/>
<stop offset="1" stop-color="#007357"/>
</linearGradient>
<linearGradient id="paint17_linear" x1="145.708" y1="468.091" x2="151.2" y2="470.54" gradientUnits="userSpaceOnUse">
<stop stop-color="#007357"/>
<stop offset="1" stop-color="#00AC83"/>
</linearGradient>
<linearGradient id="paint18_linear" x1="109.748" y1="3990.7" x2="164.377" y2="3999.53" gradientUnits="userSpaceOnUse">
<stop stop-color="#00785B"/>
<stop offset="1" stop-color="#1C2152"/>
</linearGradient>
<linearGradient id="paint19_linear" x1="226.149" y1="4114.88" x2="280.744" y2="4123.7" gradientUnits="userSpaceOnUse">
<stop stop-color="#00785B"/>
<stop offset="1" stop-color="#1C2152"/>
</linearGradient>
<linearGradient id="paint20_linear" x1="143.028" y1="507.94" x2="146.757" y2="508.84" gradientUnits="userSpaceOnUse">
<stop stop-color="#00AC83"/>
<stop offset="1" stop-color="#007357"/>
</linearGradient>
<linearGradient id="paint21_linear" x1="27.0613" y1="5718.3" x2="88.7421" y2="5728.27" gradientUnits="userSpaceOnUse">
<stop stop-color="#007357"/>
<stop offset="1" stop-color="#1C2152"/>
</linearGradient>
<linearGradient id="paint22_linear" x1="148.694" y1="490.982" x2="167.137" y2="495.246" gradientUnits="userSpaceOnUse">
<stop stop-color="#00AC83"/>
<stop offset="1" stop-color="#007357"/>
</linearGradient>
<linearGradient id="paint23_linear" x1="149.429" y1="509.778" x2="168.67" y2="514.365" gradientUnits="userSpaceOnUse">
<stop stop-color="#00AC83"/>
<stop offset="1" stop-color="#007357"/>
</linearGradient>
<linearGradient id="paint24_linear" x1="135.499" y1="5945.01" x2="198.566" y2="5955.2" gradientUnits="userSpaceOnUse">
<stop stop-color="#007357"/>
<stop offset="1" stop-color="#1C2152"/>
</linearGradient>
</defs>
</svg>
