<svg width="488" height="465" viewBox="17 0 488 465" fill="none" xmlns="http://www.w3.org/2000/svg">
<path fill-rule="evenodd" clip-rule="evenodd" d="M260.055 0.179532C308.031 3.53081 333.656 56.6504 373.853 83.0741C417.091 111.496 492.078 110.131 503.975 160.519C516.151 212.084 444.812 244.507 423.412 292.97C405.445 333.658 421.875 387.838 389.937 418.772C357.067 450.606 305.473 445.774 260.055 451.187C207.638 457.434 151.354 478.967 105.574 452.661C58.6792 425.715 51.164 414.46 20.4076 360.773C-0.377343 324.491 80.5391 286.975 84.8342 209.663C89.1293 132.351 78.6688 98.7901 118.805 70.2675C158.434 42.1047 211.571 -3.20734 260.055 0.179532Z" fill="#2BFFCC" fill-opacity="0.25"/>
<g filter="url(#filter0_dddddd)">
<path d="M172.36 90.0158C172.36 90.0158 143.333 92.9342 107.922 191.393L163.757 215.538C163.757 215.538 203.011 135.126 190.471 97.8477L172.36 90.0158Z" fill="#F9F9F9"/>
<path d="M119.884 196.415L117.268 202.465L115.19 201.566L113.12 206.351L108.194 204.22L107.22 206.473L153.258 226.382L154.415 223.708L149.028 221.379L150.702 217.508L148.326 216.48L151.155 209.938L119.884 196.415Z" fill="#F9F9F9"/>
<path d="M152.508 162.829C162.67 167.223 174.47 162.548 178.864 152.386C183.259 142.225 178.583 130.424 168.422 126.03C158.26 121.636 146.46 126.311 142.065 136.473C137.671 146.634 142.346 158.434 152.508 162.829Z" fill="#00FABE"/>
<path d="M152.508 162.829C162.67 167.223 174.47 162.548 178.864 152.386C183.259 142.225 178.583 130.424 168.422 126.03C158.26 121.636 146.46 126.311 142.065 136.473C137.671 146.634 142.346 158.434 152.508 162.829Z" fill="url(#paint0_linear)"/>
<path d="M153.699 160.075C162.12 163.717 171.899 159.843 175.541 151.421C179.182 143 175.308 133.221 166.887 129.58C158.466 125.938 148.687 129.812 145.045 138.234C141.403 146.655 145.278 156.434 153.699 160.075Z" fill="white"/>
<path d="M155.701 155.867C161.761 158.488 168.798 155.699 171.419 149.639C174.04 143.579 171.252 136.542 165.192 133.921C159.131 131.3 152.094 134.088 149.473 140.148C146.852 146.209 149.641 153.246 155.701 155.867Z" fill="#2BFFCC"/>
<path d="M155.701 155.867C161.761 158.488 168.798 155.699 171.419 149.639C174.04 143.579 171.252 136.542 165.192 133.921C159.131 131.3 152.094 134.088 149.473 140.148C146.852 146.209 149.641 153.246 155.701 155.867Z" fill="url(#paint1_linear)"/>
<path d="M114.985 184.326L86.4847 172.002C85.7513 171.687 85.095 171.217 84.5613 170.623C84.0275 170.03 83.6291 169.328 83.3935 168.565C82.3804 165.243 82.1353 159.563 90.701 156.814C103.241 152.788 127.363 151.955 127.363 151.955L114.985 184.326Z" fill="#7AFFDF"/>
<path d="M163.471 202.768L190.968 214.659C191.681 214.966 192.453 215.111 193.229 215.083C194.005 215.056 194.764 214.856 195.454 214.499C198.497 212.931 202.721 209.184 199.076 201.154C193.739 189.397 178.528 171.558 178.528 171.558L163.471 202.768Z" fill="#00FABE"/>
<path d="M146.765 180.454L144.946 179.667C143.487 179.036 141.793 179.707 141.162 181.166L130.615 205.556C129.984 207.015 130.655 208.709 132.114 209.34L133.933 210.127C135.392 210.758 137.086 210.086 137.717 208.628L148.264 184.237C148.895 182.779 148.224 181.084 146.765 180.454Z" fill="#00FABE"/>
<path d="M165.229 93.4618L191.612 104.871C191.711 104.909 191.818 104.92 191.922 104.904C192.027 104.887 192.125 104.843 192.207 104.777C192.289 104.71 192.353 104.623 192.391 104.525C192.429 104.426 192.441 104.319 192.424 104.215L188.854 78.524C188.844 78.4275 188.809 78.3351 188.753 78.256C188.697 78.1768 188.621 78.1136 188.533 78.0724C188.445 78.0312 188.348 78.0135 188.251 78.021C188.155 78.0284 188.061 78.0608 187.981 78.115L165.168 92.3962C165.075 92.453 164.998 92.5343 164.947 92.6314C164.896 92.7285 164.872 92.8377 164.878 92.9473C164.884 93.0568 164.92 93.1626 164.982 93.2533C165.044 93.3439 165.129 93.416 165.229 93.4618V93.4618Z" fill="#7AFFDF"/>
<path d="M169.534 147.386C169.534 147.386 169.228 152.95 158.912 154.34L169.534 147.386Z" fill="url(#paint2_linear)"/>
</g>
<g filter="url(#filter1_dddddd)">
<path d="M311.071 336.668C308.092 331.72 305.719 330.408 298.348 330.206C290.976 330.004 281.182 330.105 281.182 330.105L281.081 340.556C281.081 340.556 289.209 345.251 293.551 347.574C293.804 347.725 294.511 348.129 295.015 348.432C295.773 348.786 296.581 349.089 297.388 349.29C301.68 350.199 305.568 349.745 308.344 346.968C311.424 343.888 314.05 341.616 311.071 336.668Z" fill="#F4473B"/>
<path d="M255.483 327.378C255.23 327.58 254.574 328.085 254.12 328.439C253.514 328.994 252.958 329.65 252.454 330.307C250.03 333.942 248.97 337.729 250.535 341.364C252.252 345.352 253.413 348.685 259.068 347.725C264.722 346.766 266.893 345.049 269.822 338.334C272.75 331.619 276.335 322.43 276.284 322.43L266.641 318.442C266.641 318.442 259.27 324.248 255.483 327.378Z" fill="#F4473B"/>
<path d="M281.838 330.559C281.838 330.559 281.989 341.111 280.273 341.364C278.556 341.616 254.877 338.183 245.436 337.678C235.994 337.173 214.587 331.064 204.085 319.199C194.997 308.95 196.411 297.59 203.126 297.59C209.841 297.59 216.001 291.885 233.066 300.014C250.131 308.142 268.206 309.505 278.354 308.698C288.502 307.89 316.927 302.639 319.149 301.023C321.37 299.408 332.023 294.763 346.867 296.378C361.711 297.994 354.693 309.758 351.563 314.302C347.17 320.613 336.769 327.378 328.085 327.681C319.401 327.984 281.838 330.559 281.838 330.559Z" fill="#00FABE"/>
<path d="M281.838 330.559C281.838 330.559 281.989 341.111 280.273 341.364C278.556 341.616 254.877 338.183 245.436 337.678C235.994 337.173 214.587 331.064 204.085 319.199C194.997 308.95 196.411 297.59 203.126 297.59C209.841 297.59 216.001 291.885 233.066 300.014C250.131 308.142 268.206 309.505 278.354 308.698C288.502 307.89 316.927 302.639 319.149 301.023C321.37 299.408 332.023 294.763 346.867 296.378C361.711 297.994 354.693 309.758 351.563 314.302C347.17 320.613 336.769 327.378 328.085 327.681C319.401 327.984 281.838 330.559 281.838 330.559Z" fill="url(#paint3_linear)"/>
<path d="M264.268 146.024C259.269 147.841 252.908 172.581 252.908 172.581L252.807 172.48L252.1 175.913L251.242 180.406L252.908 207.266L269.064 215.344L306.173 225.341L316.422 239.932C316.422 239.932 339.395 263.308 339.546 264.924C339.698 266.54 314.857 274.769 312.484 275.123C306.779 275.981 348.988 265.631 335.457 249.222C329.701 242.204 321.269 221.1 304.558 207.115C294.864 199.037 297.59 176.064 294.157 161.524C289.865 143.348 287.24 137.895 282.949 137.895C279.061 137.895 273.659 142.54 264.268 146.024Z" fill="#04AD85"/>
<path d="M264.268 146.024C259.269 147.841 252.908 172.581 252.908 172.581L252.807 172.48L252.1 175.913L251.242 180.406L252.908 207.266L269.064 215.344L306.173 225.341L316.422 239.932C316.422 239.932 339.395 263.308 339.546 264.924C339.698 266.54 314.857 274.769 312.484 275.123C306.779 275.981 348.988 265.631 335.457 249.222C329.701 242.204 321.269 221.1 304.558 207.115C294.864 199.037 297.59 176.064 294.157 161.524C289.865 143.348 287.24 137.895 282.949 137.895C279.061 137.895 273.659 142.54 264.268 146.024Z" fill="url(#paint4_linear)"/>
<path d="M316.776 204.742C309.001 197.623 306.375 195.906 299.559 198.33C292.743 200.753 289.411 202.975 280.121 204.489C274.416 205.499 268.509 204.742 263.208 202.419L244.072 204.338C241.649 204.035 214.436 255.129 213.779 265.732C213.375 272.245 228.169 282.292 232.309 283.302C233.975 283.706 236.954 267.65 237.913 266.186L231.703 264.268C232.814 261.491 236.55 254.624 239.024 250.939C239.781 249.778 245.688 240.033 246.496 236.297C246.647 236.65 247.506 243.719 248.314 245.991C249.828 250.181 251.898 252.554 251.898 255.887C251.898 259.219 251.494 272.447 249.071 278.405C246.647 284.362 243.113 298.146 243.113 298.146L304.305 297.792C304.305 297.792 302.084 271.488 302.993 262.45C302.993 262.45 302.033 258.815 303.851 253.564C306.83 244.88 307.688 231.955 307.183 229.936C306.426 226.755 325.157 253.665 329.247 260.481C330.963 263.308 307.688 268.307 305.769 270.478C303.75 272.75 307.739 278.909 307.739 278.909C307.739 278.909 348.331 273.962 348.129 267.751C347.927 261.541 325.813 212.971 316.776 204.742Z" fill="#00FABE"/>
<path d="M316.776 204.742C309.001 197.623 306.375 195.906 299.559 198.33C292.743 200.753 289.411 202.975 280.121 204.489C274.416 205.499 268.509 204.742 263.208 202.419L244.072 204.338C241.649 204.035 214.436 255.129 213.779 265.732C213.375 272.245 228.169 282.292 232.309 283.302C233.975 283.706 236.954 267.65 237.913 266.186L231.703 264.268C232.814 261.491 236.55 254.624 239.024 250.939C239.781 249.778 245.688 240.033 246.496 236.297C246.647 236.65 247.506 243.719 248.314 245.991C249.828 250.181 251.898 252.554 251.898 255.887C251.898 259.219 251.494 272.447 249.071 278.405C246.647 284.362 243.113 298.146 243.113 298.146L304.305 297.792C304.305 297.792 302.084 271.488 302.993 262.45C302.993 262.45 302.033 258.815 303.851 253.564C306.83 244.88 307.688 231.955 307.183 229.936C306.426 226.755 325.157 253.665 329.247 260.481C330.963 263.308 307.688 268.307 305.769 270.478C303.75 272.75 307.739 278.909 307.739 278.909C307.739 278.909 348.331 273.962 348.129 267.751C347.927 261.541 325.813 212.971 316.776 204.742Z" fill="url(#paint5_linear)"/>
<path d="M269.165 131.483C269.165 131.483 257.805 131.937 254.524 143.852C251.242 155.768 250.787 172.379 250.686 174.953C250.585 177.68 251.848 193.634 245.739 200.299C240.488 206.054 242.608 211.608 241.296 216.203L240.69 223.826C240.791 224.735 241.447 225.492 242.305 225.795C243.113 226.048 245.941 224.735 246.445 224.533C253.514 221.706 253.514 219.434 256.19 217.162C258.411 215.294 264.52 210.952 266.338 209.235C268.155 207.519 269.418 206.004 269.519 203.833C269.872 192.776 267.954 182.577 265.53 177.175C263.107 171.773 258.462 162.634 262.349 156.576C266.237 150.517 273.255 144.458 273.659 142.944C274.063 141.429 274.265 148.8 278.556 151.375C282.848 153.95 286.432 157.535 287.745 161.019C288.856 163.947 290.32 168.945 286.281 177.579C282.242 186.212 278.96 197.32 284.665 205.55C290.37 213.779 302.387 222.665 304.356 226.805C306.577 231.4 304.457 242.204 304.053 248.717C303.649 255.23 316.776 237.408 316.372 228.926C315.968 220.444 317.382 216.808 309.253 203.782C301.124 190.756 295.823 168.44 295.621 163.038C295.419 157.636 292.996 142.641 288.098 138.349C283.857 134.714 282.949 131.18 274.265 131.18C272.548 131.18 270.831 131.281 269.165 131.483Z" fill="#F4473B"/>
<path d="M269.165 131.483C269.165 131.483 257.805 131.937 254.524 143.852C251.242 155.768 250.787 172.379 250.686 174.953C250.585 177.68 251.848 193.634 245.739 200.299C240.488 206.054 242.608 211.608 241.296 216.203L240.69 223.826C240.791 224.735 241.447 225.492 242.305 225.795C243.113 226.048 245.941 224.735 246.445 224.533C253.514 221.706 253.514 219.434 256.19 217.162C258.411 215.294 264.52 210.952 266.338 209.235C268.155 207.519 269.418 206.004 269.519 203.833C269.872 192.776 267.954 182.577 265.53 177.175C263.107 171.773 258.462 162.634 262.349 156.576C266.237 150.517 273.255 144.458 273.659 142.944C274.063 141.429 274.265 148.8 278.556 151.375C282.848 153.95 286.432 157.535 287.745 161.019C288.856 163.947 290.32 168.945 286.281 177.579C282.242 186.212 278.96 197.32 284.665 205.55C290.37 213.779 302.387 222.665 304.356 226.805C306.577 231.4 304.457 242.204 304.053 248.717C303.649 255.23 316.776 237.408 316.372 228.926C315.968 220.444 317.382 216.808 309.253 203.782C301.124 190.756 295.823 168.44 295.621 163.038C295.419 157.636 292.996 142.641 288.098 138.349C283.857 134.714 282.949 131.18 274.265 131.18C272.548 131.18 270.831 131.281 269.165 131.483Z" fill="url(#paint6_linear)"/>
<path opacity="0.07" d="M243.264 312.03L300.619 312.333C300.619 312.333 293.904 317.584 290.673 318.189C287.442 318.795 273.608 325.662 268.458 323.036C264.823 321.067 243.264 312.03 243.264 312.03Z" fill="black"/>
<path opacity="0.07" d="M275.224 183.234C275.224 183.234 280.576 184.597 282.797 181.466C287.796 174.398 283.252 185.051 283.252 185.051C283.252 185.051 281.787 189.191 281.888 191.261C281.989 193.331 276.133 183.537 275.224 183.234Z" fill="black"/>
<path opacity="0.07" d="M253.817 219.585C253.16 220.393 252.201 221.05 251.696 223.12C250.838 226.452 249.929 230.188 247.607 233.621C246.243 235.641 247.001 243.466 249.273 248.414C249.929 249.828 251.949 253.514 251.898 254.372L251.747 261.541H257.906C257.906 261.541 263.157 262.097 262.046 257.755C261.087 253.918 256.089 239.629 259.471 236.499C265.833 230.693 257.805 219.08 260.784 215.344C263.359 212.113 267.045 209.791 267.045 208.73C267.045 208.326 266.085 209.639 265.429 210.094C264.167 211.002 263.511 211.709 262.45 212.416C261.289 213.173 259.522 214.436 258.361 215.294C256.695 216.556 255.18 217.97 253.817 219.585Z" fill="black"/>
<path d="M229.834 265.58C229.834 265.58 229.784 261.844 233.47 261.693C237.155 261.541 315.211 261.642 315.211 261.642C315.211 261.642 318.644 262.046 318.745 264.823C318.846 267.6 318.846 308.849 318.846 308.849C318.846 308.849 318.896 312.03 315.513 312.131C312.131 312.232 232.561 312.232 232.561 312.232C232.561 312.232 229.582 311.474 229.632 308.496C229.683 305.517 229.834 265.58 229.834 265.58Z" fill="white"/>
<path d="M274.568 290.32C276.436 290.32 277.95 288.805 277.95 286.937C277.95 285.069 276.436 283.554 274.568 283.554C272.699 283.554 271.185 285.069 271.185 286.937C271.185 288.805 272.699 290.32 274.568 290.32Z" fill="#2BFFCC"/>
<path d="M274.568 290.32C276.436 290.32 277.95 288.805 277.95 286.937C277.95 285.069 276.436 283.554 274.568 283.554C272.699 283.554 271.185 285.069 271.185 286.937C271.185 288.805 272.699 290.32 274.568 290.32Z" fill="url(#paint7_linear)"/>
</g>
<g filter="url(#filter2_dddddd)">
<path d="M438.332 182.182L416.702 139.575C416.341 138.864 415.472 138.58 414.762 138.941L388.772 152.135C388.061 152.496 387.777 153.365 388.138 154.076L409.768 196.683C410.129 197.394 410.998 197.678 411.709 197.317L437.699 184.123C438.409 183.762 438.693 182.893 438.332 182.182Z" fill="#2BFFCC"/>
<path d="M438.332 182.182L416.702 139.575C416.341 138.864 415.472 138.58 414.762 138.941L388.772 152.135C388.061 152.496 387.777 153.365 388.138 154.076L409.768 196.683C410.129 197.394 410.998 197.678 411.709 197.317L437.699 184.123C438.409 183.762 438.693 182.893 438.332 182.182Z" fill="url(#paint8_linear)"/>
<path d="M432.205 186.912L409.228 141.65L404.406 144.098L427.383 189.36L432.205 186.912Z" fill="white"/>
<path d="M414.237 189.294L407.229 175.49L405.004 176.619L412.012 190.424L414.237 189.294Z" fill="url(#paint9_linear)"/>
<path d="M394.159 159.7C394.974 161.305 396.936 161.946 398.541 161.131C400.145 160.316 400.786 158.355 399.971 156.75C399.157 155.145 397.195 154.504 395.59 155.319C393.985 156.134 393.345 158.095 394.159 159.7Z" fill="white"/>
<path d="M396.277 163.875C397.092 165.48 399.053 166.12 400.658 165.305C402.263 164.491 402.903 162.529 402.089 160.924C401.274 159.319 399.313 158.679 397.708 159.493C396.103 160.308 395.462 162.27 396.277 163.875Z" fill="white"/>
<path d="M428.888 178.25L398.083 141.722C397.569 141.113 396.658 141.035 396.048 141.549L373.767 160.34C373.157 160.854 373.08 161.765 373.594 162.374L404.4 198.902C404.914 199.512 405.824 199.589 406.434 199.075L428.715 180.284C429.325 179.77 429.402 178.86 428.888 178.25Z" fill="#2BFFCC"/>
<path d="M428.888 178.25L398.083 141.722C397.569 141.113 396.658 141.035 396.048 141.549L373.767 160.34C373.157 160.854 373.08 161.765 373.594 162.374L404.4 198.902C404.914 199.512 405.824 199.589 406.434 199.075L428.715 180.284C429.325 179.77 429.402 178.86 428.888 178.25Z" fill="url(#paint10_linear)"/>
<path d="M424.007 184.257L391.282 145.453L387.148 148.94L419.872 187.743L424.007 184.257Z" fill="white"/>
<path d="M407.06 190.687L397.079 178.852L395.171 180.461L405.152 192.296L407.06 190.687Z" fill="url(#paint11_linear)"/>
<path d="M380.743 166.472C381.904 167.848 383.96 168.023 385.335 166.863C386.711 165.702 386.886 163.646 385.726 162.27C384.565 160.894 382.509 160.72 381.133 161.88C379.758 163.04 379.583 165.096 380.743 166.472Z" fill="white"/>
<path d="M383.759 170.051C384.92 171.427 386.976 171.602 388.352 170.442C389.727 169.281 389.902 167.225 388.742 165.849C387.582 164.474 385.525 164.299 384.15 165.459C382.774 166.619 382.599 168.676 383.759 170.051Z" fill="white"/>
<path d="M425.163 173.282L385.346 146.865C384.682 146.424 383.786 146.605 383.345 147.27L367.231 171.557C366.79 172.222 366.972 173.118 367.636 173.559L407.453 199.975C408.118 200.416 409.014 200.235 409.454 199.571L425.568 175.283C426.009 174.618 425.828 173.722 425.163 173.282Z" fill="#2BFFCC"/>
<path d="M425.163 173.282L385.346 146.865C384.682 146.424 383.786 146.605 383.345 147.27L367.231 171.557C366.79 172.222 366.972 173.118 367.636 173.559L407.453 199.975C408.118 200.416 409.014 200.235 409.454 199.571L425.568 175.283C426.009 174.618 425.828 173.722 425.163 173.282Z" fill="url(#paint12_linear)"/>
<path d="M422.163 180.416L379.865 152.354L376.875 156.86L419.173 184.923L422.163 180.416Z" fill="white"/>
<path d="M407.701 191.343L394.801 182.785L393.421 184.864L406.322 193.423L407.701 191.343Z" fill="url(#paint13_linear)"/>
<path d="M375.647 175.486C377.147 176.481 379.17 176.071 380.165 174.572C381.16 173.072 380.751 171.049 379.251 170.054C377.751 169.059 375.729 169.468 374.733 170.968C373.738 172.468 374.148 174.49 375.647 175.486Z" fill="white"/>
<path d="M379.547 178.075C381.047 179.07 383.069 178.66 384.064 177.161C385.059 175.661 384.65 173.638 383.15 172.643C381.651 171.648 379.628 172.057 378.633 173.557C377.638 175.057 378.047 177.08 379.547 178.075Z" fill="white"/>
</g>
<g filter="url(#filter3_dddddd)">
<path d="M160.547 422.132L160.557 422.149L160.411 422.203C160.387 422.217 160.363 422.228 160.337 422.236L155.631 424.31L154.693 424.728C149.782 426.674 143.608 425.368 137.269 420.349C124.247 410.047 115.43 387.943 117.572 371.007C118.636 362.588 122.204 357.022 127.134 354.82C127.238 354.759 127.369 354.718 127.487 354.661L132.319 352.517C137.316 350.221 143.726 351.409 150.328 356.639C163.349 366.951 172.169 389.045 170.026 405.996C168.967 414.369 165.427 419.905 160.538 422.132" fill="url(#paint14_linear)"/>
<path d="M161.692 384.206C161.75 384.369 161.801 384.535 161.856 384.699C164.514 392.625 165.654 400.965 164.723 408.334C162.58 425.28 150.287 430.663 137.264 420.352C124.242 410.041 115.42 387.947 117.564 371.001C119.707 354.054 132.001 348.674 145.024 358.981C149.43 362.472 153.101 367.485 156.54 372.844C158.678 376.178 160.073 379.622 161.692 384.206" fill="#01CC9B"/>
<path d="M156.905 385.312C156.95 385.449 156.99 385.59 157.034 385.73C159.123 392.451 159.991 399.533 159.198 405.803C157.375 420.219 147.461 424.868 137.056 416.181C126.652 407.494 119.687 388.765 121.51 374.348C123.333 359.93 133.25 355.284 143.657 363.968C147.171 366.908 150.099 371.143 152.831 375.682C154.53 378.502 155.631 381.423 156.906 385.309" fill="#00DFAA"/>
<path d="M155.786 371.652L160.811 368.733C160.811 368.733 161.51 370.03 161.682 370.261C163.704 372.964 168.214 383.228 169.268 390.378L163.955 392.533C163.955 392.533 163.662 391.102 163.565 390.653C162.469 385.601 159.395 376.595 155.786 371.652Z" fill="#00AA81"/>
<path d="M143.844 358.11L149.262 355.836L149.53 356.03C149.53 356.03 152.284 358.112 153.394 359.385C153.394 359.385 148.436 362.107 148.399 362.063C148.207 361.836 145.752 359.349 143.844 358.11Z" fill="#00AA81"/>
<path d="M127.707 368.184L130.798 369.863L130.769 365.894L132.73 366.894L132.681 370.807L136.361 372.784L136.636 368.935L138.528 369.876L138.192 373.72C138.192 373.72 143.548 376.819 144.39 377.363C145.232 377.906 148.645 379.45 149.934 382.959C151.073 386.06 151.553 387.644 151.531 389.774C151.51 391.714 150.253 394.95 148.244 394.821C148.244 394.821 150.642 397.164 151.78 400.06C152.918 402.956 152.553 404.606 152.575 405.331C152.606 406.375 151.679 409.201 150.723 410.055C149.767 410.908 148.433 411.571 146.466 411.422C144.5 411.273 140.024 408.418 140.024 408.418L140.17 413.627L138.081 412.646L137.979 407.542L135.068 405.785V410.946L133.081 409.8L133.09 404.74L128.633 402.338L128.479 396.974L131.019 398.171L130.699 375.097L127.595 373.321L127.707 368.184Z" fill="url(#paint15_linear)"/>
<path d="M134.479 385.96L134.219 376.92L142.947 381.554C142.947 381.554 145.103 382.623 145.875 384.411C146.647 386.199 146.773 387.325 146.793 388.004C146.814 388.683 146.592 390.452 145.792 390.932C144.991 391.413 144.218 391.249 142.933 390.653C141.649 390.057 134.479 385.96 134.479 385.96Z" fill="#00DFAA"/>
<path d="M135.034 400.555L134.773 391.515L143.498 396.151C143.498 396.151 146.34 397.469 147.116 399.258C147.892 401.047 148.004 401.802 148.036 402.895C148.08 404.432 147.521 405.397 146.718 405.873C145.916 406.349 144.772 405.838 143.488 405.242C142.204 404.646 135.034 400.555 135.034 400.555Z" fill="#00DFAA"/>
<path d="M127.686 368.292L130.075 366.883L143.912 374.138C143.912 374.138 149.489 376.525 152.23 381.418C155.379 387.041 153.894 392.253 152.845 393.382C152.332 393.926 151.788 394.441 151.216 394.922C151.216 394.922 153.102 396.972 153.706 398.469C154.745 401.034 154.474 402.849 154.329 404.42C154.184 405.991 153.95 407.141 152.922 408.423C151.761 409.872 149.262 410.962 149.262 410.962C149.262 410.962 151.698 407.441 151.698 403.764C151.698 398.742 150.285 397.062 148.294 394.807C148.385 394.975 151.199 392.269 151.369 389.744C151.543 387.254 150.591 384.912 149.804 383.336C148.443 380.62 146.451 379.117 144.518 377.538C141.997 375.477 127.686 368.292 127.686 368.292Z" fill="url(#paint16_linear)"/>
<path d="M130.771 365.872L132.978 364.389L134.999 365.452L132.727 366.91L130.771 365.872Z" fill="url(#paint17_linear)"/>
<path d="M132.738 366.842L135.018 365.443L135.033 369.512L132.686 370.787L132.738 366.842Z" fill="url(#paint18_linear)"/>
<path d="M136.557 368.98L138.763 367.497L140.784 368.56L138.512 370.018L136.557 368.98Z" fill="#009F79"/>
<path d="M138.523 369.951L140.803 368.551L140.818 372.62L138.472 373.894L138.523 369.951Z" fill="url(#paint19_linear)"/>
<path d="M130.769 367.222L130.782 369.91L132.672 370.847L132.708 368.198L130.769 367.222Z" fill="#5FFFD8"/>
<path d="M136.488 370.378L136.317 372.772L138.434 373.92L138.542 370.026L136.547 368.973" fill="#2FFFCD"/>
<path d="M128.485 396.969L130.892 395.385L131.02 398.177L128.485 396.969Z" fill="url(#paint20_linear)"/>
<path d="M135.074 410.942L137.471 409.529L137.421 407.194L135.068 405.782L135.074 410.942Z" fill="url(#paint21_linear)"/>
<path d="M134.039 376.913L134.304 386.098L143.752 391.076C143.939 391.175 144.143 391.236 144.354 391.255C144.955 391.307 146.111 391.217 146.516 389.861L136.661 384.48L136.585 378.169L134.039 376.913Z" fill="url(#paint22_linear)"/>
<path d="M134.678 391.495L134.943 400.679L140.863 403.848L142.579 404.769L144.251 405.587L144.425 405.665C144.722 405.817 145.035 405.934 145.358 406.015C146.173 406.147 147.115 406.068 147.737 404.728L137.299 399.05L137.223 392.739L134.678 391.495Z" fill="url(#paint23_linear)"/>
<path d="M140.031 408.42L140.178 413.63L142.455 412.273L142.44 409.839C142.44 409.839 141.897 409.533 140.031 408.42Z" fill="url(#paint24_linear)"/>
<path d="M152.246 420.008C152.656 419.837 153.105 419.781 153.545 419.845C153.985 419.909 154.399 420.091 154.744 420.371C155.966 421.346 156.307 421.725 156.469 421.753C156.63 421.781 155.509 421.788 155.053 421.79C154.596 421.791 154.214 421.845 153.971 421.602C153.728 421.359 152.246 420.008 152.246 420.008Z" fill="#008565"/>
<path d="M152.2 420.012C152.2 420.012 153.483 420.033 153.906 421.069C154.329 422.106 153.629 422.948 153.853 423.509C153.906 423.663 153.992 423.804 154.106 423.921C154.219 424.038 154.358 424.128 154.511 424.185C154.511 424.185 153.486 423.725 153.12 423.663C152.754 423.6 152.123 422.807 152.212 422.345C152.285 421.966 152.066 420.91 151.972 420.364C151.95 420.235 152.2 420.012 152.2 420.012Z" fill="#008565"/>
<path d="M150.284 424.393C150.43 424.072 150.488 423.719 150.454 423.368C150.376 422.854 150.549 421.513 151.082 421.08C151.443 420.777 151.781 420.447 152.092 420.093C152.092 420.093 152.669 421.557 151.884 422.936C151.099 424.315 150.284 424.393 150.284 424.393Z" fill="#008565"/>
<path d="M159.399 408.53C159.399 408.53 159.723 407.148 161.054 406.507C162.385 405.865 162.85 405.729 162.938 405.605C163.026 405.48 162.591 406.429 162.412 406.816C162.234 407.202 162.131 407.548 161.827 407.655C161.522 407.762 159.399 408.53 159.399 408.53Z" fill="#008565"/>
<path d="M159.357 408.659C159.357 408.659 160.262 407.437 161.332 407.495C162.403 407.554 162.862 408.483 163.441 408.52C163.595 408.539 163.751 408.523 163.897 408.474C164.044 408.425 164.178 408.344 164.29 408.236C164.29 408.236 163.483 408.923 163.287 409.202C163.091 409.482 162.149 409.702 161.777 409.438C161.474 409.224 160.063 408.844 159.548 408.706L159.357 408.659Z" fill="#008565"/>
<path d="M162.808 411.891C162.585 411.637 162.299 411.445 161.98 411.334C161.501 411.188 160.398 410.51 160.223 409.885C160.047 409.259 159.375 408.653 159.375 408.653C159.375 408.653 161.261 408.734 162.157 409.95C163.053 411.167 162.808 411.891 162.808 411.891Z" fill="#008565"/>
<path d="M158.915 391.279C158.915 391.279 159.077 389.766 160.366 388.99C161.654 388.214 162.123 388.033 162.193 387.899C162.263 387.764 161.919 388.765 161.774 389.173C161.629 389.58 161.558 389.94 161.256 390.077C160.954 390.215 158.915 391.279 158.915 391.279Z" fill="#008565"/>
<path d="M158.685 391.36C158.685 391.36 159.486 390.042 160.58 389.995C161.673 389.949 162.227 390.85 162.817 390.831C163.407 390.812 163.549 390.625 163.549 390.625C163.549 390.625 162.9 391.234 162.728 391.536C162.555 391.837 161.621 392.148 161.218 391.918C160.89 391.73 159.422 391.479 158.886 391.391L158.685 391.36Z" fill="#008565"/>
<path d="M162.66 394.271C162.409 394.035 162.101 393.868 161.767 393.786C161.268 393.689 160.083 393.101 159.853 392.484C159.623 391.868 158.931 391.258 158.931 391.258C158.931 391.258 160.798 391.222 161.823 392.37C162.848 393.518 162.66 394.271 162.66 394.271Z" fill="#008565"/>
<path d="M152.458 374.919C152.458 374.919 152.145 373.544 153.022 372.466C153.899 371.389 154.24 371.087 154.266 370.947C154.293 370.806 154.29 371.79 154.288 372.191C154.287 372.592 154.332 372.923 154.114 373.144C153.896 373.365 152.458 374.919 152.458 374.919Z" fill="#008565"/>
<path d="M152.417 374.98C152.417 374.98 152.71 373.576 153.637 373.2C154.563 372.824 155.309 373.439 155.809 373.239C155.948 373.193 156.074 373.116 156.179 373.015C156.284 372.914 156.366 372.79 156.417 372.654C156.417 372.654 156 373.562 155.943 373.879C155.886 374.197 155.174 374.758 154.76 374.68C154.421 374.617 153.083 374.852 152.597 374.941L152.417 374.98Z" fill="#008565"/>
<path d="M156.573 376.377C156.286 376.249 155.971 376.199 155.659 376.231C155.201 376.301 154.007 376.152 153.624 375.685C153.24 375.218 152.464 374.895 152.464 374.895C152.464 374.895 154.059 374.288 155.283 374.974C156.507 375.661 156.573 376.377 156.573 376.377Z" fill="#008565"/>
<path d="M143.286 363.239C143.286 363.239 142.074 362.432 141.822 361.036C141.57 359.639 141.563 359.182 141.474 359.059C141.385 358.936 142.112 359.668 142.407 359.968C142.701 360.268 142.979 360.487 143.001 360.794C143.023 361.102 143.286 363.239 143.286 363.239Z" fill="#008565"/>
<path d="M143.307 363.314C143.307 363.314 142.452 362.071 142.752 361.162C143.052 360.252 143.97 360.198 144.136 359.709C144.186 359.572 144.207 359.427 144.198 359.281C144.189 359.136 144.151 358.994 144.085 358.864C144.085 358.864 144.496 359.822 144.694 360.097C144.891 360.372 144.863 361.268 144.547 361.498C144.291 361.681 143.629 362.769 143.392 363.167L143.307 363.314Z" fill="#008565"/>
<path d="M146.928 361.516C146.656 361.615 146.419 361.794 146.25 362.03C146.016 362.394 145.162 363.099 144.579 363.012C143.997 362.926 143.273 363.219 143.273 363.219C143.273 363.219 143.818 361.68 145.088 361.355C146.357 361.03 146.928 361.516 146.928 361.516Z" fill="#008565"/>
<path d="M127.299 361.421C127.299 361.421 125.706 362.019 124.277 361.213C122.848 360.406 122.431 360.071 122.258 360.066C122.085 360.062 123.263 359.891 123.741 359.822C124.22 359.753 124.62 359.643 124.913 359.852C125.206 360.062 127.299 361.421 127.299 361.421Z" fill="#008565"/>
<path d="M127.38 361.465C127.38 361.465 125.654 361.378 125.05 360.396C124.447 359.413 125.063 358.453 124.744 357.918C124.663 357.769 124.55 357.639 124.413 357.537C124.277 357.436 124.119 357.366 123.952 357.333C123.952 357.333 125.104 357.646 125.494 357.656C125.883 357.666 126.665 358.375 126.645 358.861C126.624 359.257 127.122 360.737 127.308 361.274L127.38 361.465Z" fill="#008565"/>
<path d="M128.373 356.494C128.266 356.839 128.256 357.207 128.345 357.558C128.503 358.066 128.519 359.45 128.023 359.967C127.526 360.484 127.269 361.431 127.269 361.431C127.269 361.431 126.283 359.725 126.904 358.21C127.525 356.694 128.373 356.494 128.373 356.494Z" fill="#008565"/>
<path d="M121.426 374.112C121.426 374.112 121.013 375.374 119.839 375.797C118.665 376.22 118.264 376.289 118.177 376.383C118.091 376.477 118.558 375.693 118.75 375.373C118.942 375.052 119.066 374.759 119.335 374.696C119.605 374.633 121.426 374.112 121.426 374.112Z" fill="#008565"/>
<path d="M121.488 374.084C121.488 374.084 120.601 375.064 119.721 374.897C118.841 374.73 118.565 373.862 118.091 373.768C117.965 373.736 117.833 373.734 117.706 373.762C117.579 373.79 117.46 373.846 117.359 373.928C117.359 373.928 118.104 373.409 118.299 373.184C118.494 372.958 119.297 372.866 119.576 373.138C119.801 373.359 120.927 373.847 121.333 374.017L121.488 374.084Z" fill="#008565"/>
<path d="M118.997 370.865C119.15 371.111 119.364 371.313 119.62 371.45C120 371.624 120.835 372.348 120.904 372.914C120.973 373.481 121.41 374.133 121.41 374.133C121.41 374.133 119.914 373.816 119.311 372.646C118.707 371.477 118.997 370.865 118.997 370.865Z" fill="#008565"/>
<path d="M121.999 388.521C121.941 388.82 121.816 389.103 121.635 389.348C121.454 389.593 121.22 389.795 120.951 389.938C120.041 390.401 119.719 390.506 119.664 390.59C119.608 390.673 119.87 390.047 119.977 389.793C120.084 389.54 120.141 389.313 120.353 389.231C120.566 389.149 121.999 388.521 121.999 388.521Z" fill="#008565"/>
<path d="M122.122 388.474C122.122 388.474 121.536 389.293 120.784 389.297C120.031 389.301 119.656 388.722 119.248 388.72C118.839 388.719 118.809 388.686 118.809 388.686C119.003 388.579 119.178 388.441 119.327 388.276C119.453 388.089 120.106 387.913 120.381 388.067C120.605 388.193 121.62 388.383 121.992 388.451L122.122 388.474Z" fill="#008565"/>
<path d="M119.457 386.549C119.631 386.705 119.841 386.817 120.068 386.874C120.412 386.945 121.223 387.344 121.371 387.738C121.519 388.131 121.987 388.534 121.987 388.534C121.987 388.534 120.692 388.517 120.002 387.768C119.312 387.02 119.457 386.549 119.457 386.549Z" fill="#008565"/>
<path d="M126.387 402.138C126.465 402.373 126.49 402.623 126.459 402.869C126.429 403.115 126.344 403.351 126.21 403.559C125.752 404.251 125.566 404.453 125.558 404.535C125.514 404.307 125.481 404.076 125.462 403.845C125.437 403.622 125.386 403.439 125.504 403.297C125.623 403.155 126.387 402.138 126.387 402.138Z" fill="#008565"/>
<path d="M126.408 402.1C126.408 402.1 126.324 402.911 125.788 403.217C125.252 403.523 124.763 403.259 124.471 403.422C124.392 403.459 124.322 403.513 124.265 403.58C124.208 403.646 124.167 403.724 124.143 403.808C124.229 403.57 124.297 403.325 124.348 403.076C124.362 402.893 124.755 402.508 125.011 402.507C125.219 402.507 126.014 402.236 126.302 402.136L126.408 402.1Z" fill="#008565"/>
<path d="M123.798 401.757C123.984 401.799 124.177 401.794 124.361 401.744C124.633 401.658 125.365 401.615 125.629 401.835C125.856 401.991 126.113 402.099 126.384 402.152C126.384 402.152 125.46 402.658 124.672 402.403C123.885 402.148 123.798 401.757 123.798 401.757Z" fill="#008565"/>
<path d="M134.895 414.453C135.037 414.657 135.131 414.889 135.17 415.134C135.21 415.379 135.195 415.629 135.125 415.867C134.879 416.659 134.758 416.907 134.774 416.986C134.665 416.78 134.567 416.568 134.481 416.35C134.393 416.144 134.295 415.983 134.367 415.813C134.439 415.643 134.895 414.453 134.895 414.453Z" fill="#008565"/>
<path d="M134.904 414.41C134.904 414.41 135.05 415.213 134.623 415.656C134.195 416.1 133.648 415.986 133.416 416.223C133.351 416.281 133.299 416.352 133.263 416.432C133.228 416.512 133.21 416.598 133.21 416.686C133.226 416.433 133.224 416.18 133.203 415.927C133.165 415.749 133.432 415.267 133.678 415.195C133.879 415.137 134.566 414.654 134.815 414.476L134.904 414.41Z" fill="#008565"/>
<path d="M132.305 414.813C132.495 414.801 132.679 414.742 132.841 414.642C133.078 414.482 133.769 414.236 134.084 414.374C134.346 414.459 134.623 414.491 134.898 414.466C134.898 414.466 134.153 415.21 133.326 415.188C132.498 415.166 132.305 414.813 132.305 414.813Z" fill="#008565"/>
</g>
<path d="M303.885 144.065C318.852 126.234 356.597 93.8516 387.834 106.971C426.881 123.371 453.823 152.265 456.166 184.673C458.508 217.082 440.937 252.614 396.815 239.729C352.693 226.843 310.913 142.894 353.864 131.961C396.815 121.028 460.07 127.666 474.127 161.246C488.184 194.825 472.175 287.365 446.794 318.993C421.414 350.62 372.997 408.8 312.865 420.123C252.734 431.446 211.735 438.865 157.851 433.399C103.967 427.932 78.5871 395.133 78.1967 371.315C77.8062 347.497 119.195 312.355 161.756 330.707C204.316 349.059 243.753 396.426 219.544 415.828C195.336 435.23 134.814 450.97 102.015 433.399C69.2159 415.828 25.484 365.068 45.3976 330.707C65.3113 296.346 112.557 266.671 127.785 220.987" stroke="#F4473B" stroke-miterlimit="3.99933" stroke-linecap="round" stroke-dasharray="3 3"/>
<defs>
<filter id="filter0_dddddd" x="0.459961" y="71.7722" width="290.597" height="334.61" filterUnits="userSpaceOnUse" color-interpolation-filters="sRGB">
<feFlood flood-opacity="0" result="BackgroundImageFix"/>
<feColorMatrix in="SourceAlpha" type="matrix" values="0 0 0 0 0 0 0 0 0 0 0 0 0 0 0 0 0 0 127 0"/>
<feOffset dy="2.76726"/>
<feGaussianBlur stdDeviation="1.1069"/>
<feColorMatrix type="matrix" values="0 0 0 0 0.0313726 0 0 0 0 0.411765 0 0 0 0 0.270588 0 0 0 0.030926 0"/>
<feBlend mode="normal" in2="BackgroundImageFix" result="effect1_dropShadow"/>
<feColorMatrix in="SourceAlpha" type="matrix" values="0 0 0 0 0 0 0 0 0 0 0 0 0 0 0 0 0 0 127 0"/>
<feOffset dy="6.6501"/>
<feGaussianBlur stdDeviation="2.66004"/>
<feColorMatrix type="matrix" values="0 0 0 0 0.0313726 0 0 0 0 0.411765 0 0 0 0 0.270588 0 0 0 0.0444282 0"/>
<feBlend mode="normal" in2="effect1_dropShadow" result="effect2_dropShadow"/>
<feColorMatrix in="SourceAlpha" type="matrix" values="0 0 0 0 0 0 0 0 0 0 0 0 0 0 0 0 0 0 127 0"/>
<feOffset dy="12.5216"/>
<feGaussianBlur stdDeviation="5.00862"/>
<feColorMatrix type="matrix" values="0 0 0 0 0.0313726 0 0 0 0 0.411765 0 0 0 0 0.270588 0 0 0 0.055 0"/>
<feBlend mode="normal" in2="effect2_dropShadow" result="effect3_dropShadow"/>
<feColorMatrix in="SourceAlpha" type="matrix" values="0 0 0 0 0 0 0 0 0 0 0 0 0 0 0 0 0 0 127 0"/>
<feOffset dy="22.3363"/>
<feGaussianBlur stdDeviation="8.93452"/>
<feColorMatrix type="matrix" values="0 0 0 0 0.0313726 0 0 0 0 0.411765 0 0 0 0 0.270588 0 0 0 0.0655718 0"/>
<feBlend mode="normal" in2="effect3_dropShadow" result="effect4_dropShadow"/>
<feColorMatrix in="SourceAlpha" type="matrix" values="0 0 0 0 0 0 0 0 0 0 0 0 0 0 0 0 0 0 127 0"/>
<feOffset dy="41.7776"/>
<feGaussianBlur stdDeviation="16.711"/>
<feColorMatrix type="matrix" values="0 0 0 0 0.0313726 0 0 0 0 0.411765 0 0 0 0 0.270588 0 0 0 0.079074 0"/>
<feBlend mode="normal" in2="effect4_dropShadow" result="effect5_dropShadow"/>
<feColorMatrix in="SourceAlpha" type="matrix" values="0 0 0 0 0 0 0 0 0 0 0 0 0 0 0 0 0 0 127 0"/>
<feOffset dy="100"/>
<feGaussianBlur stdDeviation="40"/>
<feColorMatrix type="matrix" values="0 0 0 0 0.0313726 0 0 0 0 0.411765 0 0 0 0 0.270588 0 0 0 0.11 0"/>
<feBlend mode="normal" in2="effect5_dropShadow" result="effect6_dropShadow"/>
<feBlend mode="normal" in="SourceGraphic" in2="effect6_dropShadow" result="shape"/>
</filter>
<filter id="filter1_dddddd" x="117.678" y="131.18" width="318.304" height="398.535" filterUnits="userSpaceOnUse" color-interpolation-filters="sRGB">
<feFlood flood-opacity="0" result="BackgroundImageFix"/>
<feColorMatrix in="SourceAlpha" type="matrix" values="0 0 0 0 0 0 0 0 0 0 0 0 0 0 0 0 0 0 127 0"/>
<feOffset dy="2.76726"/>
<feGaussianBlur stdDeviation="1.1069"/>
<feColorMatrix type="matrix" values="0 0 0 0 0.0313726 0 0 0 0 0.411765 0 0 0 0 0.270588 0 0 0 0.030926 0"/>
<feBlend mode="normal" in2="BackgroundImageFix" result="effect1_dropShadow"/>
<feColorMatrix in="SourceAlpha" type="matrix" values="0 0 0 0 0 0 0 0 0 0 0 0 0 0 0 0 0 0 127 0"/>
<feOffset dy="6.6501"/>
<feGaussianBlur stdDeviation="2.66004"/>
<feColorMatrix type="matrix" values="0 0 0 0 0.0313726 0 0 0 0 0.411765 0 0 0 0 0.270588 0 0 0 0.0444282 0"/>
<feBlend mode="normal" in2="effect1_dropShadow" result="effect2_dropShadow"/>
<feColorMatrix in="SourceAlpha" type="matrix" values="0 0 0 0 0 0 0 0 0 0 0 0 0 0 0 0 0 0 127 0"/>
<feOffset dy="12.5216"/>
<feGaussianBlur stdDeviation="5.00862"/>
<feColorMatrix type="matrix" values="0 0 0 0 0.0313726 0 0 0 0 0.411765 0 0 0 0 0.270588 0 0 0 0.055 0"/>
<feBlend mode="normal" in2="effect2_dropShadow" result="effect3_dropShadow"/>
<feColorMatrix in="SourceAlpha" type="matrix" values="0 0 0 0 0 0 0 0 0 0 0 0 0 0 0 0 0 0 127 0"/>
<feOffset dy="22.3363"/>
<feGaussianBlur stdDeviation="8.93452"/>
<feColorMatrix type="matrix" values="0 0 0 0 0.0313726 0 0 0 0 0.411765 0 0 0 0 0.270588 0 0 0 0.0655718 0"/>
<feBlend mode="normal" in2="effect3_dropShadow" result="effect4_dropShadow"/>
<feColorMatrix in="SourceAlpha" type="matrix" values="0 0 0 0 0 0 0 0 0 0 0 0 0 0 0 0 0 0 127 0"/>
<feOffset dy="41.7776"/>
<feGaussianBlur stdDeviation="16.711"/>
<feColorMatrix type="matrix" values="0 0 0 0 0.0313726 0 0 0 0 0.411765 0 0 0 0 0.270588 0 0 0 0.079074 0"/>
<feBlend mode="normal" in2="effect4_dropShadow" result="effect5_dropShadow"/>
<feColorMatrix in="SourceAlpha" type="matrix" values="0 0 0 0 0 0 0 0 0 0 0 0 0 0 0 0 0 0 127 0"/>
<feOffset dy="100"/>
<feGaussianBlur stdDeviation="40"/>
<feColorMatrix type="matrix" values="0 0 0 0 0.0313726 0 0 0 0 0.411765 0 0 0 0 0.270588 0 0 0 0.11 0"/>
<feBlend mode="normal" in2="effect5_dropShadow" result="effect6_dropShadow"/>
<feBlend mode="normal" in="SourceGraphic" in2="effect6_dropShadow" result="shape"/>
</filter>
<filter id="filter2_dddddd" x="286.433" y="138.287" width="232.553" height="242.486" filterUnits="userSpaceOnUse" color-interpolation-filters="sRGB">
<feFlood flood-opacity="0" result="BackgroundImageFix"/>
<feColorMatrix in="SourceAlpha" type="matrix" values="0 0 0 0 0 0 0 0 0 0 0 0 0 0 0 0 0 0 127 0"/>
<feOffset dy="2.76726"/>
<feGaussianBlur stdDeviation="1.1069"/>
<feColorMatrix type="matrix" values="0 0 0 0 0.0313726 0 0 0 0 0.411765 0 0 0 0 0.270588 0 0 0 0.030926 0"/>
<feBlend mode="normal" in2="BackgroundImageFix" result="effect1_dropShadow"/>
<feColorMatrix in="SourceAlpha" type="matrix" values="0 0 0 0 0 0 0 0 0 0 0 0 0 0 0 0 0 0 127 0"/>
<feOffset dy="6.6501"/>
<feGaussianBlur stdDeviation="2.66004"/>
<feColorMatrix type="matrix" values="0 0 0 0 0.0313726 0 0 0 0 0.411765 0 0 0 0 0.270588 0 0 0 0.0444282 0"/>
<feBlend mode="normal" in2="effect1_dropShadow" result="effect2_dropShadow"/>
<feColorMatrix in="SourceAlpha" type="matrix" values="0 0 0 0 0 0 0 0 0 0 0 0 0 0 0 0 0 0 127 0"/>
<feOffset dy="12.5216"/>
<feGaussianBlur stdDeviation="5.00862"/>
<feColorMatrix type="matrix" values="0 0 0 0 0.0313726 0 0 0 0 0.411765 0 0 0 0 0.270588 0 0 0 0.055 0"/>
<feBlend mode="normal" in2="effect2_dropShadow" result="effect3_dropShadow"/>
<feColorMatrix in="SourceAlpha" type="matrix" values="0 0 0 0 0 0 0 0 0 0 0 0 0 0 0 0 0 0 127 0"/>
<feOffset dy="22.3363"/>
<feGaussianBlur stdDeviation="8.93452"/>
<feColorMatrix type="matrix" values="0 0 0 0 0.0313726 0 0 0 0 0.411765 0 0 0 0 0.270588 0 0 0 0.0655718 0"/>
<feBlend mode="normal" in2="effect3_dropShadow" result="effect4_dropShadow"/>
<feColorMatrix in="SourceAlpha" type="matrix" values="0 0 0 0 0 0 0 0 0 0 0 0 0 0 0 0 0 0 127 0"/>
<feOffset dy="41.7776"/>
<feGaussianBlur stdDeviation="16.711"/>
<feColorMatrix type="matrix" values="0 0 0 0 0.0313726 0 0 0 0 0.411765 0 0 0 0 0.270588 0 0 0 0.079074 0"/>
<feBlend mode="normal" in2="effect4_dropShadow" result="effect5_dropShadow"/>
<feColorMatrix in="SourceAlpha" type="matrix" values="0 0 0 0 0 0 0 0 0 0 0 0 0 0 0 0 0 0 127 0"/>
<feOffset dy="100"/>
<feGaussianBlur stdDeviation="40"/>
<feColorMatrix type="matrix" values="0 0 0 0 0.0313726 0 0 0 0 0.411765 0 0 0 0 0.270588 0 0 0 0.11 0"/>
<feBlend mode="normal" in2="effect5_dropShadow" result="effect6_dropShadow"/>
<feBlend mode="normal" in="SourceGraphic" in2="effect6_dropShadow" result="shape"/>
</filter>
<filter id="filter3_dddddd" x="37.2429" y="351.401" width="213.104" height="254.188" filterUnits="userSpaceOnUse" color-interpolation-filters="sRGB">
<feFlood flood-opacity="0" result="BackgroundImageFix"/>
<feColorMatrix in="SourceAlpha" type="matrix" values="0 0 0 0 0 0 0 0 0 0 0 0 0 0 0 0 0 0 127 0"/>
<feOffset dy="2.76726"/>
<feGaussianBlur stdDeviation="1.1069"/>
<feColorMatrix type="matrix" values="0 0 0 0 0.0313726 0 0 0 0 0.411765 0 0 0 0 0.270588 0 0 0 0.030926 0"/>
<feBlend mode="normal" in2="BackgroundImageFix" result="effect1_dropShadow"/>
<feColorMatrix in="SourceAlpha" type="matrix" values="0 0 0 0 0 0 0 0 0 0 0 0 0 0 0 0 0 0 127 0"/>
<feOffset dy="6.6501"/>
<feGaussianBlur stdDeviation="2.66004"/>
<feColorMatrix type="matrix" values="0 0 0 0 0.0313726 0 0 0 0 0.411765 0 0 0 0 0.270588 0 0 0 0.0444282 0"/>
<feBlend mode="normal" in2="effect1_dropShadow" result="effect2_dropShadow"/>
<feColorMatrix in="SourceAlpha" type="matrix" values="0 0 0 0 0 0 0 0 0 0 0 0 0 0 0 0 0 0 127 0"/>
<feOffset dy="12.5216"/>
<feGaussianBlur stdDeviation="5.00862"/>
<feColorMatrix type="matrix" values="0 0 0 0 0.0313726 0 0 0 0 0.411765 0 0 0 0 0.270588 0 0 0 0.055 0"/>
<feBlend mode="normal" in2="effect2_dropShadow" result="effect3_dropShadow"/>
<feColorMatrix in="SourceAlpha" type="matrix" values="0 0 0 0 0 0 0 0 0 0 0 0 0 0 0 0 0 0 127 0"/>
<feOffset dy="22.3363"/>
<feGaussianBlur stdDeviation="8.93452"/>
<feColorMatrix type="matrix" values="0 0 0 0 0.0313726 0 0 0 0 0.411765 0 0 0 0 0.270588 0 0 0 0.0655718 0"/>
<feBlend mode="normal" in2="effect3_dropShadow" result="effect4_dropShadow"/>
<feColorMatrix in="SourceAlpha" type="matrix" values="0 0 0 0 0 0 0 0 0 0 0 0 0 0 0 0 0 0 127 0"/>
<feOffset dy="41.7776"/>
<feGaussianBlur stdDeviation="16.711"/>
<feColorMatrix type="matrix" values="0 0 0 0 0.0313726 0 0 0 0 0.411765 0 0 0 0 0.270588 0 0 0 0.079074 0"/>
<feBlend mode="normal" in2="effect4_dropShadow" result="effect5_dropShadow"/>
<feColorMatrix in="SourceAlpha" type="matrix" values="0 0 0 0 0 0 0 0 0 0 0 0 0 0 0 0 0 0 127 0"/>
<feOffset dy="100"/>
<feGaussianBlur stdDeviation="40"/>
<feColorMatrix type="matrix" values="0 0 0 0 0.0313726 0 0 0 0 0.411765 0 0 0 0 0.270588 0 0 0 0.11 0"/>
<feBlend mode="normal" in2="effect5_dropShadow" result="effect6_dropShadow"/>
<feBlend mode="normal" in="SourceGraphic" in2="effect6_dropShadow" result="shape"/>
</filter>
<linearGradient id="paint0_linear" x1="141.999" y1="136.337" x2="178.851" y2="152.274" gradientUnits="userSpaceOnUse">
<stop stop-color="#7AFFDF"/>
<stop offset="1" stop-color="white" stop-opacity="0"/>
</linearGradient>
<linearGradient id="paint1_linear" x1="165.192" y1="133.921" x2="140.896" y2="190.102" gradientUnits="userSpaceOnUse">
<stop stop-color="#7AFFDF"/>
<stop offset="1" stop-color="white" stop-opacity="0"/>
</linearGradient>
<linearGradient id="paint2_linear" x1="173.938" y1="152.338" x2="157.641" y2="149.854" gradientUnits="userSpaceOnUse">
<stop stop-color="white" stop-opacity="0"/>
<stop offset="1" stop-color="white"/>
</linearGradient>
<linearGradient id="paint3_linear" x1="354.097" y1="318.492" x2="202.379" y2="318.492" gradientUnits="userSpaceOnUse">
<stop stop-color="#ECFFFA"/>
<stop offset="1" stop-color="white" stop-opacity="0"/>
</linearGradient>
<linearGradient id="paint4_linear" x1="267.571" y1="170.617" x2="287.485" y2="221.767" gradientUnits="userSpaceOnUse">
<stop stop-color="#85FFE2"/>
<stop offset="1" stop-color="white" stop-opacity="0"/>
</linearGradient>
<linearGradient id="paint5_linear" x1="237.721" y1="247.808" x2="335.164" y2="247.808" gradientUnits="userSpaceOnUse">
<stop stop-color="#ECFFFA"/>
<stop offset="1" stop-color="white" stop-opacity="0"/>
</linearGradient>
<linearGradient id="paint6_linear" x1="240.75" y1="190.756" x2="316.483" y2="190.756" gradientUnits="userSpaceOnUse">
<stop stop-color="#FF968E"/>
<stop offset="1" stop-color="white" stop-opacity="0"/>
</linearGradient>
<linearGradient id="paint7_linear" x1="274.568" y1="283.554" x2="274.568" y2="290.32" gradientUnits="userSpaceOnUse">
<stop stop-color="#D1FFF4"/>
<stop offset="1" stop-color="white" stop-opacity="0"/>
</linearGradient>
<linearGradient id="paint8_linear" x1="401.822" y1="145.585" x2="424.742" y2="190.732" gradientUnits="userSpaceOnUse">
<stop stop-color="#D1FFF4"/>
<stop offset="1" stop-color="white" stop-opacity="0"/>
</linearGradient>
<linearGradient id="paint9_linear" x1="406.117" y1="176.055" x2="413.124" y2="189.859" gradientUnits="userSpaceOnUse">
<stop stop-color="white"/>
<stop offset="1" stop-color="white" stop-opacity="0"/>
</linearGradient>
<linearGradient id="paint10_linear" x1="384.973" y1="150.978" x2="417.614" y2="189.683" gradientUnits="userSpaceOnUse">
<stop stop-color="#D1FFF4"/>
<stop offset="1" stop-color="white" stop-opacity="0"/>
</linearGradient>
<linearGradient id="paint11_linear" x1="396.125" y1="179.657" x2="406.106" y2="191.491" gradientUnits="userSpaceOnUse">
<stop stop-color="white"/>
<stop offset="1" stop-color="white" stop-opacity="0"/>
</linearGradient>
<linearGradient id="paint12_linear" x1="375.36" y1="159.427" x2="417.55" y2="187.419" gradientUnits="userSpaceOnUse">
<stop stop-color="#D1FFF4"/>
<stop offset="1" stop-color="white" stop-opacity="0"/>
</linearGradient>
<linearGradient id="paint13_linear" x1="394.111" y1="183.824" x2="407.011" y2="192.383" gradientUnits="userSpaceOnUse">
<stop stop-color="white"/>
<stop offset="1" stop-color="white" stop-opacity="0"/>
</linearGradient>
<linearGradient id="paint14_linear" x1="111.224" y1="384.96" x2="173.531" y2="396.819" gradientUnits="userSpaceOnUse">
<stop stop-color="#00AC83"/>
<stop offset="1" stop-color="#007357"/>
</linearGradient>
<linearGradient id="paint15_linear" x1="124.405" y1="388.296" x2="154.568" y2="393.171" gradientUnits="userSpaceOnUse">
<stop stop-color="#7AFFDF"/>
<stop offset="0.53" stop-color="#00FFC2"/>
<stop offset="1" stop-color="#7AFFDF"/>
</linearGradient>
<linearGradient id="paint16_linear" x1="124.645" y1="386.822" x2="156.388" y2="391.952" gradientUnits="userSpaceOnUse">
<stop stop-color="#00AC83"/>
<stop offset="1" stop-color="#007357"/>
</linearGradient>
<linearGradient id="paint17_linear" x1="130.291" y1="365.529" x2="134.579" y2="367.442" gradientUnits="userSpaceOnUse">
<stop stop-color="#007357"/>
<stop offset="1" stop-color="#00AC83"/>
</linearGradient>
<linearGradient id="paint18_linear" x1="102.208" y1="3116.43" x2="144.869" y2="3123.33" gradientUnits="userSpaceOnUse">
<stop stop-color="#00785B"/>
<stop offset="1" stop-color="#1C2152"/>
</linearGradient>
<linearGradient id="paint19_linear" x1="193.109" y1="3213.4" x2="235.744" y2="3220.29" gradientUnits="userSpaceOnUse">
<stop stop-color="#00785B"/>
<stop offset="1" stop-color="#1C2152"/>
</linearGradient>
<linearGradient id="paint20_linear" x1="128.197" y1="396.648" x2="131.11" y2="397.351" gradientUnits="userSpaceOnUse">
<stop stop-color="#00AC83"/>
<stop offset="1" stop-color="#007357"/>
</linearGradient>
<linearGradient id="paint21_linear" x1="37.6358" y1="4465.56" x2="85.804" y2="4473.35" gradientUnits="userSpaceOnUse">
<stop stop-color="#007357"/>
<stop offset="1" stop-color="#1C2152"/>
</linearGradient>
<linearGradient id="paint22_linear" x1="132.622" y1="383.405" x2="147.025" y2="386.735" gradientUnits="userSpaceOnUse">
<stop stop-color="#00AC83"/>
<stop offset="1" stop-color="#007357"/>
</linearGradient>
<linearGradient id="paint23_linear" x1="133.196" y1="398.083" x2="148.221" y2="401.666" gradientUnits="userSpaceOnUse">
<stop stop-color="#00AC83"/>
<stop offset="1" stop-color="#007357"/>
</linearGradient>
<linearGradient id="paint24_linear" x1="122.318" y1="4642.6" x2="171.569" y2="4650.56" gradientUnits="userSpaceOnUse">
<stop stop-color="#007357"/>
<stop offset="1" stop-color="#1C2152"/>
</linearGradient>
</defs>
</svg>
