<svg width="261" height="243" viewBox="45 0 261 243" fill="none" xmlns="http://www.w3.org/2000/svg">
<path fill-rule="evenodd" clip-rule="evenodd" d="M175.136 0.0937362C200.774 1.84348 214.468 29.5779 235.949 43.3741C259.055 58.2136 299.127 57.5009 305.485 83.8089C311.991 110.732 273.869 127.66 262.433 152.964C252.831 174.207 261.611 202.495 244.544 218.646C226.979 235.267 199.407 232.744 175.136 235.571C147.125 238.832 117.048 250.075 92.5831 236.34C67.523 222.271 63.5069 216.395 47.071 188.364C35.9637 169.421 79.2047 149.833 81.4999 109.468C83.7952 69.1023 78.2052 51.5796 99.6534 36.6876C120.831 21.9834 149.227 -1.6746 175.136 0.0937362Z" fill="#2BFFCC" fill-opacity="0.25"/>
<g filter="url(#filter0_dddddd)">
<path d="M128.423 46.9454C128.423 46.9454 112.975 48.5569 93.8354 100.092L123.459 112.536C123.459 112.536 144.586 70.4162 138.031 50.9819L128.423 46.9454Z" fill="#F9F9F9"/>
<path d="M100.268 102.541L98.8496 105.73L97.7408 105.264L96.6193 107.786L93.9914 106.681L93.4634 107.868L118.023 118.197L118.65 116.788L115.776 115.579L116.684 113.539L115.416 113.006L116.949 109.557L100.268 102.541Z" fill="#F9F9F9"/>
<path d="M117.618 85.0612C123.022 87.3303 129.328 84.8482 131.702 79.5173C134.077 74.1864 131.621 68.0254 126.216 65.7563C120.812 63.4873 114.506 65.9694 112.132 71.3003C109.757 76.6312 112.214 82.7921 117.618 85.0612Z" fill="#00FABE"/>
<path d="M117.618 85.0612C123.022 87.3303 129.328 84.8482 131.702 79.5173C134.077 74.1864 131.621 68.0254 126.216 65.7563C120.812 63.4873 114.506 65.9694 112.132 71.3003C109.757 76.6312 112.214 82.7921 117.618 85.0612Z" fill="url(#paint0_linear)"/>
<path d="M118.262 83.6156C122.741 85.496 127.967 83.4391 129.934 79.0213C131.902 74.6035 129.867 69.4979 125.388 67.6174C120.909 65.737 115.684 67.794 113.716 72.2118C111.748 76.6296 113.784 81.7352 118.262 83.6156Z" fill="white"/>
<path d="M119.342 81.4077C122.565 82.7609 126.326 81.2806 127.742 78.1014C129.158 74.9222 127.693 71.2479 124.47 69.8947C121.247 68.5415 117.486 70.0217 116.07 73.201C114.654 76.3802 116.119 80.0545 119.342 81.4077Z" fill="#2BFFCC"/>
<path d="M119.342 81.4077C122.565 82.7609 126.326 81.2806 127.742 78.1014C129.158 74.9222 127.693 71.2479 124.47 69.8947C121.247 68.5415 117.486 70.0217 116.07 73.201C114.654 76.3802 116.119 80.0545 119.342 81.4077Z" fill="url(#paint1_linear)"/>
<path d="M97.5287 96.2394L82.3677 89.8738C81.9775 89.7113 81.629 89.4671 81.3462 89.1581C81.0634 88.8491 80.853 88.4827 80.7298 88.0842C80.1997 86.3485 80.0867 83.3757 84.6634 81.9111C91.3637 79.7661 104.231 79.2574 104.231 79.2574L97.5287 96.2394Z" fill="#7AFFDF"/>
<path d="M123.524 105.95L138.15 112.091C138.529 112.249 138.941 112.323 139.354 112.306C139.768 112.289 140.174 112.182 140.542 111.993C142.17 111.164 144.435 109.19 142.515 104.998C139.706 98.8608 131.65 89.5697 131.65 89.5697L123.524 105.95Z" fill="#00FABE"/>
<path d="M114.61 94.203L113.648 93.7982C112.876 93.4735 111.976 93.8287 111.637 94.5915L105.968 107.345C105.629 108.107 105.98 108.989 106.752 109.314L107.714 109.719C108.485 110.043 109.386 109.688 109.725 108.925L115.393 96.1722C115.732 95.4093 115.382 94.5277 114.61 94.203Z" fill="#00FABE"/>
<path d="M124.462 48.8598L138.504 54.7561C138.557 54.7756 138.614 54.7811 138.67 54.7721C138.725 54.7631 138.778 54.7399 138.822 54.7049C138.866 54.6698 138.9 54.6241 138.921 54.5723C138.942 54.5205 138.948 54.4645 138.94 54.4098L137.114 40.965C137.109 40.9144 137.091 40.8662 137.061 40.8249C137.031 40.7836 136.991 40.7507 136.945 40.7294C136.898 40.7081 136.846 40.6991 136.794 40.7033C136.743 40.7075 136.693 40.7247 136.65 40.7534L124.433 48.3019C124.383 48.3319 124.342 48.3748 124.314 48.4258C124.286 48.4768 124.273 48.534 124.276 48.5914C124.279 48.6488 124.298 48.7041 124.331 48.7514C124.364 48.7987 124.409 48.8362 124.462 48.8598V48.8598Z" fill="#7AFFDF"/>
<path d="M126.764 76.9346C126.764 76.9346 126.584 79.844 121.087 80.6015L126.764 76.9346Z" fill="url(#paint2_linear)"/>
</g>
<g filter="url(#filter1_dddddd)">
<path d="M202.398 175.779C200.806 173.195 199.538 172.51 195.599 172.405C191.66 172.299 186.426 172.352 186.426 172.352L186.372 177.809C186.372 177.809 190.715 180.26 193.036 181.473C193.171 181.552 193.548 181.763 193.818 181.921C194.223 182.105 194.655 182.264 195.086 182.369C197.38 182.843 199.457 182.606 200.941 181.156C202.587 179.548 203.99 178.362 202.398 175.779Z" fill="#F4473B"/>
<path d="M172.692 170.928C172.557 171.034 172.206 171.297 171.964 171.482C171.64 171.772 171.343 172.115 171.073 172.457C169.778 174.355 169.211 176.332 170.048 178.23C170.965 180.313 171.586 182.053 174.608 181.552C177.629 181.051 178.79 180.155 180.354 176.649C181.919 173.143 183.835 168.345 183.808 168.345L178.655 166.263C178.655 166.263 174.716 169.294 172.692 170.928Z" fill="#F4473B"/>
<path d="M186.776 172.589C186.776 172.589 186.857 178.099 185.939 178.23C185.022 178.362 172.368 176.57 167.323 176.306C162.277 176.042 150.838 172.853 145.226 166.658C140.369 161.307 141.125 155.376 144.713 155.376C148.301 155.376 151.593 152.397 160.712 156.641C169.832 160.885 179.491 161.597 184.914 161.175C190.337 160.753 205.527 158.012 206.714 157.168C207.901 156.325 213.594 153.899 221.527 154.743C229.459 155.586 225.709 161.729 224.036 164.101C221.689 167.396 216.131 170.928 211.49 171.087C206.849 171.245 186.776 172.589 186.776 172.589Z" fill="#00FABE"/>
<path d="M186.776 172.589C186.776 172.589 186.857 178.099 185.939 178.23C185.022 178.362 172.368 176.57 167.323 176.306C162.277 176.042 150.838 172.853 145.226 166.658C140.369 161.307 141.125 155.376 144.713 155.376C148.301 155.376 151.593 152.397 160.712 156.641C169.832 160.885 179.491 161.597 184.914 161.175C190.337 160.753 205.527 158.012 206.714 157.168C207.901 156.325 213.594 153.899 221.527 154.743C229.459 155.586 225.709 161.729 224.036 164.101C221.689 167.396 216.131 170.928 211.49 171.087C206.849 171.245 186.776 172.589 186.776 172.589Z" fill="url(#paint3_linear)"/>
<path d="M177.387 76.2407C174.716 77.1897 171.316 90.1065 171.316 90.1065L171.262 90.0538L170.884 91.8463L170.426 94.1924L171.316 108.216L179.95 112.434L199.781 117.653L205.258 125.272C205.258 125.272 217.534 137.477 217.615 138.32C217.696 139.164 204.421 143.461 203.153 143.645C200.104 144.093 222.66 138.689 215.429 130.122C212.354 126.458 207.848 115.439 198.917 108.137C193.737 103.919 195.194 91.9254 193.359 84.3335C191.066 74.8436 189.663 71.9967 187.37 71.9967C185.292 71.9967 182.405 74.4219 177.387 76.2407Z" fill="#04AD85"/>
<path d="M177.387 76.2407C174.716 77.1897 171.316 90.1065 171.316 90.1065L171.262 90.0538L170.884 91.8463L170.426 94.1924L171.316 108.216L179.95 112.434L199.781 117.653L205.258 125.272C205.258 125.272 217.534 137.477 217.615 138.32C217.696 139.164 204.421 143.461 203.153 143.645C200.104 144.093 222.66 138.689 215.429 130.122C212.354 126.458 207.848 115.439 198.917 108.137C193.737 103.919 195.194 91.9254 193.359 84.3335C191.066 74.8436 189.663 71.9967 187.37 71.9967C185.292 71.9967 182.405 74.4219 177.387 76.2407Z" fill="url(#paint4_linear)"/>
<path d="M205.446 106.898C201.291 103.181 199.888 102.285 196.246 103.55C192.603 104.816 190.823 105.976 185.858 106.766C182.809 107.294 179.653 106.898 176.82 105.686L166.594 106.687C165.299 106.529 150.756 133.206 150.406 138.742C150.19 142.143 158.095 147.388 160.308 147.915C161.198 148.126 162.79 139.744 163.302 138.979L159.984 137.978C160.577 136.528 162.574 132.943 163.896 131.018C164.301 130.412 167.457 125.324 167.889 123.374C167.97 123.558 168.429 127.249 168.86 128.435C169.67 130.623 170.776 131.862 170.776 133.602C170.776 135.341 170.56 142.248 169.265 145.359C167.97 148.469 166.081 155.666 166.081 155.666L198.782 155.481C198.782 155.481 197.595 141.747 198.08 137.029C198.08 137.029 197.568 135.131 198.539 132.389C200.131 127.855 200.59 121.107 200.32 120.052C199.915 118.391 209.925 132.442 212.11 136C213.028 137.477 200.59 140.086 199.564 141.22C198.485 142.406 200.617 145.622 200.617 145.622C200.617 145.622 222.309 143.039 222.201 139.796C222.093 136.554 210.276 111.195 205.446 106.898Z" fill="#00FABE"/>
<path d="M205.446 106.898C201.291 103.181 199.888 102.285 196.246 103.55C192.603 104.816 190.823 105.976 185.858 106.766C182.809 107.294 179.653 106.898 176.82 105.686L166.594 106.687C165.299 106.529 150.756 133.206 150.406 138.742C150.19 142.143 158.095 147.388 160.308 147.915C161.198 148.126 162.79 139.744 163.302 138.979L159.984 137.978C160.577 136.528 162.574 132.943 163.896 131.018C164.301 130.412 167.457 125.324 167.889 123.374C167.97 123.558 168.429 127.249 168.86 128.435C169.67 130.623 170.776 131.862 170.776 133.602C170.776 135.341 170.56 142.248 169.265 145.359C167.97 148.469 166.081 155.666 166.081 155.666L198.782 155.481C198.782 155.481 197.595 141.747 198.08 137.029C198.08 137.029 197.568 135.131 198.539 132.389C200.131 127.855 200.59 121.107 200.32 120.052C199.915 118.391 209.925 132.442 212.11 136C213.028 137.477 200.59 140.086 199.564 141.22C198.485 142.406 200.617 145.622 200.617 145.622C200.617 145.622 222.309 143.039 222.201 139.796C222.093 136.554 210.276 111.195 205.446 106.898Z" fill="url(#paint5_linear)"/>
<path d="M180.004 68.6488C180.004 68.6488 173.933 68.8861 172.179 75.1072C170.426 81.3283 170.183 90.001 170.129 91.3454C170.075 92.7689 170.749 101.099 167.485 104.578C164.679 107.584 165.812 110.483 165.11 112.882L164.787 116.863C164.841 117.337 165.191 117.732 165.65 117.891C166.082 118.022 167.593 117.337 167.862 117.232C171.64 115.755 171.64 114.569 173.07 113.383C174.257 112.408 177.521 110.141 178.493 109.244C179.464 108.348 180.139 107.557 180.193 106.424C180.381 100.651 179.356 95.3259 178.061 92.5053C176.766 89.6847 174.284 84.9134 176.361 81.7501C178.439 78.5868 182.189 75.4235 182.405 74.6327C182.621 73.8419 182.729 77.6906 185.022 79.0349C187.315 80.3793 189.231 82.251 189.932 84.0698C190.526 85.5988 191.309 88.2085 189.15 92.7162C186.992 97.2238 185.238 103.023 188.287 107.32C191.335 111.617 197.757 116.256 198.809 118.418C199.996 120.817 198.863 126.458 198.647 129.858C198.431 133.259 205.446 123.954 205.23 119.525C205.015 115.096 205.77 113.198 201.426 106.397C197.082 99.5963 194.249 87.9449 194.141 85.1243C194.034 82.3037 192.738 74.4745 190.121 72.2339C187.855 70.3359 187.369 68.4907 182.729 68.4907C181.811 68.4907 180.894 68.5434 180.004 68.6488Z" fill="#F4473B"/>
<path d="M180.004 68.6488C180.004 68.6488 173.933 68.8861 172.179 75.1072C170.426 81.3283 170.183 90.001 170.129 91.3454C170.075 92.7689 170.749 101.099 167.485 104.578C164.679 107.584 165.812 110.483 165.11 112.882L164.787 116.863C164.841 117.337 165.191 117.732 165.65 117.891C166.082 118.022 167.593 117.337 167.862 117.232C171.64 115.755 171.64 114.569 173.07 113.383C174.257 112.408 177.521 110.141 178.493 109.244C179.464 108.348 180.139 107.557 180.193 106.424C180.381 100.651 179.356 95.3259 178.061 92.5053C176.766 89.6847 174.284 84.9134 176.361 81.7501C178.439 78.5868 182.189 75.4235 182.405 74.6327C182.621 73.8419 182.729 77.6906 185.022 79.0349C187.315 80.3793 189.231 82.251 189.932 84.0698C190.526 85.5988 191.309 88.2085 189.15 92.7162C186.992 97.2238 185.238 103.023 188.287 107.32C191.335 111.617 197.757 116.256 198.809 118.418C199.996 120.817 198.863 126.458 198.647 129.858C198.431 133.259 205.446 123.954 205.23 119.525C205.015 115.096 205.77 113.198 201.426 106.397C197.082 99.5963 194.249 87.9449 194.141 85.1243C194.034 82.3037 192.738 74.4745 190.121 72.2339C187.855 70.3359 187.369 68.4907 182.729 68.4907C181.811 68.4907 180.894 68.5434 180.004 68.6488Z" fill="url(#paint6_linear)"/>
<path opacity="0.07" d="M166.162 162.915L196.812 163.073C196.812 163.073 193.224 165.814 191.497 166.131C189.77 166.447 182.377 170.032 179.625 168.661C177.683 167.633 166.162 162.915 166.162 162.915Z" fill="black"/>
<path opacity="0.07" d="M183.241 95.6686C183.241 95.6686 186.101 96.3803 187.288 94.7459C189.959 91.0555 187.531 96.6175 187.531 96.6175C187.531 96.6175 186.749 98.7791 186.803 99.8599C186.857 100.941 183.727 95.8267 183.241 95.6686Z" fill="black"/>
<path opacity="0.07" d="M171.802 114.648C171.451 115.07 170.938 115.413 170.668 116.494C170.21 118.233 169.724 120.184 168.483 121.977C167.754 123.031 168.159 127.117 169.373 129.7C169.724 130.438 170.803 132.363 170.776 132.811L170.695 136.554H173.987C173.987 136.554 176.793 136.844 176.199 134.577C175.687 132.574 173.016 125.114 174.823 123.479C178.223 120.448 173.933 114.385 175.525 112.434C176.901 110.747 178.871 109.534 178.871 108.981C178.871 108.77 178.358 109.455 178.007 109.692C177.333 110.167 176.982 110.536 176.415 110.905C175.795 111.3 174.85 111.96 174.23 112.408C173.339 113.067 172.53 113.805 171.802 114.648Z" fill="black"/>
<path d="M158.985 138.663C158.985 138.663 158.958 136.712 160.928 136.633C162.897 136.554 204.609 136.607 204.609 136.607C204.609 136.607 206.444 136.818 206.498 138.267C206.552 139.717 206.552 161.254 206.552 161.254C206.552 161.254 206.579 162.915 204.771 162.967C202.964 163.02 160.442 163.02 160.442 163.02C160.442 163.02 158.85 162.625 158.877 161.07C158.904 159.514 158.985 138.663 158.985 138.663Z" fill="white"/>
<path d="M182.891 151.58C183.889 151.58 184.698 150.789 184.698 149.813C184.698 148.838 183.889 148.047 182.891 148.047C181.892 148.047 181.083 148.838 181.083 149.813C181.083 150.789 181.892 151.58 182.891 151.58Z" fill="#2BFFCC"/>
<path d="M182.891 151.58C183.889 151.58 184.698 150.789 184.698 149.813C184.698 148.838 183.889 148.047 182.891 148.047C181.892 148.047 181.083 148.838 181.083 149.813C181.083 150.789 181.892 151.58 182.891 151.58Z" fill="url(#paint7_linear)"/>
</g>
<g filter="url(#filter2_dddddd)">
<path d="M270.399 95.1985L258.758 72.8766C258.563 72.5042 258.1 72.3535 257.722 72.54L243.919 79.3604C243.542 79.5469 243.393 80.0001 243.588 80.3726L255.229 102.694C255.424 103.067 255.887 103.218 256.265 103.031L270.068 96.2107C270.445 96.0242 270.594 95.571 270.399 95.1985Z" fill="#2BFFCC"/>
<path d="M270.399 95.1985L258.758 72.8766C258.563 72.5042 258.1 72.3535 257.722 72.54L243.919 79.3604C243.542 79.5469 243.393 80.0001 243.588 80.3726L255.229 102.694C255.424 103.067 255.887 103.218 256.265 103.031L270.068 96.2107C270.445 96.0242 270.594 95.571 270.399 95.1985Z" fill="url(#paint8_linear)"/>
<path d="M267.127 97.6091L254.824 73.9585L252.276 75.2206L264.579 98.8713L267.127 97.6091Z" fill="white"/>
<path d="M257.53 98.8403L253.772 91.6256L252.596 92.208L256.353 99.4227L257.53 98.8403Z" fill="url(#paint9_linear)"/>
<path d="M246.807 83.3746C247.246 84.2164 248.295 84.5571 249.148 84.1356C250.002 83.714 250.338 82.6899 249.899 81.8481C249.459 81.0063 248.411 80.6657 247.557 81.0872C246.704 81.5087 246.368 82.5329 246.807 83.3746Z" fill="white"/>
<path d="M247.938 85.5541C248.378 86.3959 249.426 86.7366 250.28 86.3151C251.133 85.8935 251.469 84.8694 251.03 84.0276C250.591 83.1858 249.542 82.8451 248.689 83.2667C247.835 83.6882 247.499 84.7123 247.938 85.5541Z" fill="white"/>
<path d="M265.353 93.0981L248.868 73.9966C248.593 73.6779 248.106 73.6365 247.781 73.9043L235.903 83.693C235.579 83.9608 235.538 84.4363 235.813 84.755L252.298 103.856C252.573 104.175 253.06 104.217 253.385 103.949L265.262 94.1601C265.587 93.8923 265.628 93.4168 265.353 93.0981Z" fill="#2BFFCC"/>
<path d="M265.353 93.0981L248.868 73.9966C248.593 73.6779 248.106 73.6365 247.781 73.9043L235.903 83.693C235.579 83.9608 235.538 84.4363 235.813 84.755L252.298 103.856C252.573 104.175 253.06 104.217 253.385 103.949L265.262 94.1601C265.587 93.8923 265.628 93.4168 265.353 93.0981Z" fill="url(#paint10_linear)"/>
<path d="M262.75 96.2094L245.255 75.9431L243.053 77.757L260.549 98.0232L262.75 96.2094Z" fill="white"/>
<path d="M253.695 99.563L248.358 93.3812L247.342 94.2183L252.679 100.4L253.695 99.563Z" fill="url(#paint11_linear)"/>
<path d="M239.633 86.9159C240.255 87.6358 241.354 87.7291 242.088 87.1245C242.822 86.5198 242.913 85.4461 242.291 84.7262C241.67 84.0063 240.571 83.9129 239.837 84.5176C239.103 85.1223 239.011 86.196 239.633 86.9159Z" fill="white"/>
<path d="M241.244 88.7846C241.865 89.5045 242.964 89.5979 243.699 88.9932C244.433 88.3885 244.524 87.3148 243.902 86.5949C243.281 85.8751 242.182 85.7817 241.448 86.3864C240.714 86.991 240.622 88.0648 241.244 88.7846Z" fill="white"/>
<path d="M263.371 90.4103L242.149 76.6783C241.795 76.4492 241.316 76.5459 241.079 76.8944L232.413 89.6338C232.176 89.9823 232.271 90.4505 232.625 90.6797L253.846 104.412C254.201 104.641 254.68 104.544 254.917 104.196L263.583 91.4562C263.82 91.1077 263.725 90.6394 263.371 90.4103Z" fill="#2BFFCC"/>
<path d="M263.371 90.4103L242.149 76.6783C241.795 76.4492 241.316 76.5459 241.079 76.8944L232.413 89.6338C232.176 89.9823 232.271 90.4505 232.625 90.6797L253.846 104.412C254.201 104.641 254.68 104.544 254.917 104.196L263.583 91.4562C263.82 91.1077 263.725 90.6394 263.371 90.4103Z" fill="url(#paint12_linear)"/>
<path d="M261.766 94.1796L239.176 79.5461L237.565 81.9173L260.155 96.5508L261.766 94.1796Z" fill="white"/>
<path d="M254.038 99.895L247.15 95.4344L246.407 96.528L253.295 100.989L254.038 99.895Z" fill="url(#paint13_linear)"/>
<path d="M236.903 91.6285C237.702 92.1452 238.783 91.927 239.317 91.1411C239.852 90.3552 239.638 89.2993 238.84 88.7826C238.041 88.2659 236.96 88.4841 236.426 89.2699C235.891 90.0558 236.105 91.1118 236.903 91.6285Z" fill="white"/>
<path d="M238.987 92.9802C239.786 93.497 240.866 93.2788 241.401 92.4929C241.936 91.707 241.722 90.6511 240.923 90.1344C240.124 89.6176 239.044 89.8358 238.509 90.6217C237.974 91.4076 238.188 92.4635 238.987 92.9802Z" fill="white"/>
</g>
<g filter="url(#filter3_dddddd)">
<path d="M121.959 220.401L121.965 220.409L121.887 220.437C121.874 220.445 121.861 220.45 121.848 220.455L119.333 221.537L118.831 221.756C116.207 222.772 112.907 222.09 109.52 219.47C102.561 214.091 97.8494 202.55 98.9941 193.707C99.5629 189.312 101.47 186.406 104.104 185.256C104.16 185.224 104.229 185.203 104.293 185.173L106.875 184.054C109.545 182.855 112.971 183.475 116.499 186.206C123.457 191.59 128.17 203.125 127.025 211.976C126.459 216.347 124.567 219.238 121.955 220.401" fill="url(#paint14_linear)"/>
<path d="M122.572 200.599C122.602 200.684 122.63 200.771 122.659 200.857C124.08 204.995 124.689 209.349 124.191 213.197C123.046 222.045 116.477 224.855 109.518 219.472C102.559 214.088 97.8444 202.553 98.9898 193.705C100.135 184.857 106.705 182.047 113.664 187.429C116.019 189.252 117.98 191.869 119.818 194.667C120.961 196.408 121.706 198.206 122.572 200.599" fill="#01CC9B"/>
<path d="M120.013 201.176C120.037 201.248 120.058 201.321 120.082 201.395C121.198 204.904 121.662 208.601 121.238 211.875C120.264 219.402 114.966 221.829 109.406 217.293C103.846 212.758 100.124 202.979 101.098 195.452C102.072 187.924 107.372 185.498 112.933 190.032C114.811 191.567 116.376 193.778 117.836 196.148C118.744 197.62 119.332 199.146 120.014 201.174" fill="#00DFAA"/>
<path d="M119.415 194.044L122.1 192.52C122.1 192.52 122.474 193.197 122.566 193.318C123.646 194.729 126.056 200.088 126.62 203.821L123.78 204.946C123.78 204.946 123.624 204.2 123.572 203.965C122.986 201.327 121.344 196.625 119.415 194.044Z" fill="#00AA81"/>
<path d="M113.034 186.974L115.929 185.787L116.072 185.888C116.072 185.888 117.544 186.975 118.137 187.64C118.137 187.64 115.487 189.061 115.468 189.038C115.365 188.919 114.053 187.621 113.034 186.974Z" fill="#00AA81"/>
<path d="M104.411 192.234L106.063 193.111L106.047 191.038L107.095 191.56L107.069 193.604L109.035 194.636L109.182 192.626L110.193 193.117L110.014 195.124C110.014 195.124 112.876 196.743 113.326 197.026C113.776 197.31 115.6 198.116 116.288 199.948C116.897 201.567 117.154 202.394 117.142 203.506C117.131 204.519 116.459 206.209 115.385 206.142C115.385 206.142 116.667 207.365 117.275 208.877C117.883 210.389 117.688 211.25 117.7 211.629C117.716 212.174 117.221 213.649 116.71 214.095C116.199 214.541 115.486 214.887 114.435 214.809C113.385 214.731 110.993 213.24 110.993 213.24L111.071 215.96L109.954 215.448L109.9 212.783L108.344 211.866V214.561L107.282 213.962L107.287 211.32L104.905 210.066L104.823 207.265L106.181 207.891L106.009 195.844L104.351 194.916L104.411 192.234Z" fill="url(#paint15_linear)"/>
<path d="M108.03 201.515L107.891 196.795L112.555 199.214C112.555 199.214 113.707 199.772 114.12 200.706C114.532 201.639 114.599 202.227 114.61 202.582C114.621 202.937 114.503 203.86 114.075 204.111C113.647 204.362 113.234 204.276 112.548 203.965C111.862 203.654 108.03 201.515 108.03 201.515Z" fill="#00DFAA"/>
<path d="M108.326 209.135L108.187 204.415L112.849 206.835C112.849 206.835 114.368 207.523 114.782 208.457C115.197 209.392 115.257 209.786 115.274 210.356C115.297 211.159 114.998 211.663 114.57 211.911C114.141 212.16 113.53 211.893 112.844 211.582C112.157 211.271 108.326 209.135 108.326 209.135Z" fill="#00DFAA"/>
<path d="M104.398 192.291L105.675 191.555L113.069 195.343C113.069 195.343 116.05 196.589 117.514 199.144C119.197 202.079 118.404 204.801 117.843 205.39C117.569 205.675 117.279 205.943 116.973 206.195C116.973 206.195 117.981 207.265 118.303 208.046C118.859 209.385 118.714 210.333 118.636 211.154C118.559 211.974 118.434 212.574 117.884 213.244C117.264 214 115.928 214.569 115.928 214.569C115.928 214.569 117.23 212.731 117.23 210.811C117.23 208.189 116.475 207.311 115.411 206.134C115.46 206.222 116.964 204.809 117.054 203.491C117.147 202.191 116.639 200.968 116.218 200.145C115.491 198.727 114.426 197.942 113.393 197.118C112.046 196.042 104.398 192.291 104.398 192.291Z" fill="url(#paint16_linear)"/>
<path d="M106.048 191.027L107.228 190.252L108.307 190.807L107.093 191.569L106.048 191.027Z" fill="url(#paint17_linear)"/>
<path d="M107.099 191.533L108.318 190.803L108.326 192.927L107.071 193.593L107.099 191.533Z" fill="url(#paint18_linear)"/>
<path d="M109.14 192.65L110.319 191.876L111.398 192.431L110.184 193.193L109.14 192.65Z" fill="#009F79"/>
<path d="M110.191 193.156L111.409 192.425L111.417 194.55L110.164 195.215L110.191 193.156Z" fill="url(#paint19_linear)"/>
<path d="M106.046 191.732L106.053 193.136L107.063 193.626L107.082 192.242L106.046 191.732Z" fill="#5FFFD8"/>
<path d="M109.103 193.379L109.012 194.629L110.143 195.229L110.201 193.195L109.135 192.645" fill="#2FFFCD"/>
<path d="M104.826 207.263L106.112 206.436L106.18 207.894L104.826 207.263Z" fill="url(#paint20_linear)"/>
<path d="M108.347 214.558L109.628 213.82L109.602 212.601L108.344 211.864L108.347 214.558Z" fill="url(#paint21_linear)"/>
<path d="M107.793 196.791L107.935 201.587L112.984 204.186C113.084 204.237 113.193 204.269 113.306 204.279C113.627 204.306 114.245 204.259 114.461 203.551L109.195 200.742L109.154 197.447L107.793 196.791Z" fill="url(#paint22_linear)"/>
<path d="M108.136 204.404L108.277 209.2L111.441 210.854L112.358 211.335L113.251 211.762L113.344 211.803C113.503 211.882 113.67 211.943 113.843 211.985C114.279 212.054 114.782 212.013 115.114 211.314L109.536 208.349L109.496 205.054L108.136 204.404Z" fill="url(#paint23_linear)"/>
<path d="M110.997 213.241L111.075 215.961L112.292 215.253L112.284 213.982C112.284 213.982 111.993 213.822 110.997 213.241Z" fill="url(#paint24_linear)"/>
<path d="M117.523 219.291C117.742 219.202 117.982 219.173 118.217 219.206C118.452 219.24 118.674 219.335 118.858 219.481C119.511 219.991 119.693 220.189 119.78 220.203C119.866 220.218 119.267 220.222 119.023 220.222C118.779 220.223 118.575 220.251 118.445 220.124C118.315 219.997 117.523 219.291 117.523 219.291Z" fill="#008565"/>
<path d="M117.5 219.294C117.5 219.294 118.185 219.304 118.411 219.846C118.637 220.387 118.263 220.827 118.383 221.119C118.411 221.2 118.457 221.274 118.518 221.335C118.579 221.396 118.653 221.443 118.734 221.473C118.734 221.473 118.187 221.232 117.991 221.2C117.796 221.167 117.458 220.753 117.506 220.512C117.545 220.314 117.428 219.762 117.378 219.477C117.366 219.41 117.5 219.294 117.5 219.294Z" fill="#008565"/>
<path d="M116.475 221.581C116.553 221.414 116.584 221.229 116.566 221.046C116.524 220.778 116.617 220.077 116.902 219.851C117.095 219.693 117.275 219.521 117.441 219.336C117.441 219.336 117.75 220.1 117.33 220.82C116.911 221.541 116.475 221.581 116.475 221.581Z" fill="#008565"/>
<path d="M121.347 213.3C121.347 213.3 121.52 212.578 122.231 212.243C122.942 211.908 123.191 211.836 123.238 211.771C123.285 211.706 123.053 212.202 122.957 212.404C122.862 212.606 122.807 212.786 122.644 212.842C122.481 212.898 121.347 213.3 121.347 213.3Z" fill="#008565"/>
<path d="M121.324 213.367C121.324 213.367 121.808 212.728 122.38 212.759C122.952 212.789 123.197 213.275 123.506 213.294C123.589 213.304 123.672 213.296 123.75 213.27C123.829 213.244 123.901 213.202 123.96 213.146C123.96 213.146 123.529 213.505 123.424 213.651C123.319 213.797 122.816 213.911 122.618 213.774C122.456 213.662 121.701 213.463 121.426 213.391L121.324 213.367Z" fill="#008565"/>
<path d="M123.168 215.055C123.049 214.922 122.896 214.822 122.725 214.764C122.47 214.688 121.88 214.334 121.787 214.007C121.693 213.68 121.333 213.364 121.333 213.364C121.333 213.364 122.341 213.406 122.82 214.041C123.299 214.677 123.168 215.055 123.168 215.055Z" fill="#008565"/>
<path d="M121.087 204.293C121.087 204.293 121.174 203.502 121.862 203.097C122.551 202.691 122.801 202.597 122.839 202.527C122.876 202.456 122.692 202.98 122.615 203.192C122.538 203.405 122.499 203.593 122.338 203.665C122.177 203.737 121.087 204.293 121.087 204.293Z" fill="#008565"/>
<path d="M120.964 204.335C120.964 204.335 121.392 203.647 121.976 203.622C122.561 203.598 122.857 204.069 123.172 204.059C123.487 204.049 123.563 203.951 123.563 203.951C123.563 203.951 123.217 204.269 123.124 204.427C123.032 204.584 122.533 204.746 122.318 204.626C122.142 204.528 121.357 204.397 121.071 204.351L120.964 204.335Z" fill="#008565"/>
<path d="M123.088 205.855C122.953 205.732 122.789 205.645 122.61 205.602C122.344 205.552 121.711 205.244 121.588 204.922C121.465 204.6 121.095 204.281 121.095 204.281C121.095 204.281 122.092 204.263 122.64 204.863C123.188 205.462 123.088 205.855 123.088 205.855Z" fill="#008565"/>
<path d="M117.637 195.75C117.637 195.75 117.47 195.032 117.938 194.469C118.407 193.907 118.589 193.749 118.603 193.676C118.617 193.602 118.616 194.116 118.615 194.326C118.614 194.535 118.638 194.708 118.522 194.823C118.405 194.939 117.637 195.75 117.637 195.75Z" fill="#008565"/>
<path d="M117.615 195.783C117.615 195.783 117.771 195.05 118.267 194.853C118.762 194.656 119.16 194.978 119.428 194.874C119.502 194.849 119.569 194.809 119.625 194.756C119.681 194.703 119.725 194.639 119.752 194.568C119.752 194.568 119.529 195.042 119.499 195.208C119.468 195.374 119.088 195.667 118.867 195.626C118.686 195.593 117.971 195.716 117.711 195.762L117.615 195.783Z" fill="#008565"/>
<path d="M119.835 196.513C119.682 196.446 119.514 196.419 119.347 196.436C119.102 196.473 118.464 196.395 118.259 196.151C118.054 195.907 117.64 195.739 117.64 195.739C117.64 195.739 118.492 195.421 119.146 195.78C119.8 196.139 119.835 196.513 119.835 196.513Z" fill="#008565"/>
<path d="M112.735 189.652C112.735 189.652 112.087 189.231 111.952 188.501C111.818 187.772 111.814 187.533 111.766 187.469C111.719 187.405 112.107 187.787 112.265 187.944C112.422 188.101 112.571 188.215 112.582 188.375C112.594 188.536 112.735 189.652 112.735 189.652Z" fill="#008565"/>
<path d="M112.746 189.691C112.746 189.691 112.289 189.042 112.449 188.567C112.61 188.092 113.1 188.064 113.189 187.809C113.215 187.737 113.227 187.661 113.222 187.585C113.217 187.509 113.197 187.435 113.161 187.368C113.161 187.368 113.381 187.868 113.487 188.011C113.592 188.155 113.577 188.623 113.408 188.743C113.272 188.838 112.918 189.406 112.791 189.614L112.746 189.691Z" fill="#008565"/>
<path d="M114.681 188.753C114.535 188.805 114.409 188.898 114.318 189.021C114.193 189.212 113.737 189.579 113.425 189.534C113.114 189.489 112.728 189.642 112.728 189.642C112.728 189.642 113.019 188.838 113.697 188.669C114.375 188.499 114.681 188.753 114.681 188.753Z" fill="#008565"/>
<path d="M104.192 188.704C104.192 188.704 103.341 189.016 102.577 188.595C101.814 188.173 101.591 187.998 101.498 187.996C101.406 187.994 102.035 187.904 102.291 187.868C102.547 187.832 102.761 187.775 102.917 187.884C103.073 187.994 104.192 188.704 104.192 188.704Z" fill="#008565"/>
<path d="M104.235 188.725C104.235 188.725 103.313 188.68 102.99 188.167C102.668 187.654 102.997 187.153 102.827 186.874C102.783 186.796 102.723 186.728 102.65 186.675C102.577 186.622 102.493 186.586 102.403 186.568C102.403 186.568 103.019 186.732 103.227 186.737C103.435 186.742 103.853 187.112 103.842 187.366C103.831 187.573 104.097 188.345 104.197 188.626L104.235 188.725Z" fill="#008565"/>
<path d="M104.766 186.13C104.709 186.31 104.704 186.503 104.751 186.686C104.836 186.951 104.844 187.673 104.579 187.943C104.314 188.213 104.176 188.708 104.176 188.708C104.176 188.708 103.65 187.817 103.981 187.026C104.313 186.235 104.766 186.13 104.766 186.13Z" fill="#008565"/>
<path d="M101.054 195.329C101.054 195.329 100.834 195.989 100.206 196.21C99.5787 196.431 99.3643 196.467 99.3181 196.516C99.272 196.565 99.5216 196.155 99.6241 195.988C99.7266 195.82 99.7931 195.667 99.9371 195.635C100.081 195.602 101.054 195.329 101.054 195.329Z" fill="#008565"/>
<path d="M101.087 195.315C101.087 195.315 100.613 195.827 100.142 195.739C99.6722 195.652 99.5251 195.199 99.2716 195.15C99.2042 195.133 99.1338 195.132 99.066 195.146C98.9981 195.161 98.9346 195.191 98.8804 195.233C98.8804 195.233 99.2786 194.962 99.3827 194.845C99.4867 194.727 99.9163 194.679 100.065 194.821C100.185 194.936 100.787 195.191 101.004 195.28L101.087 195.315Z" fill="#008565"/>
<path d="M99.756 193.633C99.8373 193.762 99.9521 193.867 100.089 193.939C100.292 194.03 100.738 194.408 100.775 194.704C100.812 195 101.045 195.34 101.045 195.34C101.045 195.34 100.246 195.175 99.9234 194.564C99.601 193.953 99.756 193.633 99.756 193.633Z" fill="#008565"/>
<path d="M101.359 202.852C101.328 203.009 101.261 203.156 101.164 203.284C101.068 203.412 100.943 203.518 100.799 203.593C100.313 203.834 100.141 203.889 100.111 203.933C100.081 203.976 100.221 203.649 100.278 203.517C100.336 203.385 100.366 203.266 100.48 203.223C100.593 203.18 101.359 202.852 101.359 202.852Z" fill="#008565"/>
<path d="M101.425 202.828C101.425 202.828 101.112 203.255 100.71 203.258C100.308 203.26 100.107 202.957 99.889 202.956C99.6707 202.955 99.6543 202.939 99.6543 202.939C99.7581 202.883 99.8518 202.81 99.9313 202.724C99.9986 202.627 100.348 202.535 100.495 202.615C100.614 202.681 101.157 202.78 101.355 202.815L101.425 202.828Z" fill="#008565"/>
<path d="M100.001 201.822C100.094 201.904 100.206 201.962 100.327 201.992C100.511 202.029 100.945 202.237 101.024 202.443C101.103 202.649 101.353 202.859 101.353 202.859C101.353 202.859 100.661 202.85 100.292 202.459C99.9235 202.068 100.001 201.822 100.001 201.822Z" fill="#008565"/>
<path d="M103.705 209.961C103.747 210.084 103.76 210.215 103.743 210.343C103.727 210.472 103.681 210.595 103.61 210.704C103.365 211.065 103.266 211.171 103.262 211.213C103.238 211.094 103.221 210.974 103.21 210.853C103.197 210.737 103.17 210.641 103.233 210.567C103.296 210.493 103.705 209.961 103.705 209.961Z" fill="#008565"/>
<path d="M103.716 209.941C103.716 209.941 103.671 210.365 103.385 210.525C103.098 210.685 102.837 210.547 102.681 210.632C102.638 210.652 102.601 210.68 102.571 210.715C102.541 210.749 102.518 210.79 102.505 210.834C102.551 210.709 102.588 210.581 102.615 210.452C102.623 210.356 102.832 210.155 102.969 210.154C103.08 210.154 103.505 210.013 103.659 209.961L103.716 209.941Z" fill="#008565"/>
<path d="M102.322 209.762C102.421 209.784 102.524 209.782 102.622 209.756C102.768 209.71 103.159 209.688 103.3 209.803C103.422 209.884 103.559 209.941 103.704 209.969C103.704 209.969 103.21 210.233 102.789 210.1C102.368 209.967 102.322 209.762 102.322 209.762Z" fill="#008565"/>
<path d="M108.253 216.391C108.328 216.498 108.378 216.619 108.4 216.747C108.421 216.875 108.413 217.006 108.376 217.13C108.244 217.544 108.179 217.673 108.188 217.714C108.129 217.607 108.077 217.496 108.031 217.382C107.984 217.275 107.932 217.19 107.97 217.102C108.009 217.013 108.253 216.391 108.253 216.391Z" fill="#008565"/>
<path d="M108.257 216.369C108.257 216.369 108.336 216.788 108.107 217.02C107.879 217.252 107.586 217.192 107.462 217.316C107.428 217.346 107.4 217.383 107.381 217.425C107.362 217.467 107.352 217.512 107.352 217.558C107.361 217.426 107.359 217.293 107.348 217.161C107.328 217.068 107.471 216.816 107.602 216.779C107.71 216.748 108.077 216.496 108.21 216.403L108.257 216.369Z" fill="#008565"/>
<path d="M106.868 216.579C106.97 216.573 107.068 216.542 107.155 216.49C107.281 216.406 107.651 216.278 107.819 216.35C107.959 216.395 108.107 216.411 108.254 216.398C108.254 216.398 107.856 216.787 107.413 216.775C106.971 216.764 106.868 216.579 106.868 216.579Z" fill="#008565"/>
</g>
<path d="M198.559 75.2183C206.557 65.9084 226.728 49.0011 243.42 55.851C264.286 64.4134 278.684 79.4994 279.936 96.4203C281.188 113.341 271.798 131.893 248.22 125.165C224.641 118.438 202.314 74.6066 225.267 68.8984C248.22 63.1901 282.023 66.6559 289.534 84.1884C297.046 101.721 288.491 150.037 274.928 166.55C261.365 183.063 235.491 213.439 203.358 219.352C171.224 225.264 149.315 229.137 120.52 226.283C91.7247 223.429 78.1618 206.304 77.9532 193.868C77.7445 181.432 99.8625 163.085 122.606 172.666C145.35 182.248 166.425 206.979 153.488 217.109C140.551 227.239 108.209 235.457 90.6814 226.283C73.154 217.109 49.784 190.606 60.4257 172.666C71.0674 154.726 96.3152 139.232 104.453 115.38" stroke="#F4473B" stroke-miterlimit="3.99933" stroke-linecap="round" stroke-dasharray="3 3"/>
<defs>
<filter id="filter0_dddddd" x="0.475586" y="40.7023" width="222.774" height="257.495" filterUnits="userSpaceOnUse" color-interpolation-filters="sRGB">
<feFlood flood-opacity="0" result="BackgroundImageFix"/>
<feColorMatrix in="SourceAlpha" type="matrix" values="0 0 0 0 0 0 0 0 0 0 0 0 0 0 0 0 0 0 127 0"/>
<feOffset dy="2.76726"/>
<feGaussianBlur stdDeviation="1.1069"/>
<feColorMatrix type="matrix" values="0 0 0 0 0.0313726 0 0 0 0 0.411765 0 0 0 0 0.270588 0 0 0 0.030926 0"/>
<feBlend mode="normal" in2="BackgroundImageFix" result="effect1_dropShadow"/>
<feColorMatrix in="SourceAlpha" type="matrix" values="0 0 0 0 0 0 0 0 0 0 0 0 0 0 0 0 0 0 127 0"/>
<feOffset dy="6.6501"/>
<feGaussianBlur stdDeviation="2.66004"/>
<feColorMatrix type="matrix" values="0 0 0 0 0.0313726 0 0 0 0 0.411765 0 0 0 0 0.270588 0 0 0 0.0444282 0"/>
<feBlend mode="normal" in2="effect1_dropShadow" result="effect2_dropShadow"/>
<feColorMatrix in="SourceAlpha" type="matrix" values="0 0 0 0 0 0 0 0 0 0 0 0 0 0 0 0 0 0 127 0"/>
<feOffset dy="12.5216"/>
<feGaussianBlur stdDeviation="5.00862"/>
<feColorMatrix type="matrix" values="0 0 0 0 0.0313726 0 0 0 0 0.411765 0 0 0 0 0.270588 0 0 0 0.055 0"/>
<feBlend mode="normal" in2="effect2_dropShadow" result="effect3_dropShadow"/>
<feColorMatrix in="SourceAlpha" type="matrix" values="0 0 0 0 0 0 0 0 0 0 0 0 0 0 0 0 0 0 127 0"/>
<feOffset dy="22.3363"/>
<feGaussianBlur stdDeviation="8.93452"/>
<feColorMatrix type="matrix" values="0 0 0 0 0.0313726 0 0 0 0 0.411765 0 0 0 0 0.270588 0 0 0 0.0655718 0"/>
<feBlend mode="normal" in2="effect3_dropShadow" result="effect4_dropShadow"/>
<feColorMatrix in="SourceAlpha" type="matrix" values="0 0 0 0 0 0 0 0 0 0 0 0 0 0 0 0 0 0 127 0"/>
<feOffset dy="41.7776"/>
<feGaussianBlur stdDeviation="16.711"/>
<feColorMatrix type="matrix" values="0 0 0 0 0.0313726 0 0 0 0 0.411765 0 0 0 0 0.270588 0 0 0 0.079074 0"/>
<feBlend mode="normal" in2="effect4_dropShadow" result="effect5_dropShadow"/>
<feColorMatrix in="SourceAlpha" type="matrix" values="0 0 0 0 0 0 0 0 0 0 0 0 0 0 0 0 0 0 127 0"/>
<feOffset dy="100"/>
<feGaussianBlur stdDeviation="40"/>
<feColorMatrix type="matrix" values="0 0 0 0 0.0313726 0 0 0 0 0.411765 0 0 0 0 0.270588 0 0 0 0.11 0"/>
<feBlend mode="normal" in2="effect5_dropShadow" result="effect6_dropShadow"/>
<feBlend mode="normal" in="SourceGraphic" in2="effect6_dropShadow" result="shape"/>
</filter>
<filter id="filter1_dddddd" x="61.8018" y="68.4907" width="244.596" height="294.1" filterUnits="userSpaceOnUse" color-interpolation-filters="sRGB">
<feFlood flood-opacity="0" result="BackgroundImageFix"/>
<feColorMatrix in="SourceAlpha" type="matrix" values="0 0 0 0 0 0 0 0 0 0 0 0 0 0 0 0 0 0 127 0"/>
<feOffset dy="2.76726"/>
<feGaussianBlur stdDeviation="1.1069"/>
<feColorMatrix type="matrix" values="0 0 0 0 0.0313726 0 0 0 0 0.411765 0 0 0 0 0.270588 0 0 0 0.030926 0"/>
<feBlend mode="normal" in2="BackgroundImageFix" result="effect1_dropShadow"/>
<feColorMatrix in="SourceAlpha" type="matrix" values="0 0 0 0 0 0 0 0 0 0 0 0 0 0 0 0 0 0 127 0"/>
<feOffset dy="6.6501"/>
<feGaussianBlur stdDeviation="2.66004"/>
<feColorMatrix type="matrix" values="0 0 0 0 0.0313726 0 0 0 0 0.411765 0 0 0 0 0.270588 0 0 0 0.0444282 0"/>
<feBlend mode="normal" in2="effect1_dropShadow" result="effect2_dropShadow"/>
<feColorMatrix in="SourceAlpha" type="matrix" values="0 0 0 0 0 0 0 0 0 0 0 0 0 0 0 0 0 0 127 0"/>
<feOffset dy="12.5216"/>
<feGaussianBlur stdDeviation="5.00862"/>
<feColorMatrix type="matrix" values="0 0 0 0 0.0313726 0 0 0 0 0.411765 0 0 0 0 0.270588 0 0 0 0.055 0"/>
<feBlend mode="normal" in2="effect2_dropShadow" result="effect3_dropShadow"/>
<feColorMatrix in="SourceAlpha" type="matrix" values="0 0 0 0 0 0 0 0 0 0 0 0 0 0 0 0 0 0 127 0"/>
<feOffset dy="22.3363"/>
<feGaussianBlur stdDeviation="8.93452"/>
<feColorMatrix type="matrix" values="0 0 0 0 0.0313726 0 0 0 0 0.411765 0 0 0 0 0.270588 0 0 0 0.0655718 0"/>
<feBlend mode="normal" in2="effect3_dropShadow" result="effect4_dropShadow"/>
<feColorMatrix in="SourceAlpha" type="matrix" values="0 0 0 0 0 0 0 0 0 0 0 0 0 0 0 0 0 0 127 0"/>
<feOffset dy="41.7776"/>
<feGaussianBlur stdDeviation="16.711"/>
<feColorMatrix type="matrix" values="0 0 0 0 0.0313726 0 0 0 0 0.411765 0 0 0 0 0.270588 0 0 0 0.079074 0"/>
<feBlend mode="normal" in2="effect4_dropShadow" result="effect5_dropShadow"/>
<feColorMatrix in="SourceAlpha" type="matrix" values="0 0 0 0 0 0 0 0 0 0 0 0 0 0 0 0 0 0 127 0"/>
<feOffset dy="100"/>
<feGaussianBlur stdDeviation="40"/>
<feColorMatrix type="matrix" values="0 0 0 0 0.0313726 0 0 0 0 0.411765 0 0 0 0 0.270588 0 0 0 0.11 0"/>
<feBlend mode="normal" in2="effect5_dropShadow" result="effect6_dropShadow"/>
<feBlend mode="normal" in="SourceGraphic" in2="effect6_dropShadow" result="shape"/>
</filter>
<filter id="filter2_dddddd" x="152.283" y="72.46" width="198.202" height="212.076" filterUnits="userSpaceOnUse" color-interpolation-filters="sRGB">
<feFlood flood-opacity="0" result="BackgroundImageFix"/>
<feColorMatrix in="SourceAlpha" type="matrix" values="0 0 0 0 0 0 0 0 0 0 0 0 0 0 0 0 0 0 127 0"/>
<feOffset dy="2.76726"/>
<feGaussianBlur stdDeviation="1.1069"/>
<feColorMatrix type="matrix" values="0 0 0 0 0.0313726 0 0 0 0 0.411765 0 0 0 0 0.270588 0 0 0 0.030926 0"/>
<feBlend mode="normal" in2="BackgroundImageFix" result="effect1_dropShadow"/>
<feColorMatrix in="SourceAlpha" type="matrix" values="0 0 0 0 0 0 0 0 0 0 0 0 0 0 0 0 0 0 127 0"/>
<feOffset dy="6.6501"/>
<feGaussianBlur stdDeviation="2.66004"/>
<feColorMatrix type="matrix" values="0 0 0 0 0.0313726 0 0 0 0 0.411765 0 0 0 0 0.270588 0 0 0 0.0444282 0"/>
<feBlend mode="normal" in2="effect1_dropShadow" result="effect2_dropShadow"/>
<feColorMatrix in="SourceAlpha" type="matrix" values="0 0 0 0 0 0 0 0 0 0 0 0 0 0 0 0 0 0 127 0"/>
<feOffset dy="12.5216"/>
<feGaussianBlur stdDeviation="5.00862"/>
<feColorMatrix type="matrix" values="0 0 0 0 0.0313726 0 0 0 0 0.411765 0 0 0 0 0.270588 0 0 0 0.055 0"/>
<feBlend mode="normal" in2="effect2_dropShadow" result="effect3_dropShadow"/>
<feColorMatrix in="SourceAlpha" type="matrix" values="0 0 0 0 0 0 0 0 0 0 0 0 0 0 0 0 0 0 127 0"/>
<feOffset dy="22.3363"/>
<feGaussianBlur stdDeviation="8.93452"/>
<feColorMatrix type="matrix" values="0 0 0 0 0.0313726 0 0 0 0 0.411765 0 0 0 0 0.270588 0 0 0 0.0655718 0"/>
<feBlend mode="normal" in2="effect3_dropShadow" result="effect4_dropShadow"/>
<feColorMatrix in="SourceAlpha" type="matrix" values="0 0 0 0 0 0 0 0 0 0 0 0 0 0 0 0 0 0 127 0"/>
<feOffset dy="41.7776"/>
<feGaussianBlur stdDeviation="16.711"/>
<feColorMatrix type="matrix" values="0 0 0 0 0.0313726 0 0 0 0 0.411765 0 0 0 0 0.270588 0 0 0 0.079074 0"/>
<feBlend mode="normal" in2="effect4_dropShadow" result="effect5_dropShadow"/>
<feColorMatrix in="SourceAlpha" type="matrix" values="0 0 0 0 0 0 0 0 0 0 0 0 0 0 0 0 0 0 127 0"/>
<feOffset dy="100"/>
<feGaussianBlur stdDeviation="40"/>
<feColorMatrix type="matrix" values="0 0 0 0 0.0313726 0 0 0 0 0.411765 0 0 0 0 0.270588 0 0 0 0.11 0"/>
<feBlend mode="normal" in2="effect5_dropShadow" result="effect6_dropShadow"/>
<feBlend mode="normal" in="SourceGraphic" in2="effect6_dropShadow" result="shape"/>
</filter>
<filter id="filter3_dddddd" x="18.8184" y="183.471" width="188.378" height="218.735" filterUnits="userSpaceOnUse" color-interpolation-filters="sRGB">
<feFlood flood-opacity="0" result="BackgroundImageFix"/>
<feColorMatrix in="SourceAlpha" type="matrix" values="0 0 0 0 0 0 0 0 0 0 0 0 0 0 0 0 0 0 127 0"/>
<feOffset dy="2.76726"/>
<feGaussianBlur stdDeviation="1.1069"/>
<feColorMatrix type="matrix" values="0 0 0 0 0.0313726 0 0 0 0 0.411765 0 0 0 0 0.270588 0 0 0 0.030926 0"/>
<feBlend mode="normal" in2="BackgroundImageFix" result="effect1_dropShadow"/>
<feColorMatrix in="SourceAlpha" type="matrix" values="0 0 0 0 0 0 0 0 0 0 0 0 0 0 0 0 0 0 127 0"/>
<feOffset dy="6.6501"/>
<feGaussianBlur stdDeviation="2.66004"/>
<feColorMatrix type="matrix" values="0 0 0 0 0.0313726 0 0 0 0 0.411765 0 0 0 0 0.270588 0 0 0 0.0444282 0"/>
<feBlend mode="normal" in2="effect1_dropShadow" result="effect2_dropShadow"/>
<feColorMatrix in="SourceAlpha" type="matrix" values="0 0 0 0 0 0 0 0 0 0 0 0 0 0 0 0 0 0 127 0"/>
<feOffset dy="12.5216"/>
<feGaussianBlur stdDeviation="5.00862"/>
<feColorMatrix type="matrix" values="0 0 0 0 0.0313726 0 0 0 0 0.411765 0 0 0 0 0.270588 0 0 0 0.055 0"/>
<feBlend mode="normal" in2="effect2_dropShadow" result="effect3_dropShadow"/>
<feColorMatrix in="SourceAlpha" type="matrix" values="0 0 0 0 0 0 0 0 0 0 0 0 0 0 0 0 0 0 127 0"/>
<feOffset dy="22.3363"/>
<feGaussianBlur stdDeviation="8.93452"/>
<feColorMatrix type="matrix" values="0 0 0 0 0.0313726 0 0 0 0 0.411765 0 0 0 0 0.270588 0 0 0 0.0655718 0"/>
<feBlend mode="normal" in2="effect3_dropShadow" result="effect4_dropShadow"/>
<feColorMatrix in="SourceAlpha" type="matrix" values="0 0 0 0 0 0 0 0 0 0 0 0 0 0 0 0 0 0 127 0"/>
<feOffset dy="41.7776"/>
<feGaussianBlur stdDeviation="16.711"/>
<feColorMatrix type="matrix" values="0 0 0 0 0.0313726 0 0 0 0 0.411765 0 0 0 0 0.270588 0 0 0 0.079074 0"/>
<feBlend mode="normal" in2="effect4_dropShadow" result="effect5_dropShadow"/>
<feColorMatrix in="SourceAlpha" type="matrix" values="0 0 0 0 0 0 0 0 0 0 0 0 0 0 0 0 0 0 127 0"/>
<feOffset dy="100"/>
<feGaussianBlur stdDeviation="40"/>
<feColorMatrix type="matrix" values="0 0 0 0 0.0313726 0 0 0 0 0.411765 0 0 0 0 0.270588 0 0 0 0.11 0"/>
<feBlend mode="normal" in2="effect5_dropShadow" result="effect6_dropShadow"/>
<feBlend mode="normal" in="SourceGraphic" in2="effect6_dropShadow" result="shape"/>
</filter>
<linearGradient id="paint0_linear" x1="112.097" y1="71.2296" x2="131.51" y2="79.8762" gradientUnits="userSpaceOnUse">
<stop stop-color="#7AFFDF"/>
<stop offset="1" stop-color="white" stop-opacity="0"/>
</linearGradient>
<linearGradient id="paint1_linear" x1="124.47" y1="69.8947" x2="111.982" y2="99.6364" gradientUnits="userSpaceOnUse">
<stop stop-color="#7AFFDF"/>
<stop offset="1" stop-color="white" stop-opacity="0"/>
</linearGradient>
<linearGradient id="paint2_linear" x1="129.094" y1="79.5096" x2="120.448" y2="78.1173" gradientUnits="userSpaceOnUse">
<stop stop-color="white" stop-opacity="0"/>
<stop offset="1" stop-color="white"/>
</linearGradient>
<linearGradient id="paint3_linear" x1="225.39" y1="166.289" x2="144.314" y2="166.289" gradientUnits="userSpaceOnUse">
<stop stop-color="#ECFFFA"/>
<stop offset="1" stop-color="white" stop-opacity="0"/>
</linearGradient>
<linearGradient id="paint4_linear" x1="179.152" y1="89.0812" x2="189.371" y2="115.948" gradientUnits="userSpaceOnUse">
<stop stop-color="#85FFE2"/>
<stop offset="1" stop-color="white" stop-opacity="0"/>
</linearGradient>
<linearGradient id="paint5_linear" x1="163.2" y1="129.384" x2="215.272" y2="129.384" gradientUnits="userSpaceOnUse">
<stop stop-color="#ECFFFA"/>
<stop offset="1" stop-color="white" stop-opacity="0"/>
</linearGradient>
<linearGradient id="paint6_linear" x1="164.819" y1="99.5963" x2="205.29" y2="99.5963" gradientUnits="userSpaceOnUse">
<stop stop-color="#FF968E"/>
<stop offset="1" stop-color="white" stop-opacity="0"/>
</linearGradient>
<linearGradient id="paint7_linear" x1="182.891" y1="148.047" x2="182.891" y2="151.58" gradientUnits="userSpaceOnUse">
<stop stop-color="#D1FFF4"/>
<stop offset="1" stop-color="white" stop-opacity="0"/>
</linearGradient>
<linearGradient id="paint8_linear" x1="250.851" y1="75.9751" x2="262.665" y2="99.885" gradientUnits="userSpaceOnUse">
<stop stop-color="#D1FFF4"/>
<stop offset="1" stop-color="white" stop-opacity="0"/>
</linearGradient>
<linearGradient id="paint9_linear" x1="253.184" y1="91.9168" x2="256.791" y2="99.2057" gradientUnits="userSpaceOnUse">
<stop stop-color="white"/>
<stop offset="1" stop-color="white" stop-opacity="0"/>
</linearGradient>
<linearGradient id="paint10_linear" x1="241.877" y1="78.8161" x2="258.876" y2="99.4427" gradientUnits="userSpaceOnUse">
<stop stop-color="#D1FFF4"/>
<stop offset="1" stop-color="white" stop-opacity="0"/>
</linearGradient>
<linearGradient id="paint11_linear" x1="247.85" y1="93.7998" x2="253.041" y2="100.101" gradientUnits="userSpaceOnUse">
<stop stop-color="white"/>
<stop offset="1" stop-color="white" stop-opacity="0"/>
</linearGradient>
<linearGradient id="paint12_linear" x1="236.785" y1="83.2711" x2="258.924" y2="98.3312" gradientUnits="userSpaceOnUse">
<stop stop-color="#D1FFF4"/>
<stop offset="1" stop-color="white" stop-opacity="0"/>
</linearGradient>
<linearGradient id="paint13_linear" x1="246.779" y1="95.9812" x2="253.564" y2="100.593" gradientUnits="userSpaceOnUse">
<stop stop-color="white"/>
<stop offset="1" stop-color="white" stop-opacity="0"/>
</linearGradient>
<linearGradient id="paint14_linear" x1="95.602" y1="200.992" x2="128.843" y2="207.468" gradientUnits="userSpaceOnUse">
<stop stop-color="#00AC83"/>
<stop offset="1" stop-color="#007357"/>
</linearGradient>
<linearGradient id="paint15_linear" x1="102.646" y1="202.735" x2="118.746" y2="205.398" gradientUnits="userSpaceOnUse">
<stop stop-color="#7AFFDF"/>
<stop offset="0.53" stop-color="#00FFC2"/>
<stop offset="1" stop-color="#7AFFDF"/>
</linearGradient>
<linearGradient id="paint16_linear" x1="102.774" y1="201.965" x2="119.716" y2="204.768" gradientUnits="userSpaceOnUse">
<stop stop-color="#00AC83"/>
<stop offset="1" stop-color="#007357"/>
</linearGradient>
<linearGradient id="paint17_linear" x1="105.791" y1="190.848" x2="108.066" y2="191.885" gradientUnits="userSpaceOnUse">
<stop stop-color="#007357"/>
<stop offset="1" stop-color="#00AC83"/>
</linearGradient>
<linearGradient id="paint18_linear" x1="90.7842" y1="1627.13" x2="113.555" y2="1630.89" gradientUnits="userSpaceOnUse">
<stop stop-color="#00785B"/>
<stop offset="1" stop-color="#1C2152"/>
</linearGradient>
<linearGradient id="paint19_linear" x1="139.361" y1="1677.76" x2="162.117" y2="1681.52" gradientUnits="userSpaceOnUse">
<stop stop-color="#00785B"/>
<stop offset="1" stop-color="#1C2152"/>
</linearGradient>
<linearGradient id="paint20_linear" x1="104.672" y1="207.095" x2="106.224" y2="207.479" gradientUnits="userSpaceOnUse">
<stop stop-color="#00AC83"/>
<stop offset="1" stop-color="#007357"/>
</linearGradient>
<linearGradient id="paint21_linear" x1="56.2769" y1="2331.53" x2="81.9866" y2="2335.78" gradientUnits="userSpaceOnUse">
<stop stop-color="#007357"/>
<stop offset="1" stop-color="#1C2152"/>
</linearGradient>
<linearGradient id="paint22_linear" x1="107.037" y1="200.181" x2="114.715" y2="201.998" gradientUnits="userSpaceOnUse">
<stop stop-color="#00AC83"/>
<stop offset="1" stop-color="#007357"/>
</linearGradient>
<linearGradient id="paint23_linear" x1="107.344" y1="207.844" x2="115.353" y2="209.799" gradientUnits="userSpaceOnUse">
<stop stop-color="#00AC83"/>
<stop offset="1" stop-color="#007357"/>
</linearGradient>
<linearGradient id="paint24_linear" x1="101.531" y1="2423.97" x2="127.818" y2="2428.32" gradientUnits="userSpaceOnUse">
<stop stop-color="#007357"/>
<stop offset="1" stop-color="#1C2152"/>
</linearGradient>
</defs>
</svg>
