<svg width="46" height="52" viewBox="0 0 46 52" fill="none" xmlns="http://www.w3.org/2000/svg">
<path d="M27.075 14.2691V20.5723H18.6919V14.2994C19.0336 14.0296 19.5759 13.7862 20.2769 13.6029C21.0733 13.3946 22.0146 13.2793 22.9576 13.2693C23.9015 13.2593 24.8266 13.355 25.5929 13.5561C26.2798 13.7365 26.781 13.9863 27.075 14.2691Z" fill="#2BFFCC"/>
<path d="M27.075 14.2691V20.5723H18.6919V14.2994C19.0336 14.0296 19.5759 13.7862 20.2769 13.6029C21.0733 13.3946 22.0146 13.2793 22.9576 13.2693C23.9015 13.2593 24.8266 13.355 25.5929 13.5561C26.2798 13.7365 26.781 13.9863 27.075 14.2691Z" fill="url(#paint0_linear)"/>
<path d="M27.075 14.2691V20.5723H18.6919V14.2994C19.0336 14.0296 19.5759 13.7862 20.2769 13.6029C21.0733 13.3946 22.0146 13.2793 22.9576 13.2693C23.9015 13.2593 24.8266 13.355 25.5929 13.5561C26.2798 13.7365 26.781 13.9863 27.075 14.2691Z" stroke="#082F25"/>
<path d="M18.6954 25.9877L18.7045 26.6021C18.7123 27.1385 18.7232 27.9041 18.7352 28.8211C18.7593 30.655 18.7882 33.095 18.8074 35.5186C18.8267 37.9416 18.8363 40.3507 18.8219 42.1219C18.8146 43.0063 18.8014 43.7374 18.7799 44.2329C18.7693 44.4772 18.7562 44.6791 18.7386 44.8163C18.7318 44.8701 18.7184 44.9678 18.6845 45.0543C18.6747 45.0794 18.6549 45.1254 18.6195 45.175C18.5893 45.2173 18.5065 45.3209 18.3526 45.3681C18.1661 45.4254 18.002 45.3643 17.903 45.2916C17.8205 45.231 17.7766 45.1604 17.7592 45.1304C16.9261 43.6915 16.2919 41.6953 15.8687 40.0909C15.6555 39.2825 15.4928 38.5616 15.3834 38.0427C15.3287 37.7831 15.2872 37.5737 15.2593 37.4287C15.2534 37.3978 15.2481 37.3698 15.2434 37.3449C10.8052 32.4539 7.54327 25.5688 7.54315 18.0621C7.54315 18.062 7.54315 18.0618 7.54315 18.0617L18.6954 25.9877ZM18.6954 25.9877C19.0373 25.7187 19.5783 25.4762 20.2769 25.2934C21.0733 25.085 22.0146 24.9696 22.9577 24.9596C23.9015 24.9495 24.8266 25.0452 25.5928 25.2465C26.2789 25.4267 26.7798 25.6764 27.0739 25.9589L27.0738 25.9803L27.0704 26.5929C27.0675 27.1205 27.0636 27.8741 27.0592 28.7777C27.0503 30.585 27.0398 32.9928 27.0327 35.3945C27.0257 37.7961 27.0222 40.1926 27.0275 41.9769C27.0301 42.8687 27.0349 43.6094 27.0427 44.1219C27.0466 44.3773 27.0512 44.5802 27.0568 44.7177C27.0596 44.7842 27.0629 44.8455 27.0676 44.892L27.0676 44.8927C27.0693 44.9088 27.0738 44.9538 27.086 45.0009C27.0897 45.015 27.097 45.0408 27.1097 45.0714C27.1181 45.0915 27.1493 45.1657 27.221 45.2365C27.2601 45.2714 27.3644 45.3357 27.4305 45.3605C27.5123 45.3776 27.6758 45.3707 27.7534 45.3478C27.9187 45.2841 27.9924 45.1568 28.0072 45.1312L28.0076 45.1305C28.8402 43.6934 29.4745 41.6997 29.8979 40.0974C30.1112 39.29 30.274 38.57 30.3836 38.0518C30.4384 37.7925 30.4799 37.5833 30.5078 37.4385C30.5138 37.4077 30.5191 37.3798 30.5238 37.355C34.9672 32.4625 38.224 25.5733 38.2248 18.0619L18.6954 25.9877ZM18.4146 49.7156L18.4144 49.7154C7.90922 44.4957 0.5 31.9047 0.5 18.0617C0.5 14.1489 1.09465 9.61928 2.1725 6.12438C8.45162 2.44208 15.6002 0.5 22.8817 0.5C30.1632 0.5 37.3116 2.44206 43.5908 6.12432C44.6673 9.61966 45.2666 14.1494 45.2669 18.0617C45.2669 31.904 37.8556 44.4953 27.3525 49.7144L27.3521 49.7146C25.9156 50.4298 24.4202 51.0201 22.8825 51.4786C21.3455 51.0197 19.8507 50.4301 18.4146 49.7156Z" fill="#2BFFCC"/>
<path d="M18.6954 25.9877L18.7045 26.6021C18.7123 27.1385 18.7232 27.9041 18.7352 28.8211C18.7593 30.655 18.7882 33.095 18.8074 35.5186C18.8267 37.9416 18.8363 40.3507 18.8219 42.1219C18.8146 43.0063 18.8014 43.7374 18.7799 44.2329C18.7693 44.4772 18.7562 44.6791 18.7386 44.8163C18.7318 44.8701 18.7184 44.9678 18.6845 45.0543C18.6747 45.0794 18.6549 45.1254 18.6195 45.175C18.5893 45.2173 18.5065 45.3209 18.3526 45.3681C18.1661 45.4254 18.002 45.3643 17.903 45.2916C17.8205 45.231 17.7766 45.1604 17.7592 45.1304C16.9261 43.6915 16.2919 41.6953 15.8687 40.0909C15.6555 39.2825 15.4928 38.5616 15.3834 38.0427C15.3287 37.7831 15.2872 37.5737 15.2593 37.4287C15.2534 37.3978 15.2481 37.3698 15.2434 37.3449C10.8052 32.4539 7.54327 25.5688 7.54315 18.0621C7.54315 18.062 7.54315 18.0618 7.54315 18.0617L18.6954 25.9877ZM18.6954 25.9877C19.0373 25.7187 19.5783 25.4762 20.2769 25.2934C21.0733 25.085 22.0146 24.9696 22.9577 24.9596C23.9015 24.9495 24.8266 25.0452 25.5928 25.2465C26.2789 25.4267 26.7798 25.6764 27.0739 25.9589L27.0738 25.9803L27.0704 26.5929C27.0675 27.1205 27.0636 27.8741 27.0592 28.7777C27.0503 30.585 27.0398 32.9928 27.0327 35.3945C27.0257 37.7961 27.0222 40.1926 27.0275 41.9769C27.0301 42.8687 27.0349 43.6094 27.0427 44.1219C27.0466 44.3773 27.0512 44.5802 27.0568 44.7177C27.0596 44.7842 27.0629 44.8455 27.0676 44.892L27.0676 44.8927C27.0693 44.9088 27.0738 44.9538 27.086 45.0009C27.0897 45.015 27.097 45.0408 27.1097 45.0714C27.1181 45.0915 27.1493 45.1657 27.221 45.2365C27.2601 45.2714 27.3644 45.3357 27.4305 45.3605C27.5123 45.3776 27.6758 45.3707 27.7534 45.3478C27.9187 45.2841 27.9924 45.1568 28.0072 45.1312L28.0076 45.1305C28.8402 43.6934 29.4745 41.6997 29.8979 40.0974C30.1112 39.29 30.274 38.57 30.3836 38.0518C30.4384 37.7925 30.4799 37.5833 30.5078 37.4385C30.5138 37.4077 30.5191 37.3798 30.5238 37.355C34.9672 32.4625 38.224 25.5733 38.2248 18.0619L18.6954 25.9877ZM18.4146 49.7156L18.4144 49.7154C7.90922 44.4957 0.5 31.9047 0.5 18.0617C0.5 14.1489 1.09465 9.61928 2.1725 6.12438C8.45162 2.44208 15.6002 0.5 22.8817 0.5C30.1632 0.5 37.3116 2.44206 43.5908 6.12432C44.6673 9.61966 45.2666 14.1494 45.2669 18.0617C45.2669 31.904 37.8556 44.4953 27.3525 49.7144L27.3521 49.7146C25.9156 50.4298 24.4202 51.0201 22.8825 51.4786C21.3455 51.0197 19.8507 50.4301 18.4146 49.7156Z" fill="url(#paint1_linear)"/>
<path d="M18.6954 25.9877L18.7045 26.6021C18.7123 27.1385 18.7232 27.9041 18.7352 28.8211C18.7593 30.655 18.7882 33.095 18.8074 35.5186C18.8267 37.9416 18.8363 40.3507 18.8219 42.1219C18.8146 43.0063 18.8014 43.7374 18.7799 44.2329C18.7693 44.4772 18.7562 44.6791 18.7386 44.8163C18.7318 44.8701 18.7184 44.9678 18.6845 45.0543C18.6747 45.0794 18.6549 45.1254 18.6195 45.175C18.5893 45.2173 18.5065 45.3209 18.3526 45.3681C18.1661 45.4254 18.002 45.3643 17.903 45.2916C17.8205 45.231 17.7766 45.1604 17.7592 45.1304C16.9261 43.6915 16.2919 41.6953 15.8687 40.0909C15.6555 39.2825 15.4928 38.5616 15.3834 38.0427C15.3287 37.7831 15.2872 37.5737 15.2593 37.4287C15.2534 37.3978 15.2481 37.3698 15.2434 37.3449C10.8052 32.4539 7.54327 25.5688 7.54315 18.0621C7.54315 18.062 7.54315 18.0618 7.54315 18.0617L18.6954 25.9877ZM18.6954 25.9877C19.0373 25.7187 19.5783 25.4762 20.2769 25.2934C21.0733 25.085 22.0146 24.9696 22.9577 24.9596C23.9015 24.9495 24.8266 25.0452 25.5928 25.2465C26.2789 25.4267 26.7798 25.6764 27.0739 25.9589L27.0738 25.9803L27.0704 26.5929C27.0675 27.1205 27.0636 27.8741 27.0592 28.7777C27.0503 30.585 27.0398 32.9928 27.0327 35.3945C27.0257 37.7961 27.0222 40.1926 27.0275 41.9769C27.0301 42.8687 27.0349 43.6094 27.0427 44.1219C27.0466 44.3773 27.0512 44.5802 27.0568 44.7177C27.0596 44.7842 27.0629 44.8455 27.0676 44.892L27.0676 44.8927C27.0693 44.9088 27.0738 44.9538 27.086 45.0009C27.0897 45.015 27.097 45.0408 27.1097 45.0714C27.1181 45.0915 27.1493 45.1657 27.221 45.2365C27.2601 45.2714 27.3644 45.3357 27.4305 45.3605C27.5123 45.3776 27.6758 45.3707 27.7534 45.3478C27.9187 45.2841 27.9924 45.1568 28.0072 45.1312L28.0076 45.1305C28.8402 43.6934 29.4745 41.6997 29.8979 40.0974C30.1112 39.29 30.274 38.57 30.3836 38.0518C30.4384 37.7925 30.4799 37.5833 30.5078 37.4385C30.5138 37.4077 30.5191 37.3798 30.5238 37.355C34.9672 32.4625 38.224 25.5733 38.2248 18.0619L18.6954 25.9877ZM18.4146 49.7156L18.4144 49.7154C7.90922 44.4957 0.5 31.9047 0.5 18.0617C0.5 14.1489 1.09465 9.61928 2.1725 6.12438C8.45162 2.44208 15.6002 0.5 22.8817 0.5C30.1632 0.5 37.3116 2.44206 43.5908 6.12432C44.6673 9.61966 45.2666 14.1494 45.2669 18.0617C45.2669 31.904 37.8556 44.4953 27.3525 49.7144L27.3521 49.7146C25.9156 50.4298 24.4202 51.0201 22.8825 51.4786C21.3455 51.0197 19.8507 50.4301 18.4146 49.7156Z" stroke="#082F25"/>
<defs>
<linearGradient id="paint0_linear" x1="22.8834" y1="12.7686" x2="22.8834" y2="21.0723" gradientUnits="userSpaceOnUse">
<stop stop-color="#D1FFF4"/>
<stop offset="1" stop-color="white" stop-opacity="0"/>
</linearGradient>
<linearGradient id="paint1_linear" x1="22.8834" y1="0" x2="22.8834" y2="52" gradientUnits="userSpaceOnUse">
<stop stop-color="#D1FFF4"/>
<stop offset="1" stop-color="white" stop-opacity="0"/>
</linearGradient>
</defs>
</svg>
