<svg width="46" height="52" viewBox="0 0 46 52" fill="none" xmlns="http://www.w3.org/2000/svg">
<path d="M27.075 14.2691V20.5723H18.6919V14.2994C19.0336 14.0296 19.5759 13.7862 20.2769 13.6029C21.0733 13.3946 22.0146 13.2793 22.9576 13.2693C23.9015 13.2593 24.8266 13.355 25.5929 13.5561C26.2798 13.7365 26.781 13.9863 27.075 14.2691Z" fill="#2BFFCC"/>
<path d="M27.075 14.2691V20.5723H18.6919V14.2994C19.0336 14.0296 19.5759 13.7862 20.2769 13.6029C21.0733 13.3946 22.0146 13.2793 22.9576 13.2693C23.9015 13.2593 24.8266 13.355 25.5929 13.5561C26.2798 13.7365 26.781 13.9863 27.075 14.2691Z" fill="url(#paint0_linear)"/>
<path d="M27.075 14.2691V20.5723H18.6919V14.2994C19.0336 14.0296 19.5759 13.7862 20.2769 13.6029C21.0733 13.3946 22.0146 13.2793 22.9576 13.2693C23.9015 13.2593 24.8266 13.355 25.5929 13.5561C26.2798 13.7365 26.781 13.9863 27.075 14.2691Z" stroke="#082F25"/>
<path d="M30.501 37.38L28.0512 45.0323L27.075 44.8798V25.96C26.781 25.677 26.2798 25.4269 25.5928 25.2465C24.8266 25.0452 23.9015 24.9495 22.9577 24.9596C22.0146 24.9696 21.0733 25.085 20.2769 25.2934C19.576 25.4768 19.0336 25.7204 18.6919 25.9904V44.8798L17.7157 45.0321L15.2661 37.37C10.8163 32.4774 7.54327 25.5816 7.54315 18.0621C7.54315 18.062 7.54315 18.0618 7.54315 18.0617H8.04315L30.501 37.38ZM30.501 37.38C34.956 32.486 38.224 25.5861 38.2248 18.0619L30.501 37.38ZM18.4146 49.7156L18.4144 49.7154C7.90922 44.4957 0.5 31.9047 0.5 18.0617C0.5 14.1489 1.09465 9.61928 2.1725 6.12438C8.45161 2.44208 15.6002 0.5 22.8817 0.5C30.1632 0.5 37.3116 2.44206 43.5908 6.12432C44.6673 9.61966 45.2666 14.1494 45.2669 18.0617C45.2669 31.904 37.8556 44.4953 27.3525 49.7144L27.3521 49.7146C25.9156 50.4298 24.4202 51.0201 22.8825 51.4786C21.3455 51.0197 19.8507 50.4301 18.4146 49.7156Z" fill="#2BFFCC"/>
<path d="M30.501 37.38L28.0512 45.0323L27.075 44.8798V25.96C26.781 25.677 26.2798 25.4269 25.5928 25.2465C24.8266 25.0452 23.9015 24.9495 22.9577 24.9596C22.0146 24.9696 21.0733 25.085 20.2769 25.2934C19.576 25.4768 19.0336 25.7204 18.6919 25.9904V44.8798L17.7157 45.0321L15.2661 37.37C10.8163 32.4774 7.54327 25.5816 7.54315 18.0621C7.54315 18.062 7.54315 18.0618 7.54315 18.0617H8.04315L30.501 37.38ZM30.501 37.38C34.956 32.486 38.224 25.5861 38.2248 18.0619L30.501 37.38ZM18.4146 49.7156L18.4144 49.7154C7.90922 44.4957 0.5 31.9047 0.5 18.0617C0.5 14.1489 1.09465 9.61928 2.1725 6.12438C8.45161 2.44208 15.6002 0.5 22.8817 0.5C30.1632 0.5 37.3116 2.44206 43.5908 6.12432C44.6673 9.61966 45.2666 14.1494 45.2669 18.0617C45.2669 31.904 37.8556 44.4953 27.3525 49.7144L27.3521 49.7146C25.9156 50.4298 24.4202 51.0201 22.8825 51.4786C21.3455 51.0197 19.8507 50.4301 18.4146 49.7156Z" fill="url(#paint1_linear)"/>
<path d="M30.501 37.38L28.0512 45.0323L27.075 44.8798V25.96C26.781 25.677 26.2798 25.4269 25.5928 25.2465C24.8266 25.0452 23.9015 24.9495 22.9577 24.9596C22.0146 24.9696 21.0733 25.085 20.2769 25.2934C19.576 25.4768 19.0336 25.7204 18.6919 25.9904V44.8798L17.7157 45.0321L15.2661 37.37C10.8163 32.4774 7.54327 25.5816 7.54315 18.0621C7.54315 18.062 7.54315 18.0618 7.54315 18.0617H8.04315L30.501 37.38ZM30.501 37.38C34.956 32.486 38.224 25.5861 38.2248 18.0619L30.501 37.38ZM18.4146 49.7156L18.4144 49.7154C7.90922 44.4957 0.5 31.9047 0.5 18.0617C0.5 14.1489 1.09465 9.61928 2.1725 6.12438C8.45161 2.44208 15.6002 0.5 22.8817 0.5C30.1632 0.5 37.3116 2.44206 43.5908 6.12432C44.6673 9.61966 45.2666 14.1494 45.2669 18.0617C45.2669 31.904 37.8556 44.4953 27.3525 49.7144L27.3521 49.7146C25.9156 50.4298 24.4202 51.0201 22.8825 51.4786C21.3455 51.0197 19.8507 50.4301 18.4146 49.7156Z" stroke="#082F25"/>
<defs>
<linearGradient id="paint0_linear" x1="22.8834" y1="12.7686" x2="22.8834" y2="21.0723" gradientUnits="userSpaceOnUse">
<stop stop-color="#D1FFF4"/>
<stop offset="1" stop-color="white" stop-opacity="0"/>
</linearGradient>
<linearGradient id="paint1_linear" x1="22.8834" y1="0" x2="22.8834" y2="52" gradientUnits="userSpaceOnUse">
<stop stop-color="#D1FFF4"/>
<stop offset="1" stop-color="white" stop-opacity="0"/>
</linearGradient>
</defs>
</svg>
